<?xml version="1.0" encoding="utf-8" standalone="no"?>
<!DOCTYPE svg PUBLIC "-//W3C//DTD SVG 1.1//EN"
  "http://www.w3.org/Graphics/SVG/1.1/DTD/svg11.dtd">
<svg xmlns:xlink="http://www.w3.org/1999/xlink" width="260.384297pt" height="281.578375pt" viewBox="0 0 260.384297 281.578375" xmlns="http://www.w3.org/2000/svg" version="1.1">
 <metadata>
  <rdf:RDF xmlns:dc="http://purl.org/dc/elements/1.1/" xmlns:cc="http://creativecommons.org/ns#" xmlns:rdf="http://www.w3.org/1999/02/22-rdf-syntax-ns#">
   <cc:Work>
    <dc:type rdf:resource="http://purl.org/dc/dcmitype/StillImage"/>
    <dc:date>2024-03-11T17:48:44.637980</dc:date>
    <dc:format>image/svg+xml</dc:format>
    <dc:creator>
     <cc:Agent>
      <dc:title>Matplotlib v3.7.2, https://matplotlib.org/</dc:title>
     </cc:Agent>
    </dc:creator>
   </cc:Work>
  </rdf:RDF>
 </metadata>
 <defs>
  <style type="text/css">*{stroke-linejoin: round; stroke-linecap: butt}</style>
 </defs>
 <g id="figure_1">
  <g id="patch_1">
   <path d="M 0 281.578375 
L 260.384297 281.578375 
L 260.384297 0 
L 0 0 
z
" style="fill: #ffffff"/>
  </g>
  <g id="axes_1">
   <g id="patch_2">
    <path d="M 28.845938 244.989937 
L 252.045937 244.989937 
L 252.045937 23.229938 
L 28.845938 23.229938 
z
" style="fill: #ffffff"/>
   </g>
   <g id="PolyCollection_1">
    <defs>
     <path id="mab9b7dbdd5" d="M 168.70998 -7.047671 
L 168.70998 -6.993204 
L 169.412096 -6.974943 
L 170.114211 -6.949994 
L 170.816327 -6.919339 
L 171.518443 -6.88595 
L 172.220559 -6.854607 
L 172.922674 -6.830886 
L 173.62479 -6.819535 
L 174.326906 -6.822849 
L 175.029021 -6.839716 
L 175.731137 -6.865725 
L 176.433253 -6.894183 
L 177.135369 -6.917444 
L 177.837484 -6.927954 
L 178.5396 -6.91877 
L 179.241716 -6.883838 
L 179.943831 -6.818585 
L 180.645947 -6.721234 
L 181.348063 -6.594652 
L 182.050178 -6.447889 
L 182.752294 -6.296203 
L 183.45441 -6.158731 
L 184.156526 -6.053943 
L 184.858641 -5.994316 
L 185.560757 -5.982407 
L 186.262873 -6.010202 
L 186.964988 -6.062111 
L 187.667104 -6.120145 
L 188.36922 -6.168663 
L 189.071336 -6.196428 
L 189.773451 -6.195355 
L 190.475567 -6.157243 
L 191.177683 -6.070805 
L 191.879798 -5.920962 
L 192.581914 -5.691043 
L 193.28403 -5.367009 
L 193.986146 -4.941911 
L 194.688261 -4.418675 
L 195.390377 -3.809902 
L 196.092493 -3.134547 
L 196.794608 -2.41247 
L 197.496724 -1.658689 
L 198.19884 -0.879218 
L 198.900955 -0.06966 
L 199.603071 0.783217 
L 200.305187 1.697459 
L 201.007303 2.690404 
L 201.709418 3.772888 
L 202.411534 4.944719 
L 203.11365 6.192894 
L 203.815765 7.493228 
L 204.517881 8.814561 
L 205.219997 10.123468 
L 205.922113 11.387501 
L 206.624228 12.57636 
L 207.326344 13.662181 
L 208.02846 14.621064 
L 208.730575 15.43748 
L 209.432691 16.111491 
L 210.134807 16.666316 
L 210.836923 17.151663 
L 211.539038 17.637876 
L 212.241154 18.19865 
L 212.94327 18.885543 
L 213.645385 19.703232 
L 214.347501 20.596578 
L 215.049617 21.457011 
L 215.751733 22.147887 
L 216.453848 22.540408 
L 217.155964 22.547562 
L 217.85808 22.144847 
L 218.560195 21.37199 
L 219.262311 20.316822 
L 219.964427 19.088109 
L 220.666542 17.786836 
L 221.368658 16.484518 
L 222.070774 15.213352 
L 222.77289 13.968367 
L 223.475005 12.718348 
L 224.177121 11.421167 
L 224.879237 10.039593 
L 225.581352 8.55442 
L 226.283468 6.972247 
L 226.985584 5.325967 
L 227.6877 3.667841 
L 228.389815 2.05742 
L 229.091931 0.548583 
L 229.794047 -0.819998 
L 230.496162 -2.028373 
L 231.198278 -3.073036 
L 231.900394 -3.961206 
L 232.60251 -4.704765 
L 233.304625 -5.316184 
L 234.006741 -5.807156 
L 234.708857 -6.189254 
L 235.410972 -6.47518 
L 236.113088 -6.679441 
L 236.815204 -6.817922 
L 237.517319 -6.906599 
L 238.219435 -6.96004 
L 238.219435 -7.080835 
L 238.219435 -7.080835 
L 237.517319 -7.134276 
L 236.815204 -7.222953 
L 236.113088 -7.361434 
L 235.410972 -7.565695 
L 234.708857 -7.851621 
L 234.006741 -8.233719 
L 233.304625 -8.724691 
L 232.60251 -9.33611 
L 231.900394 -10.079669 
L 231.198278 -10.967839 
L 230.496162 -12.012502 
L 229.794047 -13.220877 
L 229.091931 -14.589458 
L 228.389815 -16.098295 
L 227.6877 -17.708716 
L 226.985584 -19.366842 
L 226.283468 -21.013122 
L 225.581352 -22.595295 
L 224.879237 -24.080468 
L 224.177121 -25.462042 
L 223.475005 -26.759223 
L 222.77289 -28.009242 
L 222.070774 -29.254227 
L 221.368658 -30.525393 
L 220.666542 -31.827711 
L 219.964427 -33.128984 
L 219.262311 -34.357697 
L 218.560195 -35.412865 
L 217.85808 -36.185722 
L 217.155964 -36.588437 
L 216.453848 -36.581283 
L 215.751733 -36.188762 
L 215.049617 -35.497886 
L 214.347501 -34.637453 
L 213.645385 -33.744107 
L 212.94327 -32.926418 
L 212.241154 -32.239525 
L 211.539038 -31.678751 
L 210.836923 -31.192538 
L 210.134807 -30.707191 
L 209.432691 -30.152366 
L 208.730575 -29.478355 
L 208.02846 -28.661939 
L 207.326344 -27.703056 
L 206.624228 -26.617235 
L 205.922113 -25.428376 
L 205.219997 -24.164343 
L 204.517881 -22.855436 
L 203.815765 -21.534103 
L 203.11365 -20.233769 
L 202.411534 -18.985594 
L 201.709418 -17.813763 
L 201.007303 -16.731279 
L 200.305187 -15.738334 
L 199.603071 -14.824092 
L 198.900955 -13.971215 
L 198.19884 -13.161657 
L 197.496724 -12.382186 
L 196.794608 -11.628405 
L 196.092493 -10.906328 
L 195.390377 -10.230973 
L 194.688261 -9.6222 
L 193.986146 -9.098964 
L 193.28403 -8.673866 
L 192.581914 -8.349832 
L 191.879798 -8.119913 
L 191.177683 -7.97007 
L 190.475567 -7.883632 
L 189.773451 -7.84552 
L 189.071336 -7.844447 
L 188.36922 -7.872212 
L 187.667104 -7.92073 
L 186.964988 -7.978764 
L 186.262873 -8.030673 
L 185.560757 -8.058468 
L 184.858641 -8.046559 
L 184.156526 -7.986932 
L 183.45441 -7.882144 
L 182.752294 -7.744672 
L 182.050178 -7.592986 
L 181.348063 -7.446223 
L 180.645947 -7.319641 
L 179.943831 -7.22229 
L 179.241716 -7.157037 
L 178.5396 -7.122105 
L 177.837484 -7.112921 
L 177.135369 -7.123431 
L 176.433253 -7.146692 
L 175.731137 -7.17515 
L 175.029021 -7.201159 
L 174.326906 -7.218026 
L 173.62479 -7.22134 
L 172.922674 -7.209989 
L 172.220559 -7.186268 
L 171.518443 -7.154925 
L 170.816327 -7.121536 
L 170.114211 -7.090881 
L 169.412096 -7.065932 
L 168.70998 -7.047671 
z
" style="stroke: #3f3f3f; stroke-width: 0.5"/>
    </defs>
    <g clip-path="url(#p04c34c2b40)">
     <use xlink:href="#mab9b7dbdd5" x="0" y="281.578375" style="fill: #3274a1; stroke: #3f3f3f; stroke-width: 0.5"/>
    </g>
   </g>
   <g id="PolyCollection_2">
    <defs>
     <path id="mc3e68f1f61" d="M 38.991392 -66.185449 
L 38.991392 -66.127426 
L 41.040979 -66.108889 
L 43.090566 -66.082785 
L 45.140152 -66.048369 
L 47.189739 -66.005779 
L 49.239326 -65.95606 
L 51.288913 -65.900787 
L 53.338499 -65.841282 
L 55.388086 -65.777597 
L 57.437673 -65.70758 
L 59.48726 -65.626413 
L 61.536847 -65.526981 
L 63.586433 -65.40128 
L 65.63602 -65.242766 
L 67.685607 -65.049192 
L 69.735194 -64.825011 
L 71.78478 -64.582251 
L 73.834367 -64.33901 
L 75.883954 -64.115524 
L 77.933541 -63.928827 
L 79.983128 -63.787865 
L 82.032714 -63.690903 
L 84.082301 -63.626183 
L 86.131888 -63.575378 
L 88.181475 -63.518236 
L 90.231061 -63.436549 
L 92.280648 -63.316148 
L 94.330235 -63.146747 
L 96.379822 -62.920451 
L 98.429409 -62.630116 
L 100.478995 -62.268546 
L 102.528582 -61.82874 
L 104.578169 -61.304662 
L 106.627756 -60.691631 
L 108.677342 -59.985766 
L 110.726929 -59.182828 
L 112.776516 -58.277632 
L 114.826103 -57.265307 
L 116.87569 -56.144809 
L 118.925276 -54.923675 
L 120.974863 -53.622038 
L 123.02445 -52.27386 
L 125.074037 -50.924336 
L 127.123623 -49.623647 
L 129.17321 -48.418204 
L 131.222797 -47.341113 
L 133.272384 -46.403959 
L 135.321971 -45.592364 
L 137.371557 -44.867622 
L 139.421144 -44.175496 
L 141.470731 -43.460847 
L 143.520318 -42.683937 
L 145.569904 -41.832669 
L 147.619491 -40.925955 
L 149.669078 -40.006879 
L 151.718665 -39.128784 
L 153.768252 -38.3405 
L 155.817838 -37.676888 
L 157.867425 -37.157865 
L 159.917012 -36.794672 
L 161.966599 -36.59883 
L 164.016185 -36.588438 
L 166.065772 -36.788277 
L 168.115359 -37.223487 
L 170.164946 -37.909615 
L 172.214533 -38.843394 
L 174.264119 -39.998134 
L 176.313706 -41.325473 
L 178.363293 -42.762611 
L 180.41288 -44.242323 
L 182.462466 -45.702759 
L 184.512053 -47.095172 
L 186.56164 -48.389135 
L 188.611227 -49.575529 
L 190.660814 -50.667254 
L 192.7104 -51.696856 
L 194.759987 -52.710121 
L 196.809574 -53.755679 
L 198.859161 -54.872433 
L 200.908747 -56.078164 
L 202.958334 -57.362952 
L 205.007921 -58.689781 
L 207.057508 -60.00236 
L 209.107095 -61.237789 
L 211.156681 -62.340203 
L 213.206268 -63.271534 
L 215.255855 -64.016817 
L 217.305442 -64.583452 
L 219.355028 -64.995706 
L 221.404615 -65.286808 
L 223.454202 -65.491135 
L 225.503789 -65.638346 
L 227.553376 -65.750309 
L 229.602962 -65.84069 
L 231.652549 -65.916438 
L 233.702136 -65.98014 
L 235.751723 -66.032334 
L 237.801309 -66.073206 
L 239.850896 -66.103467 
L 241.900483 -66.124533 
L 241.900483 -66.188342 
L 241.900483 -66.188342 
L 239.850896 -66.209408 
L 237.801309 -66.239669 
L 235.751723 -66.280541 
L 233.702136 -66.332735 
L 231.652549 -66.396437 
L 229.602962 -66.472185 
L 227.553376 -66.562566 
L 225.503789 -66.674529 
L 223.454202 -66.82174 
L 221.404615 -67.026067 
L 219.355028 -67.317169 
L 217.305442 -67.729423 
L 215.255855 -68.296058 
L 213.206268 -69.041341 
L 211.156681 -69.972672 
L 209.107095 -71.075086 
L 207.057508 -72.310515 
L 205.007921 -73.623094 
L 202.958334 -74.949923 
L 200.908747 -76.234711 
L 198.859161 -77.440442 
L 196.809574 -78.557196 
L 194.759987 -79.602754 
L 192.7104 -80.616019 
L 190.660814 -81.645621 
L 188.611227 -82.737346 
L 186.56164 -83.92374 
L 184.512053 -85.217703 
L 182.462466 -86.610116 
L 180.41288 -88.070552 
L 178.363293 -89.550264 
L 176.313706 -90.987402 
L 174.264119 -92.314741 
L 172.214533 -93.469481 
L 170.164946 -94.40326 
L 168.115359 -95.089388 
L 166.065772 -95.524598 
L 164.016185 -95.724437 
L 161.966599 -95.714045 
L 159.917012 -95.518203 
L 157.867425 -95.15501 
L 155.817838 -94.635987 
L 153.768252 -93.972375 
L 151.718665 -93.184091 
L 149.669078 -92.305996 
L 147.619491 -91.38692 
L 145.569904 -90.480206 
L 143.520318 -89.628938 
L 141.470731 -88.852028 
L 139.421144 -88.137379 
L 137.371557 -87.445253 
L 135.321971 -86.720511 
L 133.272384 -85.908916 
L 131.222797 -84.971762 
L 129.17321 -83.894671 
L 127.123623 -82.689228 
L 125.074037 -81.388539 
L 123.02445 -80.039015 
L 120.974863 -78.690837 
L 118.925276 -77.3892 
L 116.87569 -76.168066 
L 114.826103 -75.047568 
L 112.776516 -74.035243 
L 110.726929 -73.130047 
L 108.677342 -72.327109 
L 106.627756 -71.621244 
L 104.578169 -71.008213 
L 102.528582 -70.484135 
L 100.478995 -70.044329 
L 98.429409 -69.682759 
L 96.379822 -69.392424 
L 94.330235 -69.166128 
L 92.280648 -68.996727 
L 90.231061 -68.876326 
L 88.181475 -68.794639 
L 86.131888 -68.737497 
L 84.082301 -68.686692 
L 82.032714 -68.621972 
L 79.983128 -68.52501 
L 77.933541 -68.384048 
L 75.883954 -68.197351 
L 73.834367 -67.973865 
L 71.78478 -67.730624 
L 69.735194 -67.487864 
L 67.685607 -67.263683 
L 65.63602 -67.070109 
L 63.586433 -66.911595 
L 61.536847 -66.785894 
L 59.48726 -66.686462 
L 57.437673 -66.605295 
L 55.388086 -66.535278 
L 53.338499 -66.471593 
L 51.288913 -66.412088 
L 49.239326 -66.356815 
L 47.189739 -66.307096 
L 45.140152 -66.264506 
L 43.090566 -66.23009 
L 41.040979 -66.203986 
L 38.991392 -66.185449 
z
" style="stroke: #3f3f3f; stroke-width: 0.5"/>
    </defs>
    <g clip-path="url(#p04c34c2b40)">
     <use xlink:href="#mc3e68f1f61" x="0" y="281.578375" style="fill: #e1812c; stroke: #3f3f3f; stroke-width: 0.5"/>
    </g>
   </g>
   <g id="patch_3">
    <path d="M -104283.247741 244.989937 
L -104283.247741 244.989937 
L -104283.247741 244.989937 
L -104283.247741 244.989937 
z
" clip-path="url(#p04c34c2b40)" style="fill: #3274a1; stroke: #3f3f3f; stroke-width: 0.5; stroke-linejoin: miter"/>
   </g>
   <g id="patch_4">
    <path d="M -104283.247741 244.989937 
L -104283.247741 244.989937 
L -104283.247741 244.989937 
L -104283.247741 244.989937 
z
" clip-path="url(#p04c34c2b40)" style="fill: #e1812c; stroke: #3f3f3f; stroke-width: 0.5; stroke-linejoin: miter"/>
   </g>
   <g id="matplotlib.axis_1">
    <g id="xtick_1">
     <g id="line2d_1">
      <defs>
       <path id="m79b58e2184" d="M 0 0 
L 0 3.5 
" style="stroke: #000000; stroke-width: 0.8"/>
      </defs>
      <g>
       <use xlink:href="#m79b58e2184" x="53.733238" y="244.989937" style="stroke: #000000; stroke-width: 0.8"/>
      </g>
     </g>
     <g id="text_1">
      <!-- 99.825 -->
      <g transform="translate(39.736988 258.068688) scale(0.08 -0.08)">
       <defs>
        <path id="DejaVuSerif-39" d="M 2994 2091 
Q 2784 1856 2512 1740 
Q 2241 1625 1900 1625 
Q 1206 1625 804 2044 
Q 403 2463 403 3188 
Q 403 3897 839 4323 
Q 1275 4750 2003 4750 
Q 2794 4750 3217 4161 
Q 3641 3572 3641 2478 
Q 3641 1253 3137 581 
Q 2634 -91 1722 -91 
Q 1475 -91 1203 -44 
Q 931 3 647 97 
L 647 872 
L 997 872 
Q 1038 556 1241 387 
Q 1444 219 1784 219 
Q 2391 219 2687 676 
Q 2984 1134 2994 2091 
z
M 1978 4441 
Q 1534 4441 1298 4117 
Q 1063 3794 1063 3188 
Q 1063 2581 1298 2256 
Q 1534 1931 1978 1931 
Q 2422 1931 2658 2245 
Q 2894 2559 2894 3150 
Q 2894 3772 2656 4106 
Q 2419 4441 1978 4441 
z
" transform="scale(0.015625)"/>
        <path id="DejaVuSerif-2e" d="M 603 325 
Q 603 500 722 622 
Q 841 744 1019 744 
Q 1191 744 1312 622 
Q 1434 500 1434 325 
Q 1434 153 1312 31 
Q 1191 -91 1019 -91 
Q 841 -91 722 29 
Q 603 150 603 325 
z
" transform="scale(0.015625)"/>
        <path id="DejaVuSerif-38" d="M 2981 1275 
Q 2981 1775 2732 2051 
Q 2484 2328 2034 2328 
Q 1584 2328 1336 2051 
Q 1088 1775 1088 1275 
Q 1088 772 1336 495 
Q 1584 219 2034 219 
Q 2484 219 2732 495 
Q 2981 772 2981 1275 
z
M 2853 3541 
Q 2853 3966 2637 4203 
Q 2422 4441 2034 4441 
Q 1650 4441 1433 4203 
Q 1216 3966 1216 3541 
Q 1216 3113 1433 2875 
Q 1650 2638 2034 2638 
Q 2422 2638 2637 2875 
Q 2853 3113 2853 3541 
z
M 2516 2484 
Q 3047 2413 3344 2092 
Q 3641 1772 3641 1275 
Q 3641 619 3225 264 
Q 2809 -91 2034 -91 
Q 1263 -91 845 264 
Q 428 619 428 1275 
Q 428 1772 725 2092 
Q 1022 2413 1556 2484 
Q 1084 2569 832 2842 
Q 581 3116 581 3541 
Q 581 4103 968 4426 
Q 1356 4750 2034 4750 
Q 2713 4750 3100 4426 
Q 3488 4103 3488 3541 
Q 3488 3116 3236 2842 
Q 2984 2569 2516 2484 
z
" transform="scale(0.015625)"/>
        <path id="DejaVuSerif-32" d="M 819 3553 
L 469 3553 
L 469 4384 
Q 803 4563 1142 4656 
Q 1481 4750 1806 4750 
Q 2534 4750 2956 4397 
Q 3378 4044 3378 3438 
Q 3378 2753 2422 1800 
Q 2347 1728 2309 1691 
L 1131 513 
L 3078 513 
L 3078 1088 
L 3444 1088 
L 3444 0 
L 434 0 
L 434 341 
L 1850 1753 
Q 2319 2222 2519 2614 
Q 2719 3006 2719 3438 
Q 2719 3909 2473 4175 
Q 2228 4441 1797 4441 
Q 1350 4441 1106 4219 
Q 863 3997 819 3553 
z
" transform="scale(0.015625)"/>
        <path id="DejaVuSerif-35" d="M 3219 4666 
L 3219 4153 
L 1081 4153 
L 1081 2816 
Q 1244 2928 1461 2984 
Q 1678 3041 1947 3041 
Q 2703 3041 3140 2622 
Q 3578 2203 3578 1478 
Q 3578 738 3136 323 
Q 2694 -91 1894 -91 
Q 1572 -91 1234 -12 
Q 897 66 544 225 
L 544 1131 
L 897 1131 
Q 925 688 1179 453 
Q 1434 219 1894 219 
Q 2388 219 2653 544 
Q 2919 869 2919 1478 
Q 2919 2084 2655 2407 
Q 2391 2731 1894 2731 
Q 1613 2731 1398 2631 
Q 1184 2531 1019 2322 
L 750 2322 
L 750 4666 
L 3219 4666 
z
" transform="scale(0.015625)"/>
       </defs>
       <use xlink:href="#DejaVuSerif-39"/>
       <use xlink:href="#DejaVuSerif-39" x="63.623047"/>
       <use xlink:href="#DejaVuSerif-2e" x="127.246094"/>
       <use xlink:href="#DejaVuSerif-38" x="159.033203"/>
       <use xlink:href="#DejaVuSerif-32" x="222.65625"/>
       <use xlink:href="#DejaVuSerif-35" x="286.279297"/>
      </g>
     </g>
    </g>
    <g id="xtick_2">
     <g id="line2d_2">
      <g>
       <use xlink:href="#m79b58e2184" x="79.863211" y="244.989937" style="stroke: #000000; stroke-width: 0.8"/>
      </g>
     </g>
     <g id="text_2">
      <!-- 99.850 -->
      <g transform="translate(65.866961 258.068688) scale(0.08 -0.08)">
       <defs>
        <path id="DejaVuSerif-30" d="M 2034 219 
Q 2513 219 2750 744 
Q 2988 1269 2988 2328 
Q 2988 3391 2750 3916 
Q 2513 4441 2034 4441 
Q 1556 4441 1318 3916 
Q 1081 3391 1081 2328 
Q 1081 1269 1318 744 
Q 1556 219 2034 219 
z
M 2034 -91 
Q 1275 -91 848 546 
Q 422 1184 422 2328 
Q 422 3475 848 4112 
Q 1275 4750 2034 4750 
Q 2797 4750 3222 4112 
Q 3647 3475 3647 2328 
Q 3647 1184 3222 546 
Q 2797 -91 2034 -91 
z
" transform="scale(0.015625)"/>
       </defs>
       <use xlink:href="#DejaVuSerif-39"/>
       <use xlink:href="#DejaVuSerif-39" x="63.623047"/>
       <use xlink:href="#DejaVuSerif-2e" x="127.246094"/>
       <use xlink:href="#DejaVuSerif-38" x="159.033203"/>
       <use xlink:href="#DejaVuSerif-35" x="222.65625"/>
       <use xlink:href="#DejaVuSerif-30" x="286.279297"/>
      </g>
     </g>
    </g>
    <g id="xtick_3">
     <g id="line2d_3">
      <g>
       <use xlink:href="#m79b58e2184" x="105.993183" y="244.989937" style="stroke: #000000; stroke-width: 0.8"/>
      </g>
     </g>
     <g id="text_3">
      <!-- 99.875 -->
      <g transform="translate(91.996933 258.068688) scale(0.08 -0.08)">
       <defs>
        <path id="DejaVuSerif-37" d="M 3609 4347 
L 1784 0 
L 1319 0 
L 3059 4153 
L 903 4153 
L 903 3578 
L 538 3578 
L 538 4666 
L 3609 4666 
L 3609 4347 
z
" transform="scale(0.015625)"/>
       </defs>
       <use xlink:href="#DejaVuSerif-39"/>
       <use xlink:href="#DejaVuSerif-39" x="63.623047"/>
       <use xlink:href="#DejaVuSerif-2e" x="127.246094"/>
       <use xlink:href="#DejaVuSerif-38" x="159.033203"/>
       <use xlink:href="#DejaVuSerif-37" x="222.65625"/>
       <use xlink:href="#DejaVuSerif-35" x="286.279297"/>
      </g>
     </g>
    </g>
    <g id="xtick_4">
     <g id="line2d_4">
      <g>
       <use xlink:href="#m79b58e2184" x="132.123156" y="244.989937" style="stroke: #000000; stroke-width: 0.8"/>
      </g>
     </g>
     <g id="text_4">
      <!-- 99.900 -->
      <g transform="translate(118.126906 258.068688) scale(0.08 -0.08)">
       <use xlink:href="#DejaVuSerif-39"/>
       <use xlink:href="#DejaVuSerif-39" x="63.623047"/>
       <use xlink:href="#DejaVuSerif-2e" x="127.246094"/>
       <use xlink:href="#DejaVuSerif-39" x="159.033203"/>
       <use xlink:href="#DejaVuSerif-30" x="222.65625"/>
       <use xlink:href="#DejaVuSerif-30" x="286.279297"/>
      </g>
     </g>
    </g>
    <g id="xtick_5">
     <g id="line2d_5">
      <g>
       <use xlink:href="#m79b58e2184" x="158.253129" y="244.989937" style="stroke: #000000; stroke-width: 0.8"/>
      </g>
     </g>
     <g id="text_5">
      <!-- 99.925 -->
      <g transform="translate(144.256879 258.068688) scale(0.08 -0.08)">
       <use xlink:href="#DejaVuSerif-39"/>
       <use xlink:href="#DejaVuSerif-39" x="63.623047"/>
       <use xlink:href="#DejaVuSerif-2e" x="127.246094"/>
       <use xlink:href="#DejaVuSerif-39" x="159.033203"/>
       <use xlink:href="#DejaVuSerif-32" x="222.65625"/>
       <use xlink:href="#DejaVuSerif-35" x="286.279297"/>
      </g>
     </g>
    </g>
    <g id="xtick_6">
     <g id="line2d_6">
      <g>
       <use xlink:href="#m79b58e2184" x="184.383101" y="244.989937" style="stroke: #000000; stroke-width: 0.8"/>
      </g>
     </g>
     <g id="text_6">
      <!-- 99.950 -->
      <g transform="translate(170.386851 258.068688) scale(0.08 -0.08)">
       <use xlink:href="#DejaVuSerif-39"/>
       <use xlink:href="#DejaVuSerif-39" x="63.623047"/>
       <use xlink:href="#DejaVuSerif-2e" x="127.246094"/>
       <use xlink:href="#DejaVuSerif-39" x="159.033203"/>
       <use xlink:href="#DejaVuSerif-35" x="222.65625"/>
       <use xlink:href="#DejaVuSerif-30" x="286.279297"/>
      </g>
     </g>
    </g>
    <g id="xtick_7">
     <g id="line2d_7">
      <g>
       <use xlink:href="#m79b58e2184" x="210.513074" y="244.989937" style="stroke: #000000; stroke-width: 0.8"/>
      </g>
     </g>
     <g id="text_7">
      <!-- 99.975 -->
      <g transform="translate(196.516824 258.068688) scale(0.08 -0.08)">
       <use xlink:href="#DejaVuSerif-39"/>
       <use xlink:href="#DejaVuSerif-39" x="63.623047"/>
       <use xlink:href="#DejaVuSerif-2e" x="127.246094"/>
       <use xlink:href="#DejaVuSerif-39" x="159.033203"/>
       <use xlink:href="#DejaVuSerif-37" x="222.65625"/>
       <use xlink:href="#DejaVuSerif-35" x="286.279297"/>
      </g>
     </g>
    </g>
    <g id="xtick_8">
     <g id="line2d_8">
      <g>
       <use xlink:href="#m79b58e2184" x="236.643047" y="244.989937" style="stroke: #000000; stroke-width: 0.8"/>
      </g>
     </g>
     <g id="text_8">
      <!-- 100.000 -->
      <g transform="translate(220.101797 258.068688) scale(0.08 -0.08)">
       <defs>
        <path id="DejaVuSerif-31" d="M 909 0 
L 909 331 
L 1722 331 
L 1722 4213 
L 781 3603 
L 781 4013 
L 1919 4750 
L 2350 4750 
L 2350 331 
L 3163 331 
L 3163 0 
L 909 0 
z
" transform="scale(0.015625)"/>
       </defs>
       <use xlink:href="#DejaVuSerif-31"/>
       <use xlink:href="#DejaVuSerif-30" x="63.623047"/>
       <use xlink:href="#DejaVuSerif-30" x="127.246094"/>
       <use xlink:href="#DejaVuSerif-2e" x="190.869141"/>
       <use xlink:href="#DejaVuSerif-30" x="222.65625"/>
       <use xlink:href="#DejaVuSerif-30" x="286.279297"/>
       <use xlink:href="#DejaVuSerif-30" x="349.902344"/>
      </g>
     </g>
    </g>
    <g id="text_9">
     <!-- Error Percentage -->
     <g transform="translate(92.004688 271.934312) scale(0.11 -0.11)">
      <defs>
       <path id="DejaVuSerif-45" d="M 353 0 
L 353 331 
L 947 331 
L 947 4331 
L 353 4331 
L 353 4666 
L 4109 4666 
L 4109 3628 
L 3725 3628 
L 3725 4281 
L 1581 4281 
L 1581 2719 
L 3109 2719 
L 3109 3303 
L 3494 3303 
L 3494 1753 
L 3109 1753 
L 3109 2338 
L 1581 2338 
L 1581 384 
L 3775 384 
L 3775 1038 
L 4159 1038 
L 4159 0 
L 353 0 
z
" transform="scale(0.015625)"/>
       <path id="DejaVuSerif-72" d="M 3059 3328 
L 3059 2497 
L 2728 2497 
Q 2713 2744 2591 2866 
Q 2469 2988 2234 2988 
Q 1809 2988 1582 2694 
Q 1356 2400 1356 1850 
L 1356 331 
L 2022 331 
L 2022 0 
L 263 0 
L 263 331 
L 781 331 
L 781 2994 
L 231 2994 
L 231 3322 
L 1356 3322 
L 1356 2731 
Q 1525 3078 1790 3245 
Q 2056 3413 2438 3413 
Q 2578 3413 2733 3391 
Q 2888 3369 3059 3328 
z
" transform="scale(0.015625)"/>
       <path id="DejaVuSerif-6f" d="M 1925 219 
Q 2388 219 2623 584 
Q 2859 950 2859 1663 
Q 2859 2375 2623 2739 
Q 2388 3103 1925 3103 
Q 1463 3103 1227 2739 
Q 991 2375 991 1663 
Q 991 950 1228 584 
Q 1466 219 1925 219 
z
M 1925 -91 
Q 1200 -91 759 389 
Q 319 869 319 1663 
Q 319 2456 758 2934 
Q 1197 3413 1925 3413 
Q 2653 3413 3092 2934 
Q 3531 2456 3531 1663 
Q 3531 869 3092 389 
Q 2653 -91 1925 -91 
z
" transform="scale(0.015625)"/>
       <path id="DejaVuSerif-20" transform="scale(0.015625)"/>
       <path id="DejaVuSerif-50" d="M 1581 2375 
L 2406 2375 
Q 2872 2375 3115 2626 
Q 3359 2878 3359 3353 
Q 3359 3831 3115 4081 
Q 2872 4331 2406 4331 
L 1581 4331 
L 1581 2375 
z
M 353 0 
L 353 331 
L 947 331 
L 947 4331 
L 353 4331 
L 353 4666 
L 2559 4666 
Q 3259 4666 3668 4311 
Q 4078 3956 4078 3353 
Q 4078 2753 3668 2397 
Q 3259 2041 2559 2041 
L 1581 2041 
L 1581 331 
L 2303 331 
L 2303 0 
L 353 0 
z
" transform="scale(0.015625)"/>
       <path id="DejaVuSerif-65" d="M 3469 1600 
L 991 1600 
L 991 1575 
Q 991 903 1244 561 
Q 1497 219 1991 219 
Q 2369 219 2611 417 
Q 2853 616 2950 1006 
L 3413 1006 
Q 3275 459 2904 184 
Q 2534 -91 1931 -91 
Q 1203 -91 761 389 
Q 319 869 319 1663 
Q 319 2450 753 2931 
Q 1188 3413 1894 3413 
Q 2647 3413 3050 2948 
Q 3453 2484 3469 1600 
z
M 2791 1931 
Q 2772 2513 2545 2808 
Q 2319 3103 1894 3103 
Q 1497 3103 1269 2806 
Q 1041 2509 991 1931 
L 2791 1931 
z
" transform="scale(0.015625)"/>
       <path id="DejaVuSerif-63" d="M 3291 997 
Q 3169 466 2822 187 
Q 2475 -91 1925 -91 
Q 1200 -91 759 389 
Q 319 869 319 1663 
Q 319 2459 759 2936 
Q 1200 3413 1925 3413 
Q 2241 3413 2553 3339 
Q 2866 3266 3181 3116 
L 3181 2266 
L 2847 2266 
Q 2781 2703 2561 2903 
Q 2341 3103 1931 3103 
Q 1466 3103 1228 2742 
Q 991 2381 991 1663 
Q 991 944 1227 581 
Q 1463 219 1931 219 
Q 2303 219 2525 412 
Q 2747 606 2828 997 
L 3291 997 
z
" transform="scale(0.015625)"/>
       <path id="DejaVuSerif-6e" d="M 263 0 
L 263 331 
L 781 331 
L 781 2988 
L 231 2988 
L 231 3322 
L 1356 3322 
L 1356 2731 
Q 1516 3069 1770 3241 
Q 2025 3413 2363 3413 
Q 2913 3413 3172 3097 
Q 3431 2781 3431 2113 
L 3431 331 
L 3944 331 
L 3944 0 
L 2356 0 
L 2356 331 
L 2853 331 
L 2853 1931 
Q 2853 2541 2703 2767 
Q 2553 2994 2175 2994 
Q 1775 2994 1565 2701 
Q 1356 2409 1356 1850 
L 1356 331 
L 1856 331 
L 1856 0 
L 263 0 
z
" transform="scale(0.015625)"/>
       <path id="DejaVuSerif-74" d="M 691 2988 
L 184 2988 
L 184 3322 
L 691 3322 
L 691 4353 
L 1269 4353 
L 1269 3322 
L 2350 3322 
L 2350 2988 
L 1269 2988 
L 1269 878 
Q 1269 456 1350 337 
Q 1431 219 1650 219 
Q 1875 219 1978 351 
Q 2081 484 2088 781 
L 2522 781 
Q 2497 328 2275 118 
Q 2053 -91 1600 -91 
Q 1103 -91 897 129 
Q 691 350 691 878 
L 691 2988 
z
" transform="scale(0.015625)"/>
       <path id="DejaVuSerif-61" d="M 2547 1044 
L 2547 1747 
L 1806 1747 
Q 1378 1747 1168 1562 
Q 959 1378 959 997 
Q 959 650 1171 447 
Q 1384 244 1747 244 
Q 2106 244 2326 466 
Q 2547 688 2547 1044 
z
M 3122 2075 
L 3122 331 
L 3634 331 
L 3634 0 
L 2547 0 
L 2547 359 
Q 2356 128 2106 18 
Q 1856 -91 1522 -91 
Q 969 -91 644 203 
Q 319 497 319 997 
Q 319 1513 691 1797 
Q 1063 2081 1741 2081 
L 2547 2081 
L 2547 2309 
Q 2547 2688 2317 2895 
Q 2088 3103 1672 3103 
Q 1328 3103 1125 2947 
Q 922 2791 872 2484 
L 575 2484 
L 575 3156 
Q 875 3284 1158 3348 
Q 1441 3413 1709 3413 
Q 2400 3413 2761 3070 
Q 3122 2728 3122 2075 
z
" transform="scale(0.015625)"/>
       <path id="DejaVuSerif-67" d="M 3359 2988 
L 3359 72 
Q 3359 -644 2965 -1033 
Q 2572 -1422 1844 -1422 
Q 1516 -1422 1216 -1362 
Q 916 -1303 641 -1184 
L 641 -488 
L 941 -488 
Q 997 -813 1206 -963 
Q 1416 -1113 1806 -1113 
Q 2313 -1113 2548 -827 
Q 2784 -541 2784 72 
L 2784 519 
Q 2616 206 2355 57 
Q 2094 -91 1709 -91 
Q 1097 -91 708 395 
Q 319 881 319 1663 
Q 319 2444 706 2928 
Q 1094 3413 1709 3413 
Q 2094 3413 2355 3264 
Q 2616 3116 2784 2803 
L 2784 3322 
L 3909 3322 
L 3909 2988 
L 3359 2988 
z
M 2784 1825 
Q 2784 2422 2554 2737 
Q 2325 3053 1888 3053 
Q 1444 3053 1217 2703 
Q 991 2353 991 1663 
Q 991 975 1217 622 
Q 1444 269 1888 269 
Q 2325 269 2554 583 
Q 2784 897 2784 1497 
L 2784 1825 
z
" transform="scale(0.015625)"/>
      </defs>
      <use xlink:href="#DejaVuSerif-45"/>
      <use xlink:href="#DejaVuSerif-72" x="72.998047"/>
      <use xlink:href="#DejaVuSerif-72" x="120.800781"/>
      <use xlink:href="#DejaVuSerif-6f" x="168.603516"/>
      <use xlink:href="#DejaVuSerif-72" x="228.808594"/>
      <use xlink:href="#DejaVuSerif-20" x="276.611328"/>
      <use xlink:href="#DejaVuSerif-50" x="308.398438"/>
      <use xlink:href="#DejaVuSerif-65" x="371.183594"/>
      <use xlink:href="#DejaVuSerif-72" x="430.363281"/>
      <use xlink:href="#DejaVuSerif-63" x="478.166016"/>
      <use xlink:href="#DejaVuSerif-65" x="534.171875"/>
      <use xlink:href="#DejaVuSerif-6e" x="593.351562"/>
      <use xlink:href="#DejaVuSerif-74" x="657.755859"/>
      <use xlink:href="#DejaVuSerif-61" x="697.941406"/>
      <use xlink:href="#DejaVuSerif-67" x="757.560547"/>
      <use xlink:href="#DejaVuSerif-65" x="821.574219"/>
     </g>
    </g>
   </g>
   <g id="matplotlib.axis_2">
    <g id="ytick_1">
     <g id="line2d_9">
      <defs>
       <path id="m1ba06c57b3" d="M 0 0 
L -3.5 0 
" style="stroke: #000000; stroke-width: 0.8"/>
      </defs>
      <g>
       <use xlink:href="#m1ba06c57b3" x="28.845938" y="244.989937" style="stroke: #000000; stroke-width: 0.8"/>
      </g>
     </g>
    </g>
    <g id="text_10">
     <!-- Density -->
     <g transform="translate(15.401875 155.216187) rotate(-90) scale(0.11 -0.11)">
      <defs>
       <path id="DejaVuSerif-44" d="M 1581 331 
L 2163 331 
Q 3072 331 3558 850 
Q 4044 1369 4044 2338 
Q 4044 3306 3559 3818 
Q 3075 4331 2163 4331 
L 1581 4331 
L 1581 331 
z
M 353 0 
L 353 331 
L 947 331 
L 947 4331 
L 353 4331 
L 353 4666 
L 2209 4666 
Q 3416 4666 4089 4050 
Q 4763 3434 4763 2338 
Q 4763 1238 4088 619 
Q 3413 0 2209 0 
L 353 0 
z
" transform="scale(0.015625)"/>
       <path id="DejaVuSerif-73" d="M 359 184 
L 359 959 
L 691 959 
Q 703 588 923 403 
Q 1144 219 1575 219 
Q 1963 219 2166 364 
Q 2369 509 2369 788 
Q 2369 1006 2220 1140 
Q 2072 1275 1594 1428 
L 1178 1569 
Q 750 1706 558 1912 
Q 366 2119 366 2438 
Q 366 2894 700 3153 
Q 1034 3413 1625 3413 
Q 1888 3413 2178 3344 
Q 2469 3275 2778 3144 
L 2778 2419 
L 2447 2419 
Q 2434 2741 2221 2922 
Q 2009 3103 1644 3103 
Q 1281 3103 1095 2975 
Q 909 2847 909 2591 
Q 909 2381 1050 2254 
Q 1191 2128 1613 1997 
L 2069 1856 
Q 2541 1709 2748 1489 
Q 2956 1269 2956 922 
Q 2956 450 2595 179 
Q 2234 -91 1600 -91 
Q 1278 -91 972 -22 
Q 666 47 359 184 
z
" transform="scale(0.015625)"/>
       <path id="DejaVuSerif-69" d="M 622 4353 
Q 622 4497 726 4603 
Q 831 4709 978 4709 
Q 1122 4709 1226 4603 
Q 1331 4497 1331 4353 
Q 1331 4206 1228 4103 
Q 1125 4000 978 4000 
Q 831 4000 726 4103 
Q 622 4206 622 4353 
z
M 1356 331 
L 1900 331 
L 1900 0 
L 231 0 
L 231 331 
L 781 331 
L 781 2988 
L 231 2988 
L 231 3322 
L 1356 3322 
L 1356 331 
z
" transform="scale(0.015625)"/>
       <path id="DejaVuSerif-79" d="M 1381 -609 
L 1600 -56 
L 359 2988 
L -19 2988 
L -19 3322 
L 1509 3322 
L 1509 2988 
L 978 2988 
L 1913 703 
L 2847 2988 
L 2350 2988 
L 2350 3322 
L 3597 3322 
L 3597 2988 
L 3225 2988 
L 1703 -750 
Q 1547 -1138 1356 -1280 
Q 1166 -1422 819 -1422 
Q 672 -1422 517 -1397 
Q 363 -1372 206 -1325 
L 206 -691 
L 500 -691 
Q 519 -903 608 -995 
Q 697 -1088 884 -1088 
Q 1056 -1088 1161 -992 
Q 1266 -897 1381 -609 
z
" transform="scale(0.015625)"/>
      </defs>
      <use xlink:href="#DejaVuSerif-44"/>
      <use xlink:href="#DejaVuSerif-65" x="80.175781"/>
      <use xlink:href="#DejaVuSerif-6e" x="139.355469"/>
      <use xlink:href="#DejaVuSerif-73" x="203.759766"/>
      <use xlink:href="#DejaVuSerif-69" x="255.078125"/>
      <use xlink:href="#DejaVuSerif-74" x="287.060547"/>
      <use xlink:href="#DejaVuSerif-79" x="327.246094"/>
     </g>
    </g>
   </g>
   <g id="line2d_10">
    <path d="M 192.189648 274.557937 
L 233.123306 274.557937 
" clip-path="url(#p04c34c2b40)" style="fill: none; stroke: #3f3f3f; stroke-width: 0.75; stroke-linecap: square"/>
   </g>
   <g id="line2d_11">
    <path d="M 208.267494 274.557937 
L 220.154039 274.557937 
" clip-path="url(#p04c34c2b40)" style="fill: none; stroke: #3f3f3f; stroke-width: 2.25; stroke-linecap: square"/>
   </g>
   <g id="line2d_12">
    <path d="M 215.043673 274.557937 
" clip-path="url(#p04c34c2b40)" style="fill: none; stroke: #3f3f3f; stroke-width: 20; stroke-linecap: square"/>
    <defs>
     <path id="m0b7c97a2e9" d="M 0 0.9375 
L 0 -0.9375 
" style="stroke: #ffffff; stroke-width: 0.45"/>
    </defs>
    <g clip-path="url(#p04c34c2b40)">
     <use xlink:href="#m0b7c97a2e9" x="215.043673" y="274.557937" style="fill: #ffffff; stroke: #ffffff; stroke-width: 0.45"/>
    </g>
   </g>
   <g id="line2d_13">
    <path d="M 81.382806 215.421937 
L 225.623521 215.421937 
" clip-path="url(#p04c34c2b40)" style="fill: none; stroke: #3f3f3f; stroke-width: 0.75; stroke-linecap: square"/>
   </g>
   <g id="line2d_14">
    <path d="M 137.057933 215.421937 
L 174.743729 215.421937 
" clip-path="url(#p04c34c2b40)" style="fill: none; stroke: #3f3f3f; stroke-width: 2.25; stroke-linecap: square"/>
   </g>
   <g id="line2d_15">
    <path d="M 157.796219 215.421937 
" clip-path="url(#p04c34c2b40)" style="fill: none; stroke: #3f3f3f; stroke-width: 20; stroke-linecap: square"/>
    <g clip-path="url(#p04c34c2b40)">
     <use xlink:href="#m0b7c97a2e9" x="157.796219" y="215.421937" style="fill: #ffffff; stroke: #ffffff; stroke-width: 0.45"/>
    </g>
   </g>
   <g id="line2d_16">
    <path d="M 155.495503 244.989937 
L 155.495503 23.229938 
" clip-path="url(#p04c34c2b40)" style="fill: none; stroke-dasharray: 3.7,1.6; stroke-dashoffset: 0; stroke: #ff7f0e"/>
   </g>
   <g id="line2d_17">
    <path d="M 213.968141 244.989937 
L 213.968141 23.229938 
" clip-path="url(#p04c34c2b40)" style="fill: none; stroke-dasharray: 3.7,1.6; stroke-dashoffset: 0; stroke: #1f77b4"/>
   </g>
   <g id="patch_5">
    <path d="M 28.845938 244.989937 
L 28.845938 23.229938 
" style="fill: none; stroke: #000000; stroke-width: 0.8; stroke-linejoin: miter; stroke-linecap: square"/>
   </g>
   <g id="patch_6">
    <path d="M 252.045937 244.989937 
L 252.045937 23.229938 
" style="fill: none; stroke: #000000; stroke-width: 0.8; stroke-linejoin: miter; stroke-linecap: square"/>
   </g>
   <g id="patch_7">
    <path d="M 28.845937 244.989937 
L 252.045937 244.989937 
" style="fill: none; stroke: #000000; stroke-width: 0.8; stroke-linejoin: miter; stroke-linecap: square"/>
   </g>
   <g id="patch_8">
    <path d="M 28.845937 23.229938 
L 252.045937 23.229938 
" style="fill: none; stroke: #000000; stroke-width: 0.8; stroke-linejoin: miter; stroke-linecap: square"/>
   </g>
   <g id="text_11">
    <!-- Nonzero $x_{000}, x_{011}, x_{100}$ -->
    <g transform="translate(64.347938 17.229938) scale(0.132 -0.132)">
     <defs>
      <path id="DejaVuSerif-4e" d="M 313 0 
L 313 331 
L 941 331 
L 941 4331 
L 313 4331 
L 313 4666 
L 1509 4666 
L 4306 984 
L 4306 4331 
L 3681 4331 
L 3681 4666 
L 5319 4666 
L 5319 4331 
L 4691 4331 
L 4691 -91 
L 4313 -91 
L 1325 3841 
L 1325 331 
L 1953 331 
L 1953 0 
L 313 0 
z
" transform="scale(0.015625)"/>
      <path id="DejaVuSerif-7a" d="M 256 0 
L 256 269 
L 2338 2988 
L 691 2988 
L 691 2413 
L 359 2413 
L 359 3322 
L 3078 3322 
L 3078 3053 
L 997 331 
L 2803 331 
L 2803 934 
L 3138 934 
L 3138 0 
L 256 0 
z
" transform="scale(0.015625)"/>
      <path id="DejaVuSans-Oblique-78" d="M 3841 3500 
L 2234 1784 
L 3219 0 
L 2559 0 
L 1819 1388 
L 531 0 
L -166 0 
L 1556 1844 
L 641 3500 
L 1300 3500 
L 1972 2234 
L 3144 3500 
L 3841 3500 
z
" transform="scale(0.015625)"/>
      <path id="DejaVuSans-30" d="M 2034 4250 
Q 1547 4250 1301 3770 
Q 1056 3291 1056 2328 
Q 1056 1369 1301 889 
Q 1547 409 2034 409 
Q 2525 409 2770 889 
Q 3016 1369 3016 2328 
Q 3016 3291 2770 3770 
Q 2525 4250 2034 4250 
z
M 2034 4750 
Q 2819 4750 3233 4129 
Q 3647 3509 3647 2328 
Q 3647 1150 3233 529 
Q 2819 -91 2034 -91 
Q 1250 -91 836 529 
Q 422 1150 422 2328 
Q 422 3509 836 4129 
Q 1250 4750 2034 4750 
z
" transform="scale(0.015625)"/>
      <path id="DejaVuSans-2c" d="M 750 794 
L 1409 794 
L 1409 256 
L 897 -744 
L 494 -744 
L 750 256 
L 750 794 
z
" transform="scale(0.015625)"/>
      <path id="DejaVuSans-31" d="M 794 531 
L 1825 531 
L 1825 4091 
L 703 3866 
L 703 4441 
L 1819 4666 
L 2450 4666 
L 2450 531 
L 3481 531 
L 3481 0 
L 794 0 
L 794 531 
z
" transform="scale(0.015625)"/>
     </defs>
     <use xlink:href="#DejaVuSerif-4e" transform="translate(0 0.09375)"/>
     <use xlink:href="#DejaVuSerif-6f" transform="translate(87.5 0.09375)"/>
     <use xlink:href="#DejaVuSerif-6e" transform="translate(147.705078 0.09375)"/>
     <use xlink:href="#DejaVuSerif-7a" transform="translate(212.109375 0.09375)"/>
     <use xlink:href="#DejaVuSerif-65" transform="translate(264.794922 0.09375)"/>
     <use xlink:href="#DejaVuSerif-72" transform="translate(323.974609 0.09375)"/>
     <use xlink:href="#DejaVuSerif-6f" transform="translate(371.777344 0.09375)"/>
     <use xlink:href="#DejaVuSerif-20" transform="translate(431.982422 0.09375)"/>
     <use xlink:href="#DejaVuSans-Oblique-78" transform="translate(463.769531 0.09375)"/>
     <use xlink:href="#DejaVuSans-30" transform="translate(522.949219 -16.3125) scale(0.7)"/>
     <use xlink:href="#DejaVuSans-30" transform="translate(567.485352 -16.3125) scale(0.7)"/>
     <use xlink:href="#DejaVuSans-30" transform="translate(612.021484 -16.3125) scale(0.7)"/>
     <use xlink:href="#DejaVuSans-2c" transform="translate(659.291992 0.09375)"/>
     <use xlink:href="#DejaVuSans-Oblique-78" transform="translate(710.561523 0.09375)"/>
     <use xlink:href="#DejaVuSans-30" transform="translate(769.741211 -16.3125) scale(0.7)"/>
     <use xlink:href="#DejaVuSans-31" transform="translate(814.277344 -16.3125) scale(0.7)"/>
     <use xlink:href="#DejaVuSans-31" transform="translate(858.813477 -16.3125) scale(0.7)"/>
     <use xlink:href="#DejaVuSans-2c" transform="translate(906.083984 0.09375)"/>
     <use xlink:href="#DejaVuSans-Oblique-78" transform="translate(957.353516 0.09375)"/>
     <use xlink:href="#DejaVuSans-31" transform="translate(1016.533203 -16.3125) scale(0.7)"/>
     <use xlink:href="#DejaVuSans-30" transform="translate(1061.069336 -16.3125) scale(0.7)"/>
     <use xlink:href="#DejaVuSans-30" transform="translate(1105.605469 -16.3125) scale(0.7)"/>
    </g>
   </g>
   <g id="legend_1">
    <g id="patch_9">
     <path d="M 34.445938 67.760875 
L 106.780938 67.760875 
Q 108.380938 67.760875 108.380938 66.160875 
L 108.380938 28.829937 
Q 108.380938 27.229938 106.780938 27.229938 
L 34.445938 27.229938 
Q 32.845938 27.229938 32.845938 28.829937 
L 32.845938 66.160875 
Q 32.845938 67.760875 34.445938 67.760875 
z
" style="fill: #ffffff; opacity: 0.8; stroke: #cccccc; stroke-linejoin: miter"/>
    </g>
    <g id="text_12">
     <!-- Randomized -->
     <g transform="translate(36.045938 38.788219) scale(0.11 -0.11)">
      <defs>
       <path id="DejaVuSerif-52" d="M 3066 2316 
Q 3284 2256 3442 2114 
Q 3600 1972 3725 1716 
L 4403 331 
L 4972 331 
L 4972 0 
L 3872 0 
L 3144 1484 
Q 2934 1916 2759 2042 
Q 2584 2169 2278 2169 
L 1581 2169 
L 1581 331 
L 2241 331 
L 2241 0 
L 353 0 
L 353 331 
L 947 331 
L 947 4331 
L 353 4331 
L 353 4666 
L 2719 4666 
Q 3400 4666 3770 4341 
Q 4141 4016 4141 3419 
Q 4141 2938 3870 2661 
Q 3600 2384 3066 2316 
z
M 1581 2503 
L 2503 2503 
Q 2975 2503 3200 2726 
Q 3425 2950 3425 3419 
Q 3425 3888 3200 4109 
Q 2975 4331 2503 4331 
L 1581 4331 
L 1581 2503 
z
" transform="scale(0.015625)"/>
       <path id="DejaVuSerif-64" d="M 3359 331 
L 3909 331 
L 3909 0 
L 2784 0 
L 2784 519 
Q 2616 206 2355 57 
Q 2094 -91 1709 -91 
Q 1097 -91 708 395 
Q 319 881 319 1663 
Q 319 2444 706 2928 
Q 1094 3413 1709 3413 
Q 2094 3413 2355 3264 
Q 2616 3116 2784 2803 
L 2784 4531 
L 2241 4531 
L 2241 4863 
L 3359 4863 
L 3359 331 
z
M 2784 1497 
L 2784 1825 
Q 2784 2422 2554 2737 
Q 2325 3053 1888 3053 
Q 1444 3053 1217 2703 
Q 991 2353 991 1663 
Q 991 975 1217 622 
Q 1444 269 1888 269 
Q 2325 269 2554 583 
Q 2784 897 2784 1497 
z
" transform="scale(0.015625)"/>
       <path id="DejaVuSerif-6d" d="M 3316 2675 
Q 3481 3041 3739 3227 
Q 3997 3413 4341 3413 
Q 4863 3413 5119 3089 
Q 5375 2766 5375 2113 
L 5375 331 
L 5894 331 
L 5894 0 
L 4300 0 
L 4300 331 
L 4800 331 
L 4800 2047 
Q 4800 2556 4650 2772 
Q 4500 2988 4153 2988 
Q 3769 2988 3567 2697 
Q 3366 2406 3366 1850 
L 3366 331 
L 3866 331 
L 3866 0 
L 2291 0 
L 2291 331 
L 2791 331 
L 2791 2069 
Q 2791 2566 2641 2777 
Q 2491 2988 2144 2988 
Q 1759 2988 1557 2697 
Q 1356 2406 1356 1850 
L 1356 331 
L 1856 331 
L 1856 0 
L 263 0 
L 263 331 
L 781 331 
L 781 2994 
L 231 2994 
L 231 3322 
L 1356 3322 
L 1356 2731 
Q 1516 3063 1762 3238 
Q 2009 3413 2322 3413 
Q 2709 3413 2968 3220 
Q 3228 3028 3316 2675 
z
" transform="scale(0.015625)"/>
      </defs>
      <use xlink:href="#DejaVuSerif-52"/>
      <use xlink:href="#DejaVuSerif-61" x="77.542969"/>
      <use xlink:href="#DejaVuSerif-6e" x="137.162109"/>
      <use xlink:href="#DejaVuSerif-64" x="201.566406"/>
      <use xlink:href="#DejaVuSerif-6f" x="265.580078"/>
      <use xlink:href="#DejaVuSerif-6d" x="325.785156"/>
      <use xlink:href="#DejaVuSerif-69" x="420.609375"/>
      <use xlink:href="#DejaVuSerif-7a" x="452.591797"/>
      <use xlink:href="#DejaVuSerif-65" x="505.277344"/>
      <use xlink:href="#DejaVuSerif-64" x="564.457031"/>
     </g>
    </g>
    <g id="patch_10">
     <path d="M 48.823438 51.154625 
L 64.823438 51.154625 
L 64.823438 45.554625 
L 48.823438 45.554625 
z
" style="fill: #3274a1; stroke: #3f3f3f; stroke-width: 0.5; stroke-linejoin: miter"/>
    </g>
    <g id="text_13">
     <!-- False -->
     <g transform="translate(71.223438 51.154625) scale(0.08 -0.08)">
      <defs>
       <path id="DejaVuSerif-46" d="M 353 0 
L 353 331 
L 947 331 
L 947 4331 
L 353 4331 
L 353 4666 
L 4172 4666 
L 4172 3628 
L 3788 3628 
L 3788 4281 
L 1581 4281 
L 1581 2719 
L 3175 2719 
L 3175 3303 
L 3559 3303 
L 3559 1753 
L 3175 1753 
L 3175 2338 
L 1581 2338 
L 1581 331 
L 2328 331 
L 2328 0 
L 353 0 
z
" transform="scale(0.015625)"/>
       <path id="DejaVuSerif-6c" d="M 1313 331 
L 1856 331 
L 1856 0 
L 184 0 
L 184 331 
L 738 331 
L 738 4531 
L 184 4531 
L 184 4863 
L 1313 4863 
L 1313 331 
z
" transform="scale(0.015625)"/>
      </defs>
      <use xlink:href="#DejaVuSerif-46"/>
      <use xlink:href="#DejaVuSerif-61" x="62.634766"/>
      <use xlink:href="#DejaVuSerif-6c" x="122.253906"/>
      <use xlink:href="#DejaVuSerif-73" x="154.236328"/>
      <use xlink:href="#DejaVuSerif-65" x="205.554688"/>
     </g>
    </g>
    <g id="patch_11">
     <path d="M 48.823438 62.897125 
L 64.823438 62.897125 
L 64.823438 57.297125 
L 48.823438 57.297125 
z
" style="fill: #e1812c; stroke: #3f3f3f; stroke-width: 0.5; stroke-linejoin: miter"/>
    </g>
    <g id="text_14">
     <!-- True -->
     <g transform="translate(71.223438 62.897125) scale(0.08 -0.08)">
      <defs>
       <path id="DejaVuSerif-54" d="M 1222 0 
L 1222 331 
L 1819 331 
L 1819 4294 
L 447 4294 
L 447 3566 
L 63 3566 
L 63 4666 
L 4206 4666 
L 4206 3566 
L 3822 3566 
L 3822 4294 
L 2450 4294 
L 2450 331 
L 3047 331 
L 3047 0 
L 1222 0 
z
" transform="scale(0.015625)"/>
       <path id="DejaVuSerif-75" d="M 2266 3322 
L 3341 3322 
L 3341 331 
L 3884 331 
L 3884 0 
L 2766 0 
L 2766 588 
Q 2606 256 2353 82 
Q 2100 -91 1766 -91 
Q 1213 -91 952 223 
Q 691 538 691 1209 
L 691 2988 
L 172 2988 
L 172 3322 
L 1269 3322 
L 1269 1388 
Q 1269 781 1417 556 
Q 1566 331 1947 331 
Q 2347 331 2556 625 
Q 2766 919 2766 1478 
L 2766 2988 
L 2266 2988 
L 2266 3322 
z
" transform="scale(0.015625)"/>
      </defs>
      <use xlink:href="#DejaVuSerif-54"/>
      <use xlink:href="#DejaVuSerif-72" x="66.699219"/>
      <use xlink:href="#DejaVuSerif-75" x="114.501953"/>
      <use xlink:href="#DejaVuSerif-65" x="178.90625"/>
     </g>
    </g>
   </g>
  </g>
 </g>
 <defs>
  <clipPath id="p04c34c2b40">
   <rect x="28.845938" y="23.229938" width="223.2" height="221.76"/>
  </clipPath>
 </defs>
</svg>
