<?xml version="1.0" encoding="utf-8" standalone="no"?>
<!DOCTYPE svg PUBLIC "-//W3C//DTD SVG 1.1//EN"
  "http://www.w3.org/Graphics/SVG/1.1/DTD/svg11.dtd">
<svg xmlns:xlink="http://www.w3.org/1999/xlink" width="259.245937pt" height="281.578375pt" viewBox="0 0 259.245937 281.578375" xmlns="http://www.w3.org/2000/svg" version="1.1">
 <metadata>
  <rdf:RDF xmlns:dc="http://purl.org/dc/elements/1.1/" xmlns:cc="http://creativecommons.org/ns#" xmlns:rdf="http://www.w3.org/1999/02/22-rdf-syntax-ns#">
   <cc:Work>
    <dc:type rdf:resource="http://purl.org/dc/dcmitype/StillImage"/>
    <dc:date>2024-03-11T17:48:43.769001</dc:date>
    <dc:format>image/svg+xml</dc:format>
    <dc:creator>
     <cc:Agent>
      <dc:title>Matplotlib v3.7.2, https://matplotlib.org/</dc:title>
     </cc:Agent>
    </dc:creator>
   </cc:Work>
  </rdf:RDF>
 </metadata>
 <defs>
  <style type="text/css">*{stroke-linejoin: round; stroke-linecap: butt}</style>
 </defs>
 <g id="figure_1">
  <g id="patch_1">
   <path d="M 0 281.578375 
L 259.245937 281.578375 
L 259.245937 0 
L 0 0 
z
" style="fill: #ffffff"/>
  </g>
  <g id="axes_1">
   <g id="patch_2">
    <path d="M 28.845938 244.989937 
L 252.045937 244.989937 
L 252.045937 23.229938 
L 28.845938 23.229938 
z
" style="fill: #ffffff"/>
   </g>
   <g id="PolyCollection_1">
    <defs>
     <path id="m4d961acdee" d="M 235.228516 -7.048042 
L 235.228516 -6.992833 
L 235.230563 -6.977172 
L 235.23261 -6.956329 
L 235.234657 -6.930584 
L 235.236704 -6.901198 
L 235.238751 -6.870361 
L 235.240798 -6.840749 
L 235.242845 -6.81471 
L 235.244892 -6.793247 
L 235.246939 -6.775138 
L 235.248986 -6.756527 
L 235.251033 -6.731243 
L 235.25308 -6.691857 
L 235.255127 -6.63122 
L 235.257174 -6.544024 
L 235.259221 -6.427906 
L 235.261268 -6.283739 
L 235.263315 -6.11504 
L 235.265362 -5.926744 
L 235.267409 -5.723816 
L 235.269456 -5.510213 
L 235.271503 -5.28854 
L 235.27355 -5.060421 
L 235.275597 -4.827264 
L 235.277644 -4.590867 
L 235.279691 -4.353398 
L 235.281738 -4.116527 
L 235.283785 -3.880007 
L 235.285832 -3.640373 
L 235.287879 -3.390525 
L 235.289926 -3.120697 
L 235.291973 -2.820708 
L 235.29402 -2.482768 
L 235.296067 -2.103782 
L 235.298114 -1.686258 
L 235.300161 -1.237373 
L 235.302208 -0.766445 
L 235.304255 -0.281466 
L 235.306302 0.21437 
L 235.308349 0.725283 
L 235.310396 1.263846 
L 235.312443 1.849682 
L 235.31449 2.505695 
L 235.316537 3.252327 
L 235.318584 4.101162 
L 235.320631 5.049834 
L 235.322678 6.080255 
L 235.324725 7.161348 
L 235.326772 8.25602 
L 235.328819 9.330545 
L 235.330866 10.363526 
L 235.332913 11.351511 
L 235.33496 12.309252 
L 235.337007 13.264212 
L 235.339054 14.24665 
L 235.341101 15.27806 
L 235.343148 16.361396 
L 235.345195 17.476218 
L 235.347242 18.580601 
L 235.349289 19.619611 
L 235.351336 20.537965 
L 235.353383 21.292873 
L 235.35543 21.862715 
L 235.357477 22.248628 
L 235.359524 22.46871 
L 235.361571 22.547562 
L 235.363618 22.505742 
L 235.365665 22.35352 
L 235.367712 22.091139 
L 235.369759 21.714595 
L 235.371806 21.223392 
L 235.373853 20.625965 
L 235.3759 19.939805 
L 235.377947 19.18599 
L 235.379994 18.380532 
L 235.382041 17.526499 
L 235.384088 16.610702 
L 235.386135 15.606815 
L 235.388182 14.484193 
L 235.390229 13.219244 
L 235.392276 11.805229 
L 235.394323 10.257044 
L 235.39637 8.609685 
L 235.398417 6.911502 
L 235.400464 5.215054 
L 235.402511 3.568665 
L 235.404558 2.010862 
L 235.406605 0.568353 
L 235.408652 -0.743068 
L 235.410699 -1.915987 
L 235.412746 -2.94852 
L 235.414793 -3.842091 
L 235.41684 -4.600247 
L 235.418887 -5.22847 
L 235.420934 -5.734568 
L 235.422981 -6.129108 
L 235.425028 -6.42542 
L 235.427075 -6.638963 
L 235.429122 -6.786133 
L 235.431169 -6.88286 
L 235.431169 -7.158015 
L 235.431169 -7.158015 
L 235.429122 -7.254742 
L 235.427075 -7.401912 
L 235.425028 -7.615455 
L 235.422981 -7.911767 
L 235.420934 -8.306307 
L 235.418887 -8.812405 
L 235.41684 -9.440628 
L 235.414793 -10.198784 
L 235.412746 -11.092355 
L 235.410699 -12.124888 
L 235.408652 -13.297807 
L 235.406605 -14.609228 
L 235.404558 -16.051737 
L 235.402511 -17.60954 
L 235.400464 -19.255929 
L 235.398417 -20.952377 
L 235.39637 -22.65056 
L 235.394323 -24.297919 
L 235.392276 -25.846104 
L 235.390229 -27.260119 
L 235.388182 -28.525068 
L 235.386135 -29.64769 
L 235.384088 -30.651577 
L 235.382041 -31.567374 
L 235.379994 -32.421407 
L 235.377947 -33.226865 
L 235.3759 -33.98068 
L 235.373853 -34.66684 
L 235.371806 -35.264267 
L 235.369759 -35.75547 
L 235.367712 -36.132014 
L 235.365665 -36.394395 
L 235.363618 -36.546617 
L 235.361571 -36.588437 
L 235.359524 -36.509585 
L 235.357477 -36.289503 
L 235.35543 -35.90359 
L 235.353383 -35.333748 
L 235.351336 -34.57884 
L 235.349289 -33.660486 
L 235.347242 -32.621476 
L 235.345195 -31.517093 
L 235.343148 -30.402271 
L 235.341101 -29.318935 
L 235.339054 -28.287525 
L 235.337007 -27.305087 
L 235.33496 -26.350127 
L 235.332913 -25.392386 
L 235.330866 -24.404401 
L 235.328819 -23.37142 
L 235.326772 -22.296895 
L 235.324725 -21.202223 
L 235.322678 -20.12113 
L 235.320631 -19.090709 
L 235.318584 -18.142037 
L 235.316537 -17.293202 
L 235.31449 -16.54657 
L 235.312443 -15.890557 
L 235.310396 -15.304721 
L 235.308349 -14.766158 
L 235.306302 -14.255245 
L 235.304255 -13.759409 
L 235.302208 -13.27443 
L 235.300161 -12.803502 
L 235.298114 -12.354617 
L 235.296067 -11.937093 
L 235.29402 -11.558107 
L 235.291973 -11.220167 
L 235.289926 -10.920178 
L 235.287879 -10.65035 
L 235.285832 -10.400502 
L 235.283785 -10.160868 
L 235.281738 -9.924348 
L 235.279691 -9.687477 
L 235.277644 -9.450008 
L 235.275597 -9.213611 
L 235.27355 -8.980454 
L 235.271503 -8.752335 
L 235.269456 -8.530662 
L 235.267409 -8.317059 
L 235.265362 -8.114131 
L 235.263315 -7.925835 
L 235.261268 -7.757136 
L 235.259221 -7.612969 
L 235.257174 -7.496851 
L 235.255127 -7.409655 
L 235.25308 -7.349018 
L 235.251033 -7.309632 
L 235.248986 -7.284348 
L 235.246939 -7.265737 
L 235.244892 -7.247628 
L 235.242845 -7.226165 
L 235.240798 -7.200126 
L 235.238751 -7.170514 
L 235.236704 -7.139677 
L 235.234657 -7.110291 
L 235.23261 -7.084546 
L 235.230563 -7.063703 
L 235.228516 -7.048042 
z
" style="stroke: #3f3f3f; stroke-width: 0.5"/>
    </defs>
    <g clip-path="url(#p0a025cfd1f)">
     <use xlink:href="#m4d961acdee" x="0" y="281.578375" style="fill: #3274a1; stroke: #3f3f3f; stroke-width: 0.5"/>
    </g>
   </g>
   <g id="PolyCollection_2">
    <defs>
     <path id="m7bd8d0ec4d" d="M 38.991392 -66.164335 
L 38.991392 -66.14854 
L 41.040979 -66.133447 
L 43.090566 -66.111725 
L 45.140152 -66.098346 
L 47.189739 -66.106018 
L 49.239326 -66.127203 
L 51.288913 -66.145114 
L 53.338499 -66.153507 
L 55.388086 -66.155931 
L 57.437673 -66.156379 
L 59.48726 -66.156425 
L 61.536847 -66.156345 
L 63.586433 -66.155701 
L 65.63602 -66.152501 
L 67.685607 -66.142374 
L 69.735194 -66.122878 
L 71.78478 -66.102938 
L 73.834367 -66.099462 
L 75.883954 -66.115902 
L 77.933541 -66.137172 
L 79.983128 -66.150321 
L 82.032714 -66.15514 
L 84.082301 -66.156254 
L 86.131888 -66.15642 
L 88.181475 -66.156436 
L 90.231061 -66.156437 
L 92.280648 -66.156437 
L 94.330235 -66.156437 
L 96.379822 -66.156437 
L 98.429409 -66.156437 
L 100.478995 -66.156438 
L 102.528582 -66.156438 
L 104.578169 -66.156438 
L 106.627756 -66.156438 
L 108.677342 -66.156438 
L 110.726929 -66.156438 
L 112.776516 -66.156438 
L 114.826103 -66.156438 
L 116.87569 -66.156438 
L 118.925276 -66.156438 
L 120.974863 -66.156438 
L 123.02445 -66.156438 
L 125.074037 -66.156438 
L 127.123623 -66.156438 
L 129.17321 -66.156438 
L 131.222797 -66.156438 
L 133.272384 -66.156438 
L 135.321971 -66.156438 
L 137.371557 -66.156438 
L 139.421144 -66.156438 
L 141.470731 -66.156438 
L 143.520318 -66.156438 
L 145.569904 -66.156438 
L 147.619491 -66.156438 
L 149.669078 -66.156438 
L 151.718665 -66.156438 
L 153.768252 -66.156438 
L 155.817838 -66.156438 
L 157.867425 -66.156438 
L 159.917012 -66.156438 
L 161.966599 -66.156437 
L 164.016185 -66.156437 
L 166.065772 -66.156437 
L 168.115359 -66.156437 
L 170.164946 -66.156437 
L 172.214533 -66.156434 
L 174.264119 -66.156396 
L 176.313706 -66.156055 
L 178.363293 -66.154097 
L 180.41288 -66.146859 
L 182.462466 -66.130251 
L 184.512053 -66.108612 
L 186.56164 -66.098086 
L 188.611227 -66.108877 
L 190.660814 -66.130541 
L 192.7104 -66.147018 
L 194.759987 -66.154149 
L 196.809574 -66.156066 
L 198.859161 -66.156397 
L 200.908747 -66.156435 
L 202.958334 -66.156437 
L 205.007921 -66.156437 
L 207.057508 -66.156437 
L 209.107095 -66.156437 
L 211.156681 -66.156437 
L 213.206268 -66.156437 
L 215.255855 -66.156437 
L 217.305442 -66.156433 
L 219.355028 -66.156319 
L 221.404615 -66.154139 
L 223.454202 -66.126644 
L 225.503789 -65.898468 
L 227.553376 -64.664282 
L 229.602962 -60.390604 
L 231.652549 -51.272675 
L 233.702136 -40.489975 
L 235.751723 -36.588438 
L 237.801309 -43.401245 
L 239.850896 -54.457627 
L 241.900483 -62.138478 
L 241.900483 -70.174397 
L 241.900483 -70.174397 
L 239.850896 -77.855248 
L 237.801309 -88.91163 
L 235.751723 -95.724437 
L 233.702136 -91.8229 
L 231.652549 -81.0402 
L 229.602962 -71.922271 
L 227.553376 -67.648593 
L 225.503789 -66.414407 
L 223.454202 -66.186231 
L 221.404615 -66.158736 
L 219.355028 -66.156556 
L 217.305442 -66.156442 
L 215.255855 -66.156438 
L 213.206268 -66.156438 
L 211.156681 -66.156438 
L 209.107095 -66.156438 
L 207.057508 -66.156438 
L 205.007921 -66.156438 
L 202.958334 -66.156438 
L 200.908747 -66.15644 
L 198.859161 -66.156478 
L 196.809574 -66.156809 
L 194.759987 -66.158726 
L 192.7104 -66.165857 
L 190.660814 -66.182334 
L 188.611227 -66.203998 
L 186.56164 -66.214789 
L 184.512053 -66.204263 
L 182.462466 -66.182624 
L 180.41288 -66.166016 
L 178.363293 -66.158778 
L 176.313706 -66.15682 
L 174.264119 -66.156479 
L 172.214533 -66.156441 
L 170.164946 -66.156438 
L 168.115359 -66.156438 
L 166.065772 -66.156438 
L 164.016185 -66.156438 
L 161.966599 -66.156438 
L 159.917012 -66.156438 
L 157.867425 -66.156438 
L 155.817838 -66.156438 
L 153.768252 -66.156438 
L 151.718665 -66.156438 
L 149.669078 -66.156438 
L 147.619491 -66.156438 
L 145.569904 -66.156438 
L 143.520318 -66.156438 
L 141.470731 -66.156438 
L 139.421144 -66.156438 
L 137.371557 -66.156438 
L 135.321971 -66.156438 
L 133.272384 -66.156438 
L 131.222797 -66.156438 
L 129.17321 -66.156438 
L 127.123623 -66.156438 
L 125.074037 -66.156438 
L 123.02445 -66.156438 
L 120.974863 -66.156438 
L 118.925276 -66.156438 
L 116.87569 -66.156438 
L 114.826103 -66.156438 
L 112.776516 -66.156438 
L 110.726929 -66.156438 
L 108.677342 -66.156438 
L 106.627756 -66.156438 
L 104.578169 -66.156438 
L 102.528582 -66.156438 
L 100.478995 -66.156438 
L 98.429409 -66.156438 
L 96.379822 -66.156438 
L 94.330235 -66.156438 
L 92.280648 -66.156438 
L 90.231061 -66.156438 
L 88.181475 -66.156439 
L 86.131888 -66.156455 
L 84.082301 -66.156621 
L 82.032714 -66.157735 
L 79.983128 -66.162554 
L 77.933541 -66.175703 
L 75.883954 -66.196973 
L 73.834367 -66.213413 
L 71.78478 -66.209937 
L 69.735194 -66.189997 
L 67.685607 -66.170501 
L 65.63602 -66.160374 
L 63.586433 -66.157174 
L 61.536847 -66.15653 
L 59.48726 -66.15645 
L 57.437673 -66.156496 
L 55.388086 -66.156944 
L 53.338499 -66.159368 
L 51.288913 -66.167761 
L 49.239326 -66.185672 
L 47.189739 -66.206857 
L 45.140152 -66.214529 
L 43.090566 -66.20115 
L 41.040979 -66.179428 
L 38.991392 -66.164335 
z
" style="stroke: #3f3f3f; stroke-width: 0.5"/>
    </defs>
    <g clip-path="url(#p0a025cfd1f)">
     <use xlink:href="#m7bd8d0ec4d" x="0" y="281.578375" style="fill: #e1812c; stroke: #3f3f3f; stroke-width: 0.5"/>
    </g>
   </g>
   <g id="patch_3">
    <path d="M -20.71269 244.989937 
L -20.71269 244.989937 
L -20.71269 244.989937 
L -20.71269 244.989937 
z
" clip-path="url(#p0a025cfd1f)" style="fill: #3274a1; stroke: #3f3f3f; stroke-width: 0.5; stroke-linejoin: miter"/>
   </g>
   <g id="patch_4">
    <path d="M -20.71269 244.989937 
L -20.71269 244.989937 
L -20.71269 244.989937 
L -20.71269 244.989937 
z
" clip-path="url(#p0a025cfd1f)" style="fill: #e1812c; stroke: #3f3f3f; stroke-width: 0.5; stroke-linejoin: miter"/>
   </g>
   <g id="matplotlib.axis_1">
    <g id="xtick_1">
     <g id="line2d_1">
      <defs>
       <path id="m78ce4642a6" d="M 0 0 
L 0 3.5 
" style="stroke: #000000; stroke-width: 0.8"/>
      </defs>
      <g>
       <use xlink:href="#m78ce4642a6" x="30.519158" y="244.989937" style="stroke: #000000; stroke-width: 0.8"/>
      </g>
     </g>
     <g id="text_1">
      <!-- 20 -->
      <g transform="translate(25.429158 258.068688) scale(0.08 -0.08)">
       <defs>
        <path id="DejaVuSerif-32" d="M 819 3553 
L 469 3553 
L 469 4384 
Q 803 4563 1142 4656 
Q 1481 4750 1806 4750 
Q 2534 4750 2956 4397 
Q 3378 4044 3378 3438 
Q 3378 2753 2422 1800 
Q 2347 1728 2309 1691 
L 1131 513 
L 3078 513 
L 3078 1088 
L 3444 1088 
L 3444 0 
L 434 0 
L 434 341 
L 1850 1753 
Q 2319 2222 2519 2614 
Q 2719 3006 2719 3438 
Q 2719 3909 2473 4175 
Q 2228 4441 1797 4441 
Q 1350 4441 1106 4219 
Q 863 3997 819 3553 
z
" transform="scale(0.015625)"/>
        <path id="DejaVuSerif-30" d="M 2034 219 
Q 2513 219 2750 744 
Q 2988 1269 2988 2328 
Q 2988 3391 2750 3916 
Q 2513 4441 2034 4441 
Q 1556 4441 1318 3916 
Q 1081 3391 1081 2328 
Q 1081 1269 1318 744 
Q 1556 219 2034 219 
z
M 2034 -91 
Q 1275 -91 848 546 
Q 422 1184 422 2328 
Q 422 3475 848 4112 
Q 1275 4750 2034 4750 
Q 2797 4750 3222 4112 
Q 3647 3475 3647 2328 
Q 3647 1184 3222 546 
Q 2797 -91 2034 -91 
z
" transform="scale(0.015625)"/>
       </defs>
       <use xlink:href="#DejaVuSerif-32"/>
       <use xlink:href="#DejaVuSerif-30" x="63.623047"/>
      </g>
     </g>
    </g>
    <g id="xtick_2">
     <g id="line2d_2">
      <g>
       <use xlink:href="#m78ce4642a6" x="56.135082" y="244.989937" style="stroke: #000000; stroke-width: 0.8"/>
      </g>
     </g>
     <g id="text_2">
      <!-- 30 -->
      <g transform="translate(51.045082 258.068688) scale(0.08 -0.08)">
       <defs>
        <path id="DejaVuSerif-33" d="M 622 4469 
Q 988 4606 1323 4678 
Q 1659 4750 1953 4750 
Q 2638 4750 3022 4454 
Q 3406 4159 3406 3634 
Q 3406 3213 3140 2930 
Q 2875 2647 2388 2547 
Q 2963 2466 3280 2130 
Q 3597 1794 3597 1259 
Q 3597 606 3158 257 
Q 2719 -91 1894 -91 
Q 1528 -91 1179 -12 
Q 831 66 488 225 
L 488 1131 
L 838 1131 
Q 869 681 1141 450 
Q 1413 219 1906 219 
Q 2384 219 2661 495 
Q 2938 772 2938 1253 
Q 2938 1803 2653 2086 
Q 2369 2369 1819 2369 
L 1522 2369 
L 1522 2688 
L 1678 2688 
Q 2225 2688 2498 2914 
Q 2772 3141 2772 3597 
Q 2772 4006 2547 4223 
Q 2322 4441 1900 4441 
Q 1478 4441 1245 4241 
Q 1013 4041 972 3647 
L 622 3647 
L 622 4469 
z
" transform="scale(0.015625)"/>
       </defs>
       <use xlink:href="#DejaVuSerif-33"/>
       <use xlink:href="#DejaVuSerif-30" x="63.623047"/>
      </g>
     </g>
    </g>
    <g id="xtick_3">
     <g id="line2d_3">
      <g>
       <use xlink:href="#m78ce4642a6" x="81.751006" y="244.989937" style="stroke: #000000; stroke-width: 0.8"/>
      </g>
     </g>
     <g id="text_3">
      <!-- 40 -->
      <g transform="translate(76.661006 258.068688) scale(0.08 -0.08)">
       <defs>
        <path id="DejaVuSerif-34" d="M 2234 1581 
L 2234 4063 
L 641 1581 
L 2234 1581 
z
M 3609 0 
L 1484 0 
L 1484 331 
L 2234 331 
L 2234 1247 
L 197 1247 
L 197 1588 
L 2241 4750 
L 2859 4750 
L 2859 1581 
L 3750 1581 
L 3750 1247 
L 2859 1247 
L 2859 331 
L 3609 331 
L 3609 0 
z
" transform="scale(0.015625)"/>
       </defs>
       <use xlink:href="#DejaVuSerif-34"/>
       <use xlink:href="#DejaVuSerif-30" x="63.623047"/>
      </g>
     </g>
    </g>
    <g id="xtick_4">
     <g id="line2d_4">
      <g>
       <use xlink:href="#m78ce4642a6" x="107.36693" y="244.989937" style="stroke: #000000; stroke-width: 0.8"/>
      </g>
     </g>
     <g id="text_4">
      <!-- 50 -->
      <g transform="translate(102.27693 258.068688) scale(0.08 -0.08)">
       <defs>
        <path id="DejaVuSerif-35" d="M 3219 4666 
L 3219 4153 
L 1081 4153 
L 1081 2816 
Q 1244 2928 1461 2984 
Q 1678 3041 1947 3041 
Q 2703 3041 3140 2622 
Q 3578 2203 3578 1478 
Q 3578 738 3136 323 
Q 2694 -91 1894 -91 
Q 1572 -91 1234 -12 
Q 897 66 544 225 
L 544 1131 
L 897 1131 
Q 925 688 1179 453 
Q 1434 219 1894 219 
Q 2388 219 2653 544 
Q 2919 869 2919 1478 
Q 2919 2084 2655 2407 
Q 2391 2731 1894 2731 
Q 1613 2731 1398 2631 
Q 1184 2531 1019 2322 
L 750 2322 
L 750 4666 
L 3219 4666 
z
" transform="scale(0.015625)"/>
       </defs>
       <use xlink:href="#DejaVuSerif-35"/>
       <use xlink:href="#DejaVuSerif-30" x="63.623047"/>
      </g>
     </g>
    </g>
    <g id="xtick_5">
     <g id="line2d_5">
      <g>
       <use xlink:href="#m78ce4642a6" x="132.982853" y="244.989937" style="stroke: #000000; stroke-width: 0.8"/>
      </g>
     </g>
     <g id="text_5">
      <!-- 60 -->
      <g transform="translate(127.892853 258.068688) scale(0.08 -0.08)">
       <defs>
        <path id="DejaVuSerif-36" d="M 2094 219 
Q 2534 219 2771 542 
Q 3009 866 3009 1472 
Q 3009 2078 2771 2401 
Q 2534 2725 2094 2725 
Q 1647 2725 1412 2412 
Q 1178 2100 1178 1509 
Q 1178 888 1415 553 
Q 1653 219 2094 219 
z
M 1075 2569 
Q 1288 2803 1556 2918 
Q 1825 3034 2163 3034 
Q 2859 3034 3264 2615 
Q 3669 2197 3669 1472 
Q 3669 763 3233 336 
Q 2797 -91 2069 -91 
Q 1278 -91 853 498 
Q 428 1088 428 2181 
Q 428 3406 931 4078 
Q 1434 4750 2350 4750 
Q 2597 4750 2869 4703 
Q 3141 4656 3425 4563 
L 3425 3794 
L 3072 3794 
Q 3034 4109 2831 4275 
Q 2628 4441 2284 4441 
Q 1678 4441 1381 3981 
Q 1084 3522 1075 2569 
z
" transform="scale(0.015625)"/>
       </defs>
       <use xlink:href="#DejaVuSerif-36"/>
       <use xlink:href="#DejaVuSerif-30" x="63.623047"/>
      </g>
     </g>
    </g>
    <g id="xtick_6">
     <g id="line2d_6">
      <g>
       <use xlink:href="#m78ce4642a6" x="158.598777" y="244.989937" style="stroke: #000000; stroke-width: 0.8"/>
      </g>
     </g>
     <g id="text_6">
      <!-- 70 -->
      <g transform="translate(153.508777 258.068688) scale(0.08 -0.08)">
       <defs>
        <path id="DejaVuSerif-37" d="M 3609 4347 
L 1784 0 
L 1319 0 
L 3059 4153 
L 903 4153 
L 903 3578 
L 538 3578 
L 538 4666 
L 3609 4666 
L 3609 4347 
z
" transform="scale(0.015625)"/>
       </defs>
       <use xlink:href="#DejaVuSerif-37"/>
       <use xlink:href="#DejaVuSerif-30" x="63.623047"/>
      </g>
     </g>
    </g>
    <g id="xtick_7">
     <g id="line2d_7">
      <g>
       <use xlink:href="#m78ce4642a6" x="184.214701" y="244.989937" style="stroke: #000000; stroke-width: 0.8"/>
      </g>
     </g>
     <g id="text_7">
      <!-- 80 -->
      <g transform="translate(179.124701 258.068688) scale(0.08 -0.08)">
       <defs>
        <path id="DejaVuSerif-38" d="M 2981 1275 
Q 2981 1775 2732 2051 
Q 2484 2328 2034 2328 
Q 1584 2328 1336 2051 
Q 1088 1775 1088 1275 
Q 1088 772 1336 495 
Q 1584 219 2034 219 
Q 2484 219 2732 495 
Q 2981 772 2981 1275 
z
M 2853 3541 
Q 2853 3966 2637 4203 
Q 2422 4441 2034 4441 
Q 1650 4441 1433 4203 
Q 1216 3966 1216 3541 
Q 1216 3113 1433 2875 
Q 1650 2638 2034 2638 
Q 2422 2638 2637 2875 
Q 2853 3113 2853 3541 
z
M 2516 2484 
Q 3047 2413 3344 2092 
Q 3641 1772 3641 1275 
Q 3641 619 3225 264 
Q 2809 -91 2034 -91 
Q 1263 -91 845 264 
Q 428 619 428 1275 
Q 428 1772 725 2092 
Q 1022 2413 1556 2484 
Q 1084 2569 832 2842 
Q 581 3116 581 3541 
Q 581 4103 968 4426 
Q 1356 4750 2034 4750 
Q 2713 4750 3100 4426 
Q 3488 4103 3488 3541 
Q 3488 3116 3236 2842 
Q 2984 2569 2516 2484 
z
" transform="scale(0.015625)"/>
       </defs>
       <use xlink:href="#DejaVuSerif-38"/>
       <use xlink:href="#DejaVuSerif-30" x="63.623047"/>
      </g>
     </g>
    </g>
    <g id="xtick_8">
     <g id="line2d_8">
      <g>
       <use xlink:href="#m78ce4642a6" x="209.830625" y="244.989937" style="stroke: #000000; stroke-width: 0.8"/>
      </g>
     </g>
     <g id="text_8">
      <!-- 90 -->
      <g transform="translate(204.740625 258.068688) scale(0.08 -0.08)">
       <defs>
        <path id="DejaVuSerif-39" d="M 2994 2091 
Q 2784 1856 2512 1740 
Q 2241 1625 1900 1625 
Q 1206 1625 804 2044 
Q 403 2463 403 3188 
Q 403 3897 839 4323 
Q 1275 4750 2003 4750 
Q 2794 4750 3217 4161 
Q 3641 3572 3641 2478 
Q 3641 1253 3137 581 
Q 2634 -91 1722 -91 
Q 1475 -91 1203 -44 
Q 931 3 647 97 
L 647 872 
L 997 872 
Q 1038 556 1241 387 
Q 1444 219 1784 219 
Q 2391 219 2687 676 
Q 2984 1134 2994 2091 
z
M 1978 4441 
Q 1534 4441 1298 4117 
Q 1063 3794 1063 3188 
Q 1063 2581 1298 2256 
Q 1534 1931 1978 1931 
Q 2422 1931 2658 2245 
Q 2894 2559 2894 3150 
Q 2894 3772 2656 4106 
Q 2419 4441 1978 4441 
z
" transform="scale(0.015625)"/>
       </defs>
       <use xlink:href="#DejaVuSerif-39"/>
       <use xlink:href="#DejaVuSerif-30" x="63.623047"/>
      </g>
     </g>
    </g>
    <g id="xtick_9">
     <g id="line2d_9">
      <g>
       <use xlink:href="#m78ce4642a6" x="235.446549" y="244.989937" style="stroke: #000000; stroke-width: 0.8"/>
      </g>
     </g>
     <g id="text_9">
      <!-- 100 -->
      <g transform="translate(227.811549 258.068688) scale(0.08 -0.08)">
       <defs>
        <path id="DejaVuSerif-31" d="M 909 0 
L 909 331 
L 1722 331 
L 1722 4213 
L 781 3603 
L 781 4013 
L 1919 4750 
L 2350 4750 
L 2350 331 
L 3163 331 
L 3163 0 
L 909 0 
z
" transform="scale(0.015625)"/>
       </defs>
       <use xlink:href="#DejaVuSerif-31"/>
       <use xlink:href="#DejaVuSerif-30" x="63.623047"/>
       <use xlink:href="#DejaVuSerif-30" x="127.246094"/>
      </g>
     </g>
    </g>
    <g id="text_10">
     <!-- Error Percentage -->
     <g transform="translate(92.004688 271.934312) scale(0.11 -0.11)">
      <defs>
       <path id="DejaVuSerif-45" d="M 353 0 
L 353 331 
L 947 331 
L 947 4331 
L 353 4331 
L 353 4666 
L 4109 4666 
L 4109 3628 
L 3725 3628 
L 3725 4281 
L 1581 4281 
L 1581 2719 
L 3109 2719 
L 3109 3303 
L 3494 3303 
L 3494 1753 
L 3109 1753 
L 3109 2338 
L 1581 2338 
L 1581 384 
L 3775 384 
L 3775 1038 
L 4159 1038 
L 4159 0 
L 353 0 
z
" transform="scale(0.015625)"/>
       <path id="DejaVuSerif-72" d="M 3059 3328 
L 3059 2497 
L 2728 2497 
Q 2713 2744 2591 2866 
Q 2469 2988 2234 2988 
Q 1809 2988 1582 2694 
Q 1356 2400 1356 1850 
L 1356 331 
L 2022 331 
L 2022 0 
L 263 0 
L 263 331 
L 781 331 
L 781 2994 
L 231 2994 
L 231 3322 
L 1356 3322 
L 1356 2731 
Q 1525 3078 1790 3245 
Q 2056 3413 2438 3413 
Q 2578 3413 2733 3391 
Q 2888 3369 3059 3328 
z
" transform="scale(0.015625)"/>
       <path id="DejaVuSerif-6f" d="M 1925 219 
Q 2388 219 2623 584 
Q 2859 950 2859 1663 
Q 2859 2375 2623 2739 
Q 2388 3103 1925 3103 
Q 1463 3103 1227 2739 
Q 991 2375 991 1663 
Q 991 950 1228 584 
Q 1466 219 1925 219 
z
M 1925 -91 
Q 1200 -91 759 389 
Q 319 869 319 1663 
Q 319 2456 758 2934 
Q 1197 3413 1925 3413 
Q 2653 3413 3092 2934 
Q 3531 2456 3531 1663 
Q 3531 869 3092 389 
Q 2653 -91 1925 -91 
z
" transform="scale(0.015625)"/>
       <path id="DejaVuSerif-20" transform="scale(0.015625)"/>
       <path id="DejaVuSerif-50" d="M 1581 2375 
L 2406 2375 
Q 2872 2375 3115 2626 
Q 3359 2878 3359 3353 
Q 3359 3831 3115 4081 
Q 2872 4331 2406 4331 
L 1581 4331 
L 1581 2375 
z
M 353 0 
L 353 331 
L 947 331 
L 947 4331 
L 353 4331 
L 353 4666 
L 2559 4666 
Q 3259 4666 3668 4311 
Q 4078 3956 4078 3353 
Q 4078 2753 3668 2397 
Q 3259 2041 2559 2041 
L 1581 2041 
L 1581 331 
L 2303 331 
L 2303 0 
L 353 0 
z
" transform="scale(0.015625)"/>
       <path id="DejaVuSerif-65" d="M 3469 1600 
L 991 1600 
L 991 1575 
Q 991 903 1244 561 
Q 1497 219 1991 219 
Q 2369 219 2611 417 
Q 2853 616 2950 1006 
L 3413 1006 
Q 3275 459 2904 184 
Q 2534 -91 1931 -91 
Q 1203 -91 761 389 
Q 319 869 319 1663 
Q 319 2450 753 2931 
Q 1188 3413 1894 3413 
Q 2647 3413 3050 2948 
Q 3453 2484 3469 1600 
z
M 2791 1931 
Q 2772 2513 2545 2808 
Q 2319 3103 1894 3103 
Q 1497 3103 1269 2806 
Q 1041 2509 991 1931 
L 2791 1931 
z
" transform="scale(0.015625)"/>
       <path id="DejaVuSerif-63" d="M 3291 997 
Q 3169 466 2822 187 
Q 2475 -91 1925 -91 
Q 1200 -91 759 389 
Q 319 869 319 1663 
Q 319 2459 759 2936 
Q 1200 3413 1925 3413 
Q 2241 3413 2553 3339 
Q 2866 3266 3181 3116 
L 3181 2266 
L 2847 2266 
Q 2781 2703 2561 2903 
Q 2341 3103 1931 3103 
Q 1466 3103 1228 2742 
Q 991 2381 991 1663 
Q 991 944 1227 581 
Q 1463 219 1931 219 
Q 2303 219 2525 412 
Q 2747 606 2828 997 
L 3291 997 
z
" transform="scale(0.015625)"/>
       <path id="DejaVuSerif-6e" d="M 263 0 
L 263 331 
L 781 331 
L 781 2988 
L 231 2988 
L 231 3322 
L 1356 3322 
L 1356 2731 
Q 1516 3069 1770 3241 
Q 2025 3413 2363 3413 
Q 2913 3413 3172 3097 
Q 3431 2781 3431 2113 
L 3431 331 
L 3944 331 
L 3944 0 
L 2356 0 
L 2356 331 
L 2853 331 
L 2853 1931 
Q 2853 2541 2703 2767 
Q 2553 2994 2175 2994 
Q 1775 2994 1565 2701 
Q 1356 2409 1356 1850 
L 1356 331 
L 1856 331 
L 1856 0 
L 263 0 
z
" transform="scale(0.015625)"/>
       <path id="DejaVuSerif-74" d="M 691 2988 
L 184 2988 
L 184 3322 
L 691 3322 
L 691 4353 
L 1269 4353 
L 1269 3322 
L 2350 3322 
L 2350 2988 
L 1269 2988 
L 1269 878 
Q 1269 456 1350 337 
Q 1431 219 1650 219 
Q 1875 219 1978 351 
Q 2081 484 2088 781 
L 2522 781 
Q 2497 328 2275 118 
Q 2053 -91 1600 -91 
Q 1103 -91 897 129 
Q 691 350 691 878 
L 691 2988 
z
" transform="scale(0.015625)"/>
       <path id="DejaVuSerif-61" d="M 2547 1044 
L 2547 1747 
L 1806 1747 
Q 1378 1747 1168 1562 
Q 959 1378 959 997 
Q 959 650 1171 447 
Q 1384 244 1747 244 
Q 2106 244 2326 466 
Q 2547 688 2547 1044 
z
M 3122 2075 
L 3122 331 
L 3634 331 
L 3634 0 
L 2547 0 
L 2547 359 
Q 2356 128 2106 18 
Q 1856 -91 1522 -91 
Q 969 -91 644 203 
Q 319 497 319 997 
Q 319 1513 691 1797 
Q 1063 2081 1741 2081 
L 2547 2081 
L 2547 2309 
Q 2547 2688 2317 2895 
Q 2088 3103 1672 3103 
Q 1328 3103 1125 2947 
Q 922 2791 872 2484 
L 575 2484 
L 575 3156 
Q 875 3284 1158 3348 
Q 1441 3413 1709 3413 
Q 2400 3413 2761 3070 
Q 3122 2728 3122 2075 
z
" transform="scale(0.015625)"/>
       <path id="DejaVuSerif-67" d="M 3359 2988 
L 3359 72 
Q 3359 -644 2965 -1033 
Q 2572 -1422 1844 -1422 
Q 1516 -1422 1216 -1362 
Q 916 -1303 641 -1184 
L 641 -488 
L 941 -488 
Q 997 -813 1206 -963 
Q 1416 -1113 1806 -1113 
Q 2313 -1113 2548 -827 
Q 2784 -541 2784 72 
L 2784 519 
Q 2616 206 2355 57 
Q 2094 -91 1709 -91 
Q 1097 -91 708 395 
Q 319 881 319 1663 
Q 319 2444 706 2928 
Q 1094 3413 1709 3413 
Q 2094 3413 2355 3264 
Q 2616 3116 2784 2803 
L 2784 3322 
L 3909 3322 
L 3909 2988 
L 3359 2988 
z
M 2784 1825 
Q 2784 2422 2554 2737 
Q 2325 3053 1888 3053 
Q 1444 3053 1217 2703 
Q 991 2353 991 1663 
Q 991 975 1217 622 
Q 1444 269 1888 269 
Q 2325 269 2554 583 
Q 2784 897 2784 1497 
L 2784 1825 
z
" transform="scale(0.015625)"/>
      </defs>
      <use xlink:href="#DejaVuSerif-45"/>
      <use xlink:href="#DejaVuSerif-72" x="72.998047"/>
      <use xlink:href="#DejaVuSerif-72" x="120.800781"/>
      <use xlink:href="#DejaVuSerif-6f" x="168.603516"/>
      <use xlink:href="#DejaVuSerif-72" x="228.808594"/>
      <use xlink:href="#DejaVuSerif-20" x="276.611328"/>
      <use xlink:href="#DejaVuSerif-50" x="308.398438"/>
      <use xlink:href="#DejaVuSerif-65" x="371.183594"/>
      <use xlink:href="#DejaVuSerif-72" x="430.363281"/>
      <use xlink:href="#DejaVuSerif-63" x="478.166016"/>
      <use xlink:href="#DejaVuSerif-65" x="534.171875"/>
      <use xlink:href="#DejaVuSerif-6e" x="593.351562"/>
      <use xlink:href="#DejaVuSerif-74" x="657.755859"/>
      <use xlink:href="#DejaVuSerif-61" x="697.941406"/>
      <use xlink:href="#DejaVuSerif-67" x="757.560547"/>
      <use xlink:href="#DejaVuSerif-65" x="821.574219"/>
     </g>
    </g>
   </g>
   <g id="matplotlib.axis_2">
    <g id="ytick_1">
     <g id="line2d_10">
      <defs>
       <path id="m7ce4a5b467" d="M 0 0 
L -3.5 0 
" style="stroke: #000000; stroke-width: 0.8"/>
      </defs>
      <g>
       <use xlink:href="#m7ce4a5b467" x="28.845938" y="244.989937" style="stroke: #000000; stroke-width: 0.8"/>
      </g>
     </g>
    </g>
    <g id="text_11">
     <!-- Density -->
     <g transform="translate(15.401875 155.216187) rotate(-90) scale(0.11 -0.11)">
      <defs>
       <path id="DejaVuSerif-44" d="M 1581 331 
L 2163 331 
Q 3072 331 3558 850 
Q 4044 1369 4044 2338 
Q 4044 3306 3559 3818 
Q 3075 4331 2163 4331 
L 1581 4331 
L 1581 331 
z
M 353 0 
L 353 331 
L 947 331 
L 947 4331 
L 353 4331 
L 353 4666 
L 2209 4666 
Q 3416 4666 4089 4050 
Q 4763 3434 4763 2338 
Q 4763 1238 4088 619 
Q 3413 0 2209 0 
L 353 0 
z
" transform="scale(0.015625)"/>
       <path id="DejaVuSerif-73" d="M 359 184 
L 359 959 
L 691 959 
Q 703 588 923 403 
Q 1144 219 1575 219 
Q 1963 219 2166 364 
Q 2369 509 2369 788 
Q 2369 1006 2220 1140 
Q 2072 1275 1594 1428 
L 1178 1569 
Q 750 1706 558 1912 
Q 366 2119 366 2438 
Q 366 2894 700 3153 
Q 1034 3413 1625 3413 
Q 1888 3413 2178 3344 
Q 2469 3275 2778 3144 
L 2778 2419 
L 2447 2419 
Q 2434 2741 2221 2922 
Q 2009 3103 1644 3103 
Q 1281 3103 1095 2975 
Q 909 2847 909 2591 
Q 909 2381 1050 2254 
Q 1191 2128 1613 1997 
L 2069 1856 
Q 2541 1709 2748 1489 
Q 2956 1269 2956 922 
Q 2956 450 2595 179 
Q 2234 -91 1600 -91 
Q 1278 -91 972 -22 
Q 666 47 359 184 
z
" transform="scale(0.015625)"/>
       <path id="DejaVuSerif-69" d="M 622 4353 
Q 622 4497 726 4603 
Q 831 4709 978 4709 
Q 1122 4709 1226 4603 
Q 1331 4497 1331 4353 
Q 1331 4206 1228 4103 
Q 1125 4000 978 4000 
Q 831 4000 726 4103 
Q 622 4206 622 4353 
z
M 1356 331 
L 1900 331 
L 1900 0 
L 231 0 
L 231 331 
L 781 331 
L 781 2988 
L 231 2988 
L 231 3322 
L 1356 3322 
L 1356 331 
z
" transform="scale(0.015625)"/>
       <path id="DejaVuSerif-79" d="M 1381 -609 
L 1600 -56 
L 359 2988 
L -19 2988 
L -19 3322 
L 1509 3322 
L 1509 2988 
L 978 2988 
L 1913 703 
L 2847 2988 
L 2350 2988 
L 2350 3322 
L 3597 3322 
L 3597 2988 
L 3225 2988 
L 1703 -750 
Q 1547 -1138 1356 -1280 
Q 1166 -1422 819 -1422 
Q 672 -1422 517 -1397 
Q 363 -1372 206 -1325 
L 206 -691 
L 500 -691 
Q 519 -903 608 -995 
Q 697 -1088 884 -1088 
Q 1056 -1088 1161 -992 
Q 1266 -897 1381 -609 
z
" transform="scale(0.015625)"/>
      </defs>
      <use xlink:href="#DejaVuSerif-44"/>
      <use xlink:href="#DejaVuSerif-65" x="80.175781"/>
      <use xlink:href="#DejaVuSerif-6e" x="139.355469"/>
      <use xlink:href="#DejaVuSerif-73" x="203.759766"/>
      <use xlink:href="#DejaVuSerif-69" x="255.078125"/>
      <use xlink:href="#DejaVuSerif-74" x="287.060547"/>
      <use xlink:href="#DejaVuSerif-79" x="327.246094"/>
     </g>
    </g>
   </g>
   <g id="line2d_11">
    <path d="M 235.278484 274.557937 
L 235.414 274.557937 
" clip-path="url(#p0a025cfd1f)" style="fill: none; stroke: #3f3f3f; stroke-width: 0.75; stroke-linecap: square"/>
   </g>
   <g id="line2d_12">
    <path d="M 235.337584 274.557937 
L 235.377765 274.557937 
" clip-path="url(#p0a025cfd1f)" style="fill: none; stroke: #3f3f3f; stroke-width: 2.25; stroke-linecap: square"/>
   </g>
   <g id="line2d_13">
    <path d="M 235.3584 274.557937 
" clip-path="url(#p0a025cfd1f)" style="fill: none; stroke: #3f3f3f; stroke-width: 20; stroke-linecap: square"/>
    <defs>
     <path id="m0797fe1dc0" d="M 0 0.9375 
L 0 -0.9375 
" style="stroke: #ffffff; stroke-width: 0.45"/>
    </defs>
    <g clip-path="url(#p0a025cfd1f)">
     <use xlink:href="#m0797fe1dc0" x="235.3584" y="274.557937" style="fill: #ffffff; stroke: #ffffff; stroke-width: 0.45"/>
    </g>
   </g>
   <g id="line2d_14">
    <path d="M 235.446549 215.421937 
L 235.446549 215.421937 
" clip-path="url(#p0a025cfd1f)" style="fill: none; stroke: #3f3f3f; stroke-width: 0.75; stroke-linecap: square"/>
   </g>
   <g id="line2d_15">
    <path d="M 235.446549 215.421937 
L 235.446549 215.421937 
" clip-path="url(#p0a025cfd1f)" style="fill: none; stroke: #3f3f3f; stroke-width: 2.25; stroke-linecap: square"/>
   </g>
   <g id="line2d_16">
    <path d="M 235.446549 215.421937 
" clip-path="url(#p0a025cfd1f)" style="fill: none; stroke: #3f3f3f; stroke-width: 20; stroke-linecap: square"/>
    <g clip-path="url(#p0a025cfd1f)">
     <use xlink:href="#m0797fe1dc0" x="235.446549" y="215.421937" style="fill: #ffffff; stroke: #ffffff; stroke-width: 0.45"/>
    </g>
   </g>
   <g id="line2d_17">
    <path d="M 234.662262 244.989937 
L 234.662262 23.229938 
" clip-path="url(#p0a025cfd1f)" style="fill: none; stroke-dasharray: 3.7,1.6; stroke-dashoffset: 0; stroke: #ff7f0e"/>
   </g>
   <g id="line2d_18">
    <path d="M 235.355993 244.989937 
L 235.355993 23.229938 
" clip-path="url(#p0a025cfd1f)" style="fill: none; stroke-dasharray: 3.7,1.6; stroke-dashoffset: 0; stroke: #1f77b4"/>
   </g>
   <g id="patch_5">
    <path d="M 28.845938 244.989937 
L 28.845938 23.229938 
" style="fill: none; stroke: #000000; stroke-width: 0.8; stroke-linejoin: miter; stroke-linecap: square"/>
   </g>
   <g id="patch_6">
    <path d="M 252.045937 244.989937 
L 252.045937 23.229938 
" style="fill: none; stroke: #000000; stroke-width: 0.8; stroke-linejoin: miter; stroke-linecap: square"/>
   </g>
   <g id="patch_7">
    <path d="M 28.845937 244.989937 
L 252.045937 244.989937 
" style="fill: none; stroke: #000000; stroke-width: 0.8; stroke-linejoin: miter; stroke-linecap: square"/>
   </g>
   <g id="patch_8">
    <path d="M 28.845937 23.229938 
L 252.045937 23.229938 
" style="fill: none; stroke: #000000; stroke-width: 0.8; stroke-linejoin: miter; stroke-linecap: square"/>
   </g>
   <g id="text_12">
    <!-- Nonzero $x_{000}, x_{001}$ -->
    <g transform="translate(80.583938 17.229938) scale(0.132 -0.132)">
     <defs>
      <path id="DejaVuSerif-4e" d="M 313 0 
L 313 331 
L 941 331 
L 941 4331 
L 313 4331 
L 313 4666 
L 1509 4666 
L 4306 984 
L 4306 4331 
L 3681 4331 
L 3681 4666 
L 5319 4666 
L 5319 4331 
L 4691 4331 
L 4691 -91 
L 4313 -91 
L 1325 3841 
L 1325 331 
L 1953 331 
L 1953 0 
L 313 0 
z
" transform="scale(0.015625)"/>
      <path id="DejaVuSerif-7a" d="M 256 0 
L 256 269 
L 2338 2988 
L 691 2988 
L 691 2413 
L 359 2413 
L 359 3322 
L 3078 3322 
L 3078 3053 
L 997 331 
L 2803 331 
L 2803 934 
L 3138 934 
L 3138 0 
L 256 0 
z
" transform="scale(0.015625)"/>
      <path id="DejaVuSans-Oblique-78" d="M 3841 3500 
L 2234 1784 
L 3219 0 
L 2559 0 
L 1819 1388 
L 531 0 
L -166 0 
L 1556 1844 
L 641 3500 
L 1300 3500 
L 1972 2234 
L 3144 3500 
L 3841 3500 
z
" transform="scale(0.015625)"/>
      <path id="DejaVuSans-30" d="M 2034 4250 
Q 1547 4250 1301 3770 
Q 1056 3291 1056 2328 
Q 1056 1369 1301 889 
Q 1547 409 2034 409 
Q 2525 409 2770 889 
Q 3016 1369 3016 2328 
Q 3016 3291 2770 3770 
Q 2525 4250 2034 4250 
z
M 2034 4750 
Q 2819 4750 3233 4129 
Q 3647 3509 3647 2328 
Q 3647 1150 3233 529 
Q 2819 -91 2034 -91 
Q 1250 -91 836 529 
Q 422 1150 422 2328 
Q 422 3509 836 4129 
Q 1250 4750 2034 4750 
z
" transform="scale(0.015625)"/>
      <path id="DejaVuSans-2c" d="M 750 794 
L 1409 794 
L 1409 256 
L 897 -744 
L 494 -744 
L 750 256 
L 750 794 
z
" transform="scale(0.015625)"/>
      <path id="DejaVuSans-31" d="M 794 531 
L 1825 531 
L 1825 4091 
L 703 3866 
L 703 4441 
L 1819 4666 
L 2450 4666 
L 2450 531 
L 3481 531 
L 3481 0 
L 794 0 
L 794 531 
z
" transform="scale(0.015625)"/>
     </defs>
     <use xlink:href="#DejaVuSerif-4e" transform="translate(0 0.09375)"/>
     <use xlink:href="#DejaVuSerif-6f" transform="translate(87.5 0.09375)"/>
     <use xlink:href="#DejaVuSerif-6e" transform="translate(147.705078 0.09375)"/>
     <use xlink:href="#DejaVuSerif-7a" transform="translate(212.109375 0.09375)"/>
     <use xlink:href="#DejaVuSerif-65" transform="translate(264.794922 0.09375)"/>
     <use xlink:href="#DejaVuSerif-72" transform="translate(323.974609 0.09375)"/>
     <use xlink:href="#DejaVuSerif-6f" transform="translate(371.777344 0.09375)"/>
     <use xlink:href="#DejaVuSerif-20" transform="translate(431.982422 0.09375)"/>
     <use xlink:href="#DejaVuSans-Oblique-78" transform="translate(463.769531 0.09375)"/>
     <use xlink:href="#DejaVuSans-30" transform="translate(522.949219 -16.3125) scale(0.7)"/>
     <use xlink:href="#DejaVuSans-30" transform="translate(567.485352 -16.3125) scale(0.7)"/>
     <use xlink:href="#DejaVuSans-30" transform="translate(612.021484 -16.3125) scale(0.7)"/>
     <use xlink:href="#DejaVuSans-2c" transform="translate(659.291992 0.09375)"/>
     <use xlink:href="#DejaVuSans-Oblique-78" transform="translate(710.561523 0.09375)"/>
     <use xlink:href="#DejaVuSans-30" transform="translate(769.741211 -16.3125) scale(0.7)"/>
     <use xlink:href="#DejaVuSans-30" transform="translate(814.277344 -16.3125) scale(0.7)"/>
     <use xlink:href="#DejaVuSans-31" transform="translate(858.813477 -16.3125) scale(0.7)"/>
    </g>
   </g>
   <g id="legend_1">
    <g id="patch_9">
     <path d="M 34.445938 67.760875 
L 106.780938 67.760875 
Q 108.380938 67.760875 108.380938 66.160875 
L 108.380938 28.829937 
Q 108.380938 27.229938 106.780938 27.229938 
L 34.445938 27.229938 
Q 32.845938 27.229938 32.845938 28.829937 
L 32.845938 66.160875 
Q 32.845938 67.760875 34.445938 67.760875 
z
" style="fill: #ffffff; opacity: 0.8; stroke: #cccccc; stroke-linejoin: miter"/>
    </g>
    <g id="text_13">
     <!-- Randomized -->
     <g transform="translate(36.045938 38.788219) scale(0.11 -0.11)">
      <defs>
       <path id="DejaVuSerif-52" d="M 3066 2316 
Q 3284 2256 3442 2114 
Q 3600 1972 3725 1716 
L 4403 331 
L 4972 331 
L 4972 0 
L 3872 0 
L 3144 1484 
Q 2934 1916 2759 2042 
Q 2584 2169 2278 2169 
L 1581 2169 
L 1581 331 
L 2241 331 
L 2241 0 
L 353 0 
L 353 331 
L 947 331 
L 947 4331 
L 353 4331 
L 353 4666 
L 2719 4666 
Q 3400 4666 3770 4341 
Q 4141 4016 4141 3419 
Q 4141 2938 3870 2661 
Q 3600 2384 3066 2316 
z
M 1581 2503 
L 2503 2503 
Q 2975 2503 3200 2726 
Q 3425 2950 3425 3419 
Q 3425 3888 3200 4109 
Q 2975 4331 2503 4331 
L 1581 4331 
L 1581 2503 
z
" transform="scale(0.015625)"/>
       <path id="DejaVuSerif-64" d="M 3359 331 
L 3909 331 
L 3909 0 
L 2784 0 
L 2784 519 
Q 2616 206 2355 57 
Q 2094 -91 1709 -91 
Q 1097 -91 708 395 
Q 319 881 319 1663 
Q 319 2444 706 2928 
Q 1094 3413 1709 3413 
Q 2094 3413 2355 3264 
Q 2616 3116 2784 2803 
L 2784 4531 
L 2241 4531 
L 2241 4863 
L 3359 4863 
L 3359 331 
z
M 2784 1497 
L 2784 1825 
Q 2784 2422 2554 2737 
Q 2325 3053 1888 3053 
Q 1444 3053 1217 2703 
Q 991 2353 991 1663 
Q 991 975 1217 622 
Q 1444 269 1888 269 
Q 2325 269 2554 583 
Q 2784 897 2784 1497 
z
" transform="scale(0.015625)"/>
       <path id="DejaVuSerif-6d" d="M 3316 2675 
Q 3481 3041 3739 3227 
Q 3997 3413 4341 3413 
Q 4863 3413 5119 3089 
Q 5375 2766 5375 2113 
L 5375 331 
L 5894 331 
L 5894 0 
L 4300 0 
L 4300 331 
L 4800 331 
L 4800 2047 
Q 4800 2556 4650 2772 
Q 4500 2988 4153 2988 
Q 3769 2988 3567 2697 
Q 3366 2406 3366 1850 
L 3366 331 
L 3866 331 
L 3866 0 
L 2291 0 
L 2291 331 
L 2791 331 
L 2791 2069 
Q 2791 2566 2641 2777 
Q 2491 2988 2144 2988 
Q 1759 2988 1557 2697 
Q 1356 2406 1356 1850 
L 1356 331 
L 1856 331 
L 1856 0 
L 263 0 
L 263 331 
L 781 331 
L 781 2994 
L 231 2994 
L 231 3322 
L 1356 3322 
L 1356 2731 
Q 1516 3063 1762 3238 
Q 2009 3413 2322 3413 
Q 2709 3413 2968 3220 
Q 3228 3028 3316 2675 
z
" transform="scale(0.015625)"/>
      </defs>
      <use xlink:href="#DejaVuSerif-52"/>
      <use xlink:href="#DejaVuSerif-61" x="77.542969"/>
      <use xlink:href="#DejaVuSerif-6e" x="137.162109"/>
      <use xlink:href="#DejaVuSerif-64" x="201.566406"/>
      <use xlink:href="#DejaVuSerif-6f" x="265.580078"/>
      <use xlink:href="#DejaVuSerif-6d" x="325.785156"/>
      <use xlink:href="#DejaVuSerif-69" x="420.609375"/>
      <use xlink:href="#DejaVuSerif-7a" x="452.591797"/>
      <use xlink:href="#DejaVuSerif-65" x="505.277344"/>
      <use xlink:href="#DejaVuSerif-64" x="564.457031"/>
     </g>
    </g>
    <g id="patch_10">
     <path d="M 48.823438 51.154625 
L 64.823438 51.154625 
L 64.823438 45.554625 
L 48.823438 45.554625 
z
" style="fill: #3274a1; stroke: #3f3f3f; stroke-width: 0.5; stroke-linejoin: miter"/>
    </g>
    <g id="text_14">
     <!-- False -->
     <g transform="translate(71.223438 51.154625) scale(0.08 -0.08)">
      <defs>
       <path id="DejaVuSerif-46" d="M 353 0 
L 353 331 
L 947 331 
L 947 4331 
L 353 4331 
L 353 4666 
L 4172 4666 
L 4172 3628 
L 3788 3628 
L 3788 4281 
L 1581 4281 
L 1581 2719 
L 3175 2719 
L 3175 3303 
L 3559 3303 
L 3559 1753 
L 3175 1753 
L 3175 2338 
L 1581 2338 
L 1581 331 
L 2328 331 
L 2328 0 
L 353 0 
z
" transform="scale(0.015625)"/>
       <path id="DejaVuSerif-6c" d="M 1313 331 
L 1856 331 
L 1856 0 
L 184 0 
L 184 331 
L 738 331 
L 738 4531 
L 184 4531 
L 184 4863 
L 1313 4863 
L 1313 331 
z
" transform="scale(0.015625)"/>
      </defs>
      <use xlink:href="#DejaVuSerif-46"/>
      <use xlink:href="#DejaVuSerif-61" x="62.634766"/>
      <use xlink:href="#DejaVuSerif-6c" x="122.253906"/>
      <use xlink:href="#DejaVuSerif-73" x="154.236328"/>
      <use xlink:href="#DejaVuSerif-65" x="205.554688"/>
     </g>
    </g>
    <g id="patch_11">
     <path d="M 48.823438 62.897125 
L 64.823438 62.897125 
L 64.823438 57.297125 
L 48.823438 57.297125 
z
" style="fill: #e1812c; stroke: #3f3f3f; stroke-width: 0.5; stroke-linejoin: miter"/>
    </g>
    <g id="text_15">
     <!-- True -->
     <g transform="translate(71.223438 62.897125) scale(0.08 -0.08)">
      <defs>
       <path id="DejaVuSerif-54" d="M 1222 0 
L 1222 331 
L 1819 331 
L 1819 4294 
L 447 4294 
L 447 3566 
L 63 3566 
L 63 4666 
L 4206 4666 
L 4206 3566 
L 3822 3566 
L 3822 4294 
L 2450 4294 
L 2450 331 
L 3047 331 
L 3047 0 
L 1222 0 
z
" transform="scale(0.015625)"/>
       <path id="DejaVuSerif-75" d="M 2266 3322 
L 3341 3322 
L 3341 331 
L 3884 331 
L 3884 0 
L 2766 0 
L 2766 588 
Q 2606 256 2353 82 
Q 2100 -91 1766 -91 
Q 1213 -91 952 223 
Q 691 538 691 1209 
L 691 2988 
L 172 2988 
L 172 3322 
L 1269 3322 
L 1269 1388 
Q 1269 781 1417 556 
Q 1566 331 1947 331 
Q 2347 331 2556 625 
Q 2766 919 2766 1478 
L 2766 2988 
L 2266 2988 
L 2266 3322 
z
" transform="scale(0.015625)"/>
      </defs>
      <use xlink:href="#DejaVuSerif-54"/>
      <use xlink:href="#DejaVuSerif-72" x="66.699219"/>
      <use xlink:href="#DejaVuSerif-75" x="114.501953"/>
      <use xlink:href="#DejaVuSerif-65" x="178.90625"/>
     </g>
    </g>
   </g>
  </g>
 </g>
 <defs>
  <clipPath id="p0a025cfd1f">
   <rect x="28.845938" y="23.229938" width="223.2" height="221.76"/>
  </clipPath>
 </defs>
</svg>
