<?xml version="1.0" encoding="utf-8" standalone="no"?>
<!DOCTYPE svg PUBLIC "-//W3C//DTD SVG 1.1//EN"
  "http://www.w3.org/Graphics/SVG/1.1/DTD/svg11.dtd">
<svg xmlns:xlink="http://www.w3.org/1999/xlink" width="271.279022pt" height="279.118184pt" viewBox="0 0 271.279022 279.118184" xmlns="http://www.w3.org/2000/svg" version="1.1">
 <metadata>
  <rdf:RDF xmlns:dc="http://purl.org/dc/elements/1.1/" xmlns:cc="http://creativecommons.org/ns#" xmlns:rdf="http://www.w3.org/1999/02/22-rdf-syntax-ns#">
   <cc:Work>
    <dc:type rdf:resource="http://purl.org/dc/dcmitype/StillImage"/>
    <dc:date>2024-02-16T11:17:03.255378</dc:date>
    <dc:format>image/svg+xml</dc:format>
    <dc:creator>
     <cc:Agent>
      <dc:title>Matplotlib v3.7.2, https://matplotlib.org/</dc:title>
     </cc:Agent>
    </dc:creator>
   </cc:Work>
  </rdf:RDF>
 </metadata>
 <defs>
  <style type="text/css">*{stroke-linejoin: round; stroke-linecap: butt}</style>
 </defs>
 <g id="figure_1">
  <g id="patch_1">
   <path d="M 0 279.118184 
L 271.279022 279.118184 
L 271.279022 0 
L 0 0 
z
" style="fill: #ffffff"/>
  </g>
  <g id="axes_1">
   <g id="patch_2">
    <path d="M 38.761931 244.092395 
L 261.961931 244.092395 
L 261.961931 22.332395 
L 38.761931 22.332395 
z
" style="fill: #ffffff"/>
   </g>
   <g id="PolyCollection_1">
    <defs>
     <path id="m5396da8994" d="M 54.486303 -42.556538 
L 54.486303 -35.025789 
L 60.191712 -35.025789 
L 60.191712 -35.025789 
L 65.897121 -35.025789 
L 65.897121 -35.025789 
L 71.602529 -35.025789 
L 71.602529 -35.025789 
L 77.307938 -35.025789 
L 77.307938 -35.025789 
L 83.013346 -35.025789 
L 83.013346 -35.025789 
L 88.718755 -35.025789 
L 88.718755 -35.025789 
L 94.424163 -35.025789 
L 94.424163 -35.025789 
L 100.129572 -35.025789 
L 100.129572 -35.025789 
L 105.83498 -35.025789 
L 105.83498 -35.025789 
L 111.540389 -35.025789 
L 111.540389 -35.025789 
L 117.245797 -35.025789 
L 117.245797 -35.025789 
L 122.951206 -35.025789 
L 122.951206 -35.025789 
L 128.656614 -35.025789 
L 128.656614 -35.025789 
L 134.362023 -35.025789 
L 134.362023 -35.025789 
L 140.067431 -35.025789 
L 140.067431 -35.025789 
L 145.77284 -35.025789 
L 145.77284 -35.025789 
L 151.478248 -35.025789 
L 151.478248 -35.025789 
L 157.183657 -35.025789 
L 157.183657 -35.025789 
L 162.889065 -35.025789 
L 162.889065 -35.025789 
L 168.594474 -35.025789 
L 168.594474 -35.025789 
L 174.299882 -35.025789 
L 174.299882 -35.025789 
L 180.005291 -35.025789 
L 180.005291 -35.025789 
L 185.710699 -35.025789 
L 185.710699 -35.025789 
L 191.416108 -35.025789 
L 191.416108 -35.025789 
L 197.121516 -35.025789 
L 197.121516 -35.025789 
L 202.826925 -35.025789 
L 202.826925 -35.025789 
L 202.826925 -38.791163 
L 202.826925 -38.791163 
L 202.826925 -38.791163 
L 197.121516 -38.791163 
L 197.121516 -35.025789 
L 191.416108 -35.025789 
L 191.416108 -38.791163 
L 185.710699 -38.791163 
L 185.710699 -38.791163 
L 180.005291 -38.791163 
L 180.005291 -51.969974 
L 174.299882 -51.969974 
L 174.299882 -44.439225 
L 168.594474 -44.439225 
L 168.594474 -53.852662 
L 162.889065 -53.852662 
L 162.889065 -57.618036 
L 157.183657 -57.618036 
L 157.183657 -65.148785 
L 151.478248 -65.148785 
L 151.478248 -74.562222 
L 145.77284 -74.562222 
L 145.77284 -68.91416 
L 140.067431 -68.91416 
L 140.067431 -87.741032 
L 134.362023 -87.741032 
L 134.362023 -80.210283 
L 128.656614 -80.210283 
L 128.656614 -117.864029 
L 122.951206 -117.864029 
L 122.951206 -100.919843 
L 117.245797 -100.919843 
L 117.245797 -97.154469 
L 111.540389 -97.154469 
L 111.540389 -115.981342 
L 105.83498 -115.981342 
L 105.83498 -119.746716 
L 100.129572 -119.746716 
L 100.129572 -108.450593 
L 94.424163 -108.450593 
L 94.424163 -110.33328 
L 88.718755 -110.33328 
L 88.718755 -78.327596 
L 83.013346 -78.327596 
L 83.013346 -74.562222 
L 77.307938 -74.562222 
L 77.307938 -70.796847 
L 71.602529 -70.796847 
L 71.602529 -55.735349 
L 65.897121 -55.735349 
L 65.897121 -46.321912 
L 60.191712 -46.321912 
L 60.191712 -42.556538 
L 54.486303 -42.556538 
z
" style="stroke: #ff7f0e; stroke-width: 0.5"/>
    </defs>
    <g clip-path="url(#p4e431904e4)">
     <use xlink:href="#m5396da8994" x="0" y="279.118184" style="fill: #ff7f0e; fill-opacity: 0.25; stroke: #ff7f0e; stroke-width: 0.5"/>
    </g>
   </g>
   <g id="PolyCollection_2">
    <defs>
     <path id="mba8fccb841" d="M 54.486303 -35.025789 
L 54.486303 -35.025789 
L 60.191712 -35.025789 
L 60.191712 -35.025789 
L 65.897121 -35.025789 
L 65.897121 -35.025789 
L 71.602529 -35.025789 
L 71.602529 -35.025789 
L 77.307938 -35.025789 
L 77.307938 -35.025789 
L 83.013346 -35.025789 
L 83.013346 -35.025789 
L 88.718755 -35.025789 
L 88.718755 -35.025789 
L 94.424163 -35.025789 
L 94.424163 -35.025789 
L 100.129572 -35.025789 
L 100.129572 -35.025789 
L 105.83498 -35.025789 
L 105.83498 -35.025789 
L 111.540389 -35.025789 
L 111.540389 -35.025789 
L 117.245797 -35.025789 
L 117.245797 -35.025789 
L 122.951206 -35.025789 
L 122.951206 -35.025789 
L 128.656614 -35.025789 
L 128.656614 -35.025789 
L 134.362023 -35.025789 
L 134.362023 -35.025789 
L 140.067431 -35.025789 
L 140.067431 -35.025789 
L 145.77284 -35.025789 
L 145.77284 -35.025789 
L 151.478248 -35.025789 
L 151.478248 -35.025789 
L 157.183657 -35.025789 
L 157.183657 -35.025789 
L 162.889065 -35.025789 
L 162.889065 -35.025789 
L 168.594474 -35.025789 
L 168.594474 -35.025789 
L 174.299882 -35.025789 
L 174.299882 -35.025789 
L 180.005291 -35.025789 
L 180.005291 -35.025789 
L 185.710699 -35.025789 
L 185.710699 -35.025789 
L 191.416108 -35.025789 
L 191.416108 -35.025789 
L 197.121516 -35.025789 
L 197.121516 -35.025789 
L 202.826925 -35.025789 
L 202.826925 -35.025789 
L 202.826925 -35.025789 
L 202.826925 -35.025789 
L 202.826925 -35.025789 
L 197.121516 -35.025789 
L 197.121516 -35.025789 
L 191.416108 -35.025789 
L 191.416108 -35.025789 
L 185.710699 -35.025789 
L 185.710699 -35.025789 
L 180.005291 -35.025789 
L 180.005291 -35.025789 
L 174.299882 -35.025789 
L 174.299882 -35.025789 
L 168.594474 -35.025789 
L 168.594474 -38.791163 
L 162.889065 -38.791163 
L 162.889065 -36.908476 
L 157.183657 -36.908476 
L 157.183657 -65.148785 
L 151.478248 -65.148785 
L 151.478248 -61.383411 
L 145.77284 -61.383411 
L 145.77284 -100.919843 
L 140.067431 -100.919843 
L 140.067431 -138.573589 
L 134.362023 -138.573589 
L 134.362023 -170.579273 
L 128.656614 -170.579273 
L 128.656614 -168.696585 
L 122.951206 -168.696585 
L 122.951206 -172.46196 
L 117.245797 -172.46196 
L 117.245797 -140.456276 
L 111.540389 -140.456276 
L 111.540389 -131.04284 
L 105.83498 -131.04284 
L 105.83498 -108.450593 
L 100.129572 -108.450593 
L 100.129572 -55.735349 
L 94.424163 -55.735349 
L 94.424163 -57.618036 
L 88.718755 -57.618036 
L 88.718755 -36.908476 
L 83.013346 -36.908476 
L 83.013346 -38.791163 
L 77.307938 -38.791163 
L 77.307938 -35.025789 
L 71.602529 -35.025789 
L 71.602529 -36.908476 
L 65.897121 -36.908476 
L 65.897121 -35.025789 
L 60.191712 -35.025789 
L 60.191712 -35.025789 
L 54.486303 -35.025789 
z
" style="stroke: #1f77b4; stroke-width: 0.5"/>
    </defs>
    <g clip-path="url(#p4e431904e4)">
     <use xlink:href="#mba8fccb841" x="0" y="279.118184" style="fill: #1f77b4; fill-opacity: 0.25; stroke: #1f77b4; stroke-width: 0.5"/>
    </g>
   </g>
   <g id="matplotlib.axis_1">
    <g id="xtick_1">
     <g id="line2d_1">
      <defs>
       <path id="mc40ef1ed14" d="M 0 0 
L 0 3.5 
" style="stroke: #000000; stroke-width: 0.8"/>
      </defs>
      <g>
       <use xlink:href="#mc40ef1ed14" x="38.761931" y="244.092395" style="stroke: #000000; stroke-width: 0.8"/>
      </g>
     </g>
     <g id="text_1">
      <!-- $\mathdefault{0}$ -->
      <g transform="translate(36.644839 256.627196) scale(0.08 -0.08)">
       <defs>
        <path id="CMR17-30" d="M 2688 2025 
C 2688 2416 2682 3080 2413 3591 
C 2176 4039 1798 4198 1466 4198 
C 1158 4198 768 4058 525 3597 
C 269 3118 243 2524 243 2025 
C 243 1661 250 1106 448 619 
C 723 -39 1216 -128 1466 -128 
C 1760 -128 2208 -7 2470 600 
C 2662 1042 2688 1559 2688 2025 
z
M 1466 -26 
C 1056 -26 813 325 723 812 
C 653 1188 653 1738 653 2096 
C 653 2588 653 2997 736 3387 
C 858 3929 1216 4096 1466 4096 
C 1728 4096 2067 3923 2189 3400 
C 2272 3036 2278 2607 2278 2096 
C 2278 1680 2278 1169 2202 792 
C 2067 95 1690 -26 1466 -26 
z
" transform="scale(0.015625)"/>
       </defs>
       <use xlink:href="#CMR17-30" transform="scale(0.996264)"/>
      </g>
     </g>
    </g>
    <g id="xtick_2">
     <g id="line2d_2">
      <g>
       <use xlink:href="#mc40ef1ed14" x="75.961931" y="244.092395" style="stroke: #000000; stroke-width: 0.8"/>
      </g>
     </g>
     <g id="text_2">
      <!-- $\mathdefault{1}$ -->
      <g transform="translate(73.844839 256.627196) scale(0.08 -0.08)">
       <defs>
        <path id="CMR17-31" d="M 1702 4058 
C 1702 4192 1696 4192 1606 4192 
C 1357 3916 979 3827 621 3827 
C 602 3827 570 3827 563 3808 
C 557 3795 557 3782 557 3648 
C 755 3648 1088 3686 1344 3839 
L 1344 461 
C 1344 236 1331 160 781 160 
L 589 160 
L 589 0 
C 896 0 1216 0 1523 0 
C 1830 0 2150 0 2458 0 
L 2458 160 
L 2266 160 
C 1715 160 1702 230 1702 458 
L 1702 4058 
z
" transform="scale(0.015625)"/>
       </defs>
       <use xlink:href="#CMR17-31" transform="scale(0.996264)"/>
      </g>
     </g>
    </g>
    <g id="xtick_3">
     <g id="line2d_3">
      <g>
       <use xlink:href="#mc40ef1ed14" x="113.161931" y="244.092395" style="stroke: #000000; stroke-width: 0.8"/>
      </g>
     </g>
     <g id="text_3">
      <!-- $\mathdefault{2}$ -->
      <g transform="translate(111.044839 256.627196) scale(0.08 -0.08)">
       <defs>
        <path id="CMR17-32" d="M 2669 989 
L 2554 989 
C 2490 536 2438 459 2413 420 
C 2381 369 1920 369 1830 369 
L 602 369 
C 832 619 1280 1072 1824 1597 
C 2214 1967 2669 2402 2669 3035 
C 2669 3790 2067 4224 1395 4224 
C 691 4224 262 3604 262 3030 
C 262 2780 448 2748 525 2748 
C 589 2748 781 2787 781 3010 
C 781 3207 614 3264 525 3264 
C 486 3264 448 3258 422 3245 
C 544 3790 915 4058 1306 4058 
C 1862 4058 2227 3617 2227 3035 
C 2227 2479 1901 2000 1536 1584 
L 262 146 
L 262 0 
L 2515 0 
L 2669 989 
z
" transform="scale(0.015625)"/>
       </defs>
       <use xlink:href="#CMR17-32" transform="scale(0.996264)"/>
      </g>
     </g>
    </g>
    <g id="xtick_4">
     <g id="line2d_4">
      <g>
       <use xlink:href="#mc40ef1ed14" x="150.361931" y="244.092395" style="stroke: #000000; stroke-width: 0.8"/>
      </g>
     </g>
     <g id="text_4">
      <!-- $\mathdefault{3}$ -->
      <g transform="translate(148.244839 256.627196) scale(0.08 -0.08)">
       <defs>
        <path id="CMR17-33" d="M 1414 2157 
C 1984 2157 2234 1662 2234 1090 
C 2234 320 1824 25 1453 25 
C 1114 25 563 194 390 693 
C 422 680 454 680 486 680 
C 640 680 755 782 755 948 
C 755 1133 614 1216 486 1216 
C 378 1216 211 1165 211 926 
C 211 335 787 -128 1466 -128 
C 2176 -128 2720 430 2720 1085 
C 2720 1707 2208 2157 1600 2227 
C 2086 2328 2554 2756 2554 3329 
C 2554 3820 2048 4179 1472 4179 
C 890 4179 378 3829 378 3329 
C 378 3110 544 3072 627 3072 
C 762 3072 877 3155 877 3321 
C 877 3486 762 3569 627 3569 
C 602 3569 570 3569 544 3557 
C 730 3959 1235 4032 1459 4032 
C 1683 4032 2106 3925 2106 3320 
C 2106 3143 2080 2828 1862 2550 
C 1670 2304 1453 2304 1242 2284 
C 1210 2284 1062 2269 1037 2269 
C 992 2263 966 2257 966 2208 
C 966 2163 973 2157 1101 2157 
L 1414 2157 
z
" transform="scale(0.015625)"/>
       </defs>
       <use xlink:href="#CMR17-33" transform="scale(0.996264)"/>
      </g>
     </g>
    </g>
    <g id="xtick_5">
     <g id="line2d_5">
      <g>
       <use xlink:href="#mc40ef1ed14" x="187.561931" y="244.092395" style="stroke: #000000; stroke-width: 0.8"/>
      </g>
     </g>
     <g id="text_5">
      <!-- $\mathdefault{4}$ -->
      <g transform="translate(185.444839 256.627196) scale(0.08 -0.08)">
       <defs>
        <path id="CMR17-34" d="M 2150 4122 
C 2150 4256 2144 4256 2029 4256 
L 128 1254 
L 128 1088 
L 1779 1088 
L 1779 457 
C 1779 224 1766 160 1318 160 
L 1197 160 
L 1197 0 
C 1402 0 1747 0 1965 0 
C 2182 0 2528 0 2733 0 
L 2733 160 
L 2611 160 
C 2163 160 2150 224 2150 457 
L 2150 1088 
L 2803 1088 
L 2803 1254 
L 2150 1254 
L 2150 4122 
z
M 1798 3703 
L 1798 1254 
L 256 1254 
L 1798 3703 
z
" transform="scale(0.015625)"/>
       </defs>
       <use xlink:href="#CMR17-34" transform="scale(0.996264)"/>
      </g>
     </g>
    </g>
    <g id="xtick_6">
     <g id="line2d_6">
      <g>
       <use xlink:href="#mc40ef1ed14" x="224.761931" y="244.092395" style="stroke: #000000; stroke-width: 0.8"/>
      </g>
     </g>
     <g id="text_6">
      <!-- $\mathdefault{5}$ -->
      <g transform="translate(222.644839 256.627196) scale(0.08 -0.08)">
       <defs>
        <path id="CMR17-35" d="M 730 3692 
C 794 3666 1056 3584 1325 3584 
C 1920 3584 2246 3911 2432 4100 
C 2432 4157 2432 4192 2394 4192 
C 2387 4192 2374 4192 2323 4163 
C 2099 4058 1837 3973 1517 3973 
C 1325 3973 1037 3999 723 4139 
C 653 4171 640 4171 634 4171 
C 602 4171 595 4164 595 4037 
L 595 2203 
C 595 2089 595 2057 659 2057 
C 691 2057 704 2070 736 2114 
C 941 2401 1222 2522 1542 2522 
C 1766 2522 2246 2382 2246 1289 
C 2246 1085 2246 715 2054 421 
C 1894 159 1645 25 1370 25 
C 947 25 518 320 403 814 
C 429 807 480 795 506 795 
C 589 795 749 840 749 1038 
C 749 1210 627 1280 506 1280 
C 358 1280 262 1190 262 1011 
C 262 454 704 -128 1382 -128 
C 2042 -128 2669 440 2669 1264 
C 2669 2030 2170 2624 1549 2624 
C 1222 2624 947 2503 730 2274 
L 730 3692 
z
" transform="scale(0.015625)"/>
       </defs>
       <use xlink:href="#CMR17-35" transform="scale(0.996264)"/>
      </g>
     </g>
    </g>
    <g id="xtick_7">
     <g id="line2d_7">
      <g>
       <use xlink:href="#mc40ef1ed14" x="261.961931" y="244.092395" style="stroke: #000000; stroke-width: 0.8"/>
      </g>
     </g>
     <g id="text_7">
      <!-- $\mathdefault{6}$ -->
      <g transform="translate(259.844839 256.627196) scale(0.08 -0.08)">
       <defs>
        <path id="CMR17-36" d="M 678 2176 
C 678 3690 1395 4032 1811 4032 
C 1946 4032 2272 4009 2400 3776 
C 2298 3776 2106 3776 2106 3553 
C 2106 3381 2246 3323 2336 3323 
C 2394 3323 2566 3348 2566 3560 
C 2566 3954 2246 4179 1805 4179 
C 1043 4179 243 3390 243 1984 
C 243 253 966 -128 1478 -128 
C 2099 -128 2688 427 2688 1283 
C 2688 2081 2170 2662 1517 2662 
C 1126 2662 838 2407 678 1960 
L 678 2176 
z
M 1478 25 
C 691 25 691 1200 691 1436 
C 691 1896 909 2560 1504 2560 
C 1613 2560 1926 2560 2138 2120 
C 2253 1870 2253 1609 2253 1289 
C 2253 944 2253 690 2118 434 
C 1978 171 1773 25 1478 25 
z
" transform="scale(0.015625)"/>
       </defs>
       <use xlink:href="#CMR17-36" transform="scale(0.996264)"/>
      </g>
     </g>
    </g>
    <g id="text_8">
     <!-- Error Percentage -->
     <g transform="translate(109.661682 269.787289) scale(0.11 -0.11)">
      <defs>
       <path id="CMR17-45" d="M 3885 1615 
L 3770 1615 
C 3629 676 3546 166 2419 166 
L 1530 166 
C 1274 166 1261 197 1261 414 
L 1261 2176 
L 1862 2176 
C 2464 2176 2522 1960 2522 1430 
L 2637 1430 
L 2637 3081 
L 2522 3081 
C 2522 2557 2464 2342 1862 2342 
L 1261 2342 
L 1261 3913 
C 1261 4128 1274 4160 1530 4160 
L 2406 4160 
C 3398 4160 3514 3769 3603 2929 
L 3718 2929 
L 3565 4325 
L 326 4325 
L 326 4160 
C 768 4160 838 4160 838 3874 
L 838 451 
C 838 166 768 166 326 166 
L 326 0 
L 3654 0 
L 3885 1615 
z
" transform="scale(0.015625)"/>
       <path id="CMR17-72" d="M 960 1497 
C 960 2112 1222 2688 1702 2688 
C 1747 2688 1792 2682 1837 2662 
C 1837 2662 1696 2617 1696 2452 
C 1696 2298 1818 2234 1914 2234 
C 1990 2234 2131 2279 2131 2458 
C 2131 2663 1926 2790 1709 2790 
C 1222 2790 1011 2317 947 2093 
L 941 2093 
L 941 2790 
L 198 2720 
L 198 2554 
C 576 2554 634 2515 634 2208 
L 634 428 
C 634 184 608 153 198 153 
L 198 -13 
C 352 0 646 0 813 0 
C 998 0 1325 0 1498 -13 
L 1498 153 
C 1037 153 960 153 960 440 
L 960 1497 
z
" transform="scale(0.015625)"/>
       <path id="CMR17-6f" d="M 2758 1356 
C 2758 2176 2163 2816 1466 2816 
C 768 2816 173 2176 173 1356 
C 173 551 768 -64 1466 -64 
C 2163 -64 2758 551 2758 1356 
z
M 1466 51 
C 1165 51 909 230 762 480 
C 602 767 582 1126 582 1408 
C 582 1677 595 2010 762 2298 
C 890 2509 1139 2714 1466 2714 
C 1754 2714 1997 2554 2150 2330 
C 2349 2029 2349 1607 2349 1408 
C 2349 1158 2336 775 2163 467 
C 1984 173 1709 51 1466 51 
z
" transform="scale(0.015625)"/>
       <path id="CMR17-50" d="M 1267 2042 
L 2291 2042 
C 3117 2042 3718 2578 3718 3184 
C 3718 3791 3130 4352 2291 4352 
L 333 4352 
L 333 4186 
C 774 4186 845 4186 845 3899 
L 845 446 
C 845 160 774 160 333 160 
L 333 0 
C 518 0 858 0 1056 0 
C 1254 0 1594 0 1779 0 
L 1779 160 
C 1338 160 1267 160 1267 446 
L 1267 2042 
z
M 1254 2176 
L 1254 3938 
C 1254 4155 1267 4186 1523 4186 
L 2170 4186 
C 2995 4186 3232 3714 3232 3184 
C 3232 2604 2950 2176 2170 2176 
L 1254 2176 
z
" transform="scale(0.015625)"/>
       <path id="CMR17-65" d="M 2438 1472 
C 2464 1498 2464 1511 2464 1576 
C 2464 2238 2118 2816 1389 2816 
C 710 2816 173 2169 173 1383 
C 173 551 781 -64 1459 -64 
C 2176 -64 2458 607 2458 740 
C 2458 784 2419 784 2406 784 
C 2362 784 2355 771 2330 696 
C 2189 265 1837 51 1504 51 
C 1229 51 954 203 781 480 
C 582 803 582 1176 582 1472 
L 2438 1472 
z
M 589 1568 
C 634 2505 1126 2714 1382 2714 
C 1818 2714 2112 2297 2118 1568 
L 589 1568 
z
" transform="scale(0.015625)"/>
       <path id="CMR17-63" d="M 2234 2240 
C 2112 2240 1933 2240 1933 2017 
C 1933 1838 2080 1787 2163 1787 
C 2208 1787 2394 1807 2394 2024 
C 2394 2467 1958 2803 1466 2803 
C 787 2803 211 2178 211 1363 
C 211 516 813 -64 1466 -64 
C 2259 -64 2458 677 2458 748 
C 2458 774 2451 793 2406 793 
C 2362 793 2355 787 2330 703 
C 2163 180 1798 51 1523 51 
C 1114 51 621 427 621 1369 
C 621 2338 1094 2688 1472 2688 
C 1722 2688 2093 2573 2234 2240 
z
" transform="scale(0.015625)"/>
       <path id="CMR17-6e" d="M 2656 1933 
C 2656 2259 2592 2790 1837 2790 
C 1331 2790 1069 2400 973 2144 
L 966 2144 
L 966 2790 
L 211 2720 
L 211 2554 
C 589 2554 646 2515 646 2208 
L 646 428 
C 646 184 621 153 211 153 
L 211 -13 
C 365 0 646 0 813 0 
C 979 0 1267 0 1421 -13 
L 1421 153 
C 1011 153 986 178 986 428 
L 986 1658 
C 986 2247 1344 2688 1792 2688 
C 2266 2688 2317 2266 2317 1958 
L 2317 428 
C 2317 184 2291 153 1882 153 
L 1882 -13 
C 2035 0 2317 0 2483 0 
C 2650 0 2938 0 3091 -13 
L 3091 153 
C 2682 153 2656 178 2656 428 
L 2656 1933 
z
" transform="scale(0.015625)"/>
       <path id="CMR17-74" d="M 966 2560 
L 1862 2560 
L 1862 2725 
L 966 2725 
L 966 3904 
L 851 3904 
C 838 3245 614 2668 70 2668 
L 70 2560 
L 627 2560 
L 627 771 
C 627 650 627 -64 1370 -64 
C 1747 -64 1965 306 1965 777 
L 1965 1140 
L 1850 1140 
L 1850 783 
C 1850 344 1677 51 1408 51 
C 1222 51 966 178 966 758 
L 966 2560 
z
" transform="scale(0.015625)"/>
       <path id="CMR17-61" d="M 2304 1653 
C 2304 2072 2304 2294 2035 2543 
C 1798 2752 1523 2816 1306 2816 
C 800 2816 435 2407 435 1971 
C 435 1728 627 1728 666 1728 
C 749 1728 896 1778 896 1954 
C 896 2112 774 2181 666 2181 
C 640 2181 608 2174 589 2168 
C 723 2592 1069 2714 1293 2714 
C 1613 2714 1965 2429 1965 1885 
L 1965 1600 
C 1587 1600 1133 1549 774 1357 
C 371 1133 256 813 256 570 
C 256 77 832 -64 1171 -64 
C 1523 -64 1850 139 1990 511 
C 2003 233 2182 -18 2464 -18 
C 2598 -18 2938 70 2938 567 
L 2938 920 
L 2822 920 
L 2822 562 
C 2822 178 2650 128 2566 128 
C 2304 128 2304 458 2304 738 
L 2304 1653 
z
M 1965 870 
C 1965 317 1568 38 1216 38 
C 896 38 646 275 646 570 
C 646 761 730 1100 1101 1305 
C 1408 1478 1760 1504 1965 1504 
L 1965 870 
z
" transform="scale(0.015625)"/>
       <path id="CMR17-67" d="M 710 1164 
C 832 1068 1043 960 1299 960 
C 1805 960 2240 1357 2240 1888 
C 2240 2054 2189 2310 1997 2509 
C 2176 2692 2438 2752 2586 2752 
C 2611 2752 2650 2752 2682 2734 
C 2656 2728 2598 2703 2598 2605 
C 2598 2527 2656 2471 2739 2471 
C 2835 2471 2886 2533 2886 2614 
C 2886 2731 2790 2854 2586 2854 
C 2330 2854 2106 2738 1926 2580 
C 1734 2753 1504 2816 1299 2816 
C 794 2816 358 2419 358 1888 
C 358 1522 570 1292 634 1228 
C 442 1004 442 743 442 711 
C 442 545 506 302 723 168 
C 390 85 128 -169 128 -486 
C 128 -943 736 -1280 1466 -1280 
C 2170 -1280 2803 -956 2803 -479 
C 2803 384 1856 384 1363 384 
C 1216 384 954 384 922 391 
C 723 423 589 602 589 826 
C 589 883 589 1024 710 1164 
z
M 1299 1068 
C 736 1068 736 1760 736 1889 
C 736 2016 736 2708 1299 2708 
C 1862 2708 1862 2016 1862 1889 
C 1862 1760 1862 1068 1299 1068 
z
M 1466 -1171 
C 826 -1171 384 -835 384 -486 
C 384 -289 493 -105 634 -4 
C 794 104 858 104 1293 104 
C 1818 104 2547 104 2547 -486 
C 2547 -835 2106 -1171 1466 -1171 
z
" transform="scale(0.015625)"/>
      </defs>
      <use xlink:href="#CMR17-45" transform="scale(0.996264)"/>
      <use xlink:href="#CMR17-72" transform="translate(62.586301 0) scale(0.996264)"/>
      <use xlink:href="#CMR17-72" transform="translate(97.867068 0) scale(0.996264)"/>
      <use xlink:href="#CMR17-6f" transform="translate(133.147836 0) scale(0.996264)"/>
      <use xlink:href="#CMR17-72" transform="translate(178.838313 0) scale(0.996264)"/>
      <use xlink:href="#CMR17-50" transform="translate(244.195047 0) scale(0.996264)"/>
      <use xlink:href="#CMR17-65" transform="translate(304.178894 0) scale(0.996264)"/>
      <use xlink:href="#CMR17-72" transform="translate(344.664554 0) scale(0.996264)"/>
      <use xlink:href="#CMR17-63" transform="translate(379.945322 0) scale(0.996264)"/>
      <use xlink:href="#CMR17-65" transform="translate(420.430983 0) scale(0.996264)"/>
      <use xlink:href="#CMR17-6e" transform="translate(460.916643 0) scale(0.996264)"/>
      <use xlink:href="#CMR17-74" transform="translate(509.209559 0) scale(0.996264)"/>
      <use xlink:href="#CMR17-61" transform="translate(544.490327 0) scale(0.996264)"/>
      <use xlink:href="#CMR17-67" transform="translate(590.180804 0) scale(0.996264)"/>
      <use xlink:href="#CMR17-65" transform="translate(635.871281 0) scale(0.996264)"/>
     </g>
    </g>
   </g>
   <g id="matplotlib.axis_2">
    <g id="ytick_1">
     <g id="line2d_8">
      <defs>
       <path id="mb67568c99d" d="M 0 0 
L -3.5 0 
" style="stroke: #000000; stroke-width: 0.8"/>
      </defs>
      <g>
       <use xlink:href="#mb67568c99d" x="38.761931" y="244.092395" style="stroke: #000000; stroke-width: 0.8"/>
      </g>
     </g>
     <g id="text_9">
      <!-- $\mathdefault{0.0}$ -->
      <g transform="translate(20.941241 246.859796) scale(0.08 -0.08)">
       <defs>
        <path id="CMMI12-3a" d="M 1178 307 
C 1178 492 1024 619 870 619 
C 685 619 557 466 557 313 
C 557 128 710 0 864 0 
C 1050 0 1178 153 1178 307 
z
" transform="scale(0.015625)"/>
       </defs>
       <use xlink:href="#CMR17-30" transform="scale(0.996264)"/>
       <use xlink:href="#CMMI12-3a" transform="translate(45.690477 0) scale(0.996264)"/>
       <use xlink:href="#CMR17-30" transform="translate(72.787654 0) scale(0.996264)"/>
      </g>
     </g>
    </g>
    <g id="ytick_2">
     <g id="line2d_9">
      <g>
       <use xlink:href="#mb67568c99d" x="38.761931" y="214.524395" style="stroke: #000000; stroke-width: 0.8"/>
      </g>
     </g>
     <g id="text_10">
      <!-- $\mathdefault{0.2}$ -->
      <g transform="translate(20.941241 217.291796) scale(0.08 -0.08)">
       <use xlink:href="#CMR17-30" transform="scale(0.996264)"/>
       <use xlink:href="#CMMI12-3a" transform="translate(45.690477 0) scale(0.996264)"/>
       <use xlink:href="#CMR17-32" transform="translate(72.787654 0) scale(0.996264)"/>
      </g>
     </g>
    </g>
    <g id="ytick_3">
     <g id="line2d_10">
      <g>
       <use xlink:href="#mb67568c99d" x="38.761931" y="184.956395" style="stroke: #000000; stroke-width: 0.8"/>
      </g>
     </g>
     <g id="text_11">
      <!-- $\mathdefault{0.4}$ -->
      <g transform="translate(20.941241 187.723796) scale(0.08 -0.08)">
       <use xlink:href="#CMR17-30" transform="scale(0.996264)"/>
       <use xlink:href="#CMMI12-3a" transform="translate(45.690477 0) scale(0.996264)"/>
       <use xlink:href="#CMR17-34" transform="translate(72.787654 0) scale(0.996264)"/>
      </g>
     </g>
    </g>
    <g id="ytick_4">
     <g id="line2d_11">
      <g>
       <use xlink:href="#mb67568c99d" x="38.761931" y="155.388395" style="stroke: #000000; stroke-width: 0.8"/>
      </g>
     </g>
     <g id="text_12">
      <!-- $\mathdefault{0.6}$ -->
      <g transform="translate(20.941241 158.155796) scale(0.08 -0.08)">
       <use xlink:href="#CMR17-30" transform="scale(0.996264)"/>
       <use xlink:href="#CMMI12-3a" transform="translate(45.690477 0) scale(0.996264)"/>
       <use xlink:href="#CMR17-36" transform="translate(72.787654 0) scale(0.996264)"/>
      </g>
     </g>
    </g>
    <g id="ytick_5">
     <g id="line2d_12">
      <g>
       <use xlink:href="#mb67568c99d" x="38.761931" y="125.820395" style="stroke: #000000; stroke-width: 0.8"/>
      </g>
     </g>
     <g id="text_13">
      <!-- $\mathdefault{0.8}$ -->
      <g transform="translate(20.941241 128.587796) scale(0.08 -0.08)">
       <defs>
        <path id="CMR17-38" d="M 1741 2264 
C 2144 2467 2554 2773 2554 3263 
C 2554 3841 1990 4179 1472 4179 
C 890 4179 378 3759 378 3180 
C 378 3021 416 2747 666 2505 
C 730 2442 998 2251 1171 2130 
C 883 1983 211 1634 211 934 
C 211 279 838 -128 1459 -128 
C 2144 -128 2720 362 2720 1010 
C 2720 1590 2330 1857 2074 2029 
L 1741 2264 
z
M 902 2822 
C 851 2854 595 3051 595 3351 
C 595 3739 998 4032 1459 4032 
C 1965 4032 2336 3676 2336 3262 
C 2336 2669 1670 2331 1638 2331 
C 1632 2331 1626 2331 1574 2370 
L 902 2822 
z
M 2080 1519 
C 2176 1449 2483 1240 2483 851 
C 2483 381 2010 25 1472 25 
C 890 25 448 438 448 940 
C 448 1443 838 1862 1280 2060 
L 2080 1519 
z
" transform="scale(0.015625)"/>
       </defs>
       <use xlink:href="#CMR17-30" transform="scale(0.996264)"/>
       <use xlink:href="#CMMI12-3a" transform="translate(45.690477 0) scale(0.996264)"/>
       <use xlink:href="#CMR17-38" transform="translate(72.787654 0) scale(0.996264)"/>
      </g>
     </g>
    </g>
    <g id="ytick_6">
     <g id="line2d_13">
      <g>
       <use xlink:href="#mb67568c99d" x="38.761931" y="96.252395" style="stroke: #000000; stroke-width: 0.8"/>
      </g>
     </g>
     <g id="text_14">
      <!-- $\mathdefault{1.0}$ -->
      <g transform="translate(20.941241 99.019796) scale(0.08 -0.08)">
       <use xlink:href="#CMR17-31" transform="scale(0.996264)"/>
       <use xlink:href="#CMMI12-3a" transform="translate(45.690477 0) scale(0.996264)"/>
       <use xlink:href="#CMR17-30" transform="translate(72.787654 0) scale(0.996264)"/>
      </g>
     </g>
    </g>
    <g id="ytick_7">
     <g id="line2d_14">
      <g>
       <use xlink:href="#mb67568c99d" x="38.761931" y="66.684395" style="stroke: #000000; stroke-width: 0.8"/>
      </g>
     </g>
     <g id="text_15">
      <!-- $\mathdefault{1.2}$ -->
      <g transform="translate(20.941241 69.451796) scale(0.08 -0.08)">
       <use xlink:href="#CMR17-31" transform="scale(0.996264)"/>
       <use xlink:href="#CMMI12-3a" transform="translate(45.690477 0) scale(0.996264)"/>
       <use xlink:href="#CMR17-32" transform="translate(72.787654 0) scale(0.996264)"/>
      </g>
     </g>
    </g>
    <g id="ytick_8">
     <g id="line2d_15">
      <g>
       <use xlink:href="#mb67568c99d" x="38.761931" y="37.116395" style="stroke: #000000; stroke-width: 0.8"/>
      </g>
     </g>
     <g id="text_16">
      <!-- $\mathdefault{1.4}$ -->
      <g transform="translate(20.941241 39.883796) scale(0.08 -0.08)">
       <use xlink:href="#CMR17-31" transform="scale(0.996264)"/>
       <use xlink:href="#CMMI12-3a" transform="translate(45.690477 0) scale(0.996264)"/>
       <use xlink:href="#CMR17-34" transform="translate(72.787654 0) scale(0.996264)"/>
      </g>
     </g>
    </g>
    <g id="text_17">
     <!-- Density -->
     <g transform="translate(14.810347 151.431609) rotate(-90) scale(0.11 -0.11)">
      <defs>
       <path id="CMR17-44" d="M 333 4352 
L 333 4186 
C 774 4186 845 4186 845 3900 
L 845 452 
C 845 166 774 166 333 166 
L 333 0 
L 2368 0 
C 3398 0 4224 943 4224 2141 
C 4224 3346 3411 4352 2368 4352 
L 333 4352 
z
M 1523 166 
C 1267 166 1254 197 1254 414 
L 1254 3938 
C 1254 4155 1267 4186 1523 4186 
L 2240 4186 
C 2771 4186 3750 3874 3750 2141 
C 3750 1242 3488 879 3366 707 
C 3213 510 2848 166 2240 166 
L 1523 166 
z
" transform="scale(0.015625)"/>
       <path id="CMR17-73" d="M 1978 2697 
C 1978 2813 1971 2819 1933 2819 
C 1907 2819 1901 2813 1824 2717 
C 1805 2691 1747 2626 1728 2601 
C 1523 2819 1235 2819 1126 2819 
C 416 2819 160 2447 160 2076 
C 160 1498 813 1365 998 1325 
C 1402 1243 1542 1217 1677 1101 
C 1760 1025 1901 884 1901 654 
C 1901 384 1747 38 1158 38 
C 602 38 403 460 288 1021 
C 269 1110 269 1117 218 1117 
C 166 1117 160 1110 160 983 
L 160 63 
C 160 -51 166 -58 205 -58 
C 237 -58 243 -51 275 0 
C 314 57 410 211 448 276 
C 576 103 800 -64 1158 -64 
C 1792 -64 2131 283 2131 784 
C 2131 1112 1958 1285 1875 1362 
C 1683 1561 1459 1606 1190 1657 
C 838 1735 390 1825 390 2217 
C 390 2383 480 2737 1126 2737 
C 1811 2737 1850 2094 1862 1888 
C 1869 1856 1901 1849 1920 1849 
C 1978 1849 1978 1869 1978 1978 
L 1978 2697 
z
" transform="scale(0.015625)"/>
       <path id="CMR17-69" d="M 992 3909 
C 992 4049 877 4170 730 4170 
C 589 4170 467 4056 467 3909 
C 467 3769 582 3648 730 3648 
C 870 3648 992 3763 992 3909 
z
M 243 2706 
L 243 2541 
C 602 2541 653 2502 653 2197 
L 653 427 
C 653 184 627 153 218 153 
L 218 -13 
C 371 0 646 0 806 0 
C 960 0 1222 0 1370 -13 
L 1370 153 
C 992 153 979 191 979 420 
L 979 2776 
L 243 2706 
z
" transform="scale(0.015625)"/>
       <path id="CMR17-79" d="M 2496 2197 
C 2656 2586 2944 2586 3034 2586 
L 3034 2752 
C 2912 2752 2752 2752 2630 2752 
C 2496 2752 2285 2752 2157 2758 
L 2157 2592 
C 2400 2573 2406 2394 2406 2343 
C 2406 2280 2394 2248 2362 2171 
L 1664 449 
L 902 2306 
C 870 2382 870 2426 870 2433 
C 870 2573 1018 2586 1171 2586 
L 1171 2758 
C 1018 2752 742 2752 582 2752 
C 410 2752 205 2752 64 2758 
L 64 2586 
C 410 2586 448 2554 531 2350 
L 1485 15 
C 1197 -738 1030 -1178 627 -1178 
C 557 -1178 397 -1159 282 -1044 
C 429 -1031 493 -942 493 -833 
C 493 -725 416 -629 288 -629 
C 147 -629 77 -725 77 -840 
C 77 -1095 339 -1280 627 -1280 
C 998 -1280 1229 -922 1357 -604 
L 2496 2197 
z
" transform="scale(0.015625)"/>
      </defs>
      <use xlink:href="#CMR17-44" transform="scale(0.996264)"/>
      <use xlink:href="#CMR17-65" transform="translate(70.393556 0) scale(0.996264)"/>
      <use xlink:href="#CMR17-6e" transform="translate(110.879216 0) scale(0.996264)"/>
      <use xlink:href="#CMR17-73" transform="translate(161.774586 0) scale(0.996264)"/>
      <use xlink:href="#CMR17-69" transform="translate(197.575924 0) scale(0.996264)"/>
      <use xlink:href="#CMR17-74" transform="translate(222.446982 0) scale(0.996264)"/>
      <use xlink:href="#CMR17-79" transform="translate(255.125296 0) scale(0.996264)"/>
     </g>
    </g>
   </g>
   <g id="line2d_16">
    <path d="M 54.486303 238.744002 
L 56.722594 236.842167 
L 58.958885 234.58857 
L 61.195176 231.994688 
L 63.431467 229.087306 
L 66.413188 224.809176 
L 70.885769 217.899283 
L 79.085502 204.869886 
L 82.067223 199.659811 
L 85.048944 193.913476 
L 93.248677 177.40412 
L 95.484968 173.74659 
L 96.975828 171.706939 
L 98.466689 170.023064 
L 99.957549 168.711505 
L 101.44841 167.777298 
L 102.93927 167.215072 
L 104.430131 167.009049 
L 105.920991 167.13221 
L 107.411852 167.545529 
L 108.902712 168.198461 
L 111.139003 169.496271 
L 116.357015 173.024866 
L 121.575027 176.615693 
L 123.811317 178.48712 
L 126.047608 180.770491 
L 128.283899 183.510577 
L 130.52019 186.63326 
L 137.974492 197.451874 
L 140.210783 200.194199 
L 142.447074 202.616055 
L 145.428795 205.48779 
L 152.137667 211.793145 
L 157.355679 217.198583 
L 161.828261 221.712159 
L 165.555412 225.103668 
L 168.537133 227.540458 
L 172.264284 230.26902 
L 176.736866 233.214409 
L 183.445738 237.329687 
L 186.427459 238.952496 
L 189.40918 240.294272 
L 191.645471 241.06974 
L 193.881762 241.645884 
L 196.863483 242.1566 
L 201.336064 242.612149 
L 202.826925 242.738776 
L 202.826925 242.738776 
" clip-path="url(#p4e431904e4)" style="fill: none; stroke: #ff7f0e; stroke-width: 0.5; stroke-linecap: square"/>
   </g>
   <g id="line2d_17">
    <path d="M 54.486303 244.091775 
L 61.940606 243.990009 
L 64.922327 243.740455 
L 73.86749 242.490173 
L 78.340072 241.762937 
L 80.576362 241.299184 
L 82.067223 240.775806 
L 82.812653 240.373965 
L 83.558084 239.840023 
L 84.303514 239.149139 
L 85.048944 238.28427 
L 86.539805 236.019717 
L 88.030665 233.141053 
L 91.012386 226.518762 
L 93.994107 219.518332 
L 95.484968 215.326428 
L 96.975828 210.11838 
L 98.466689 203.669801 
L 99.957549 196.100781 
L 105.175561 167.913893 
L 106.666422 161.277159 
L 108.157282 155.57619 
L 110.393573 148.27221 
L 112.629864 141.163723 
L 114.120724 135.880588 
L 119.338736 116.172916 
L 120.829596 112.096083 
L 121.575027 110.507317 
L 122.320457 109.217494 
L 123.065887 108.217174 
L 123.811317 107.496916 
L 124.556748 107.051817 
L 125.302178 106.883785 
L 126.047608 107.001225 
L 126.793038 107.4165 
L 127.538469 108.142021 
L 128.283899 109.186103 
L 129.029329 110.549658 
L 129.774759 112.224548 
L 131.26562 116.434763 
L 132.756481 121.629969 
L 134.247341 127.654354 
L 135.738202 134.490857 
L 137.229062 142.260765 
L 138.719923 151.085195 
L 140.956213 166.020544 
L 143.937934 186.143965 
L 145.428795 194.612807 
L 146.919655 201.381384 
L 148.410516 206.499968 
L 149.901376 210.418443 
L 153.628528 219.102994 
L 155.864818 225.264551 
L 158.101109 231.408235 
L 159.59197 234.804063 
L 161.08283 237.364333 
L 162.573691 239.120213 
L 164.064551 240.271679 
L 165.555412 241.064871 
L 168.537133 242.253581 
L 171.518854 243.208001 
L 173.755145 243.685875 
L 175.991435 243.942823 
L 179.718587 244.075741 
L 193.136331 244.092395 
L 202.826925 244.092395 
L 202.826925 244.092395 
" clip-path="url(#p4e431904e4)" style="fill: none; stroke: #1f77b4; stroke-width: 0.5; stroke-linecap: square"/>
   </g>
   <g id="line2d_18">
    <path d="M 115.491657 244.092395 
L 115.491657 22.332395 
" clip-path="url(#p4e431904e4)" style="fill: none; stroke-dasharray: 3.7,1.6; stroke-dashoffset: 0; stroke: #ff7f0e"/>
   </g>
   <g id="line2d_19">
    <path d="M 123.564669 244.092395 
L 123.564669 22.332395 
" clip-path="url(#p4e431904e4)" style="fill: none; stroke-dasharray: 3.7,1.6; stroke-dashoffset: 0; stroke: #1f77b4"/>
   </g>
   <g id="patch_3">
    <path d="M 38.761931 244.092395 
L 38.761931 22.332395 
" style="fill: none; stroke: #000000; stroke-width: 0.8; stroke-linejoin: miter; stroke-linecap: square"/>
   </g>
   <g id="patch_4">
    <path d="M 261.961931 244.092395 
L 261.961931 22.332395 
" style="fill: none; stroke: #000000; stroke-width: 0.8; stroke-linejoin: miter; stroke-linecap: square"/>
   </g>
   <g id="patch_5">
    <path d="M 38.761931 244.092395 
L 261.961931 244.092395 
" style="fill: none; stroke: #000000; stroke-width: 0.8; stroke-linejoin: miter; stroke-linecap: square"/>
   </g>
   <g id="patch_6">
    <path d="M 38.761931 22.332395 
L 261.961931 22.332395 
" style="fill: none; stroke: #000000; stroke-width: 0.8; stroke-linejoin: miter; stroke-linecap: square"/>
   </g>
   <g id="text_18">
    <!-- Nonzero $x_{000}, x_{011}, x_{100}$ -->
    <g transform="translate(86.617665 16.332395) scale(0.132 -0.132)">
     <defs>
      <path id="CMR17-4e" d="M 1312 4250 
C 1267 4320 1261 4320 1139 4320 
L 326 4320 
L 326 4160 
L 448 4160 
C 704 4160 819 4129 838 4122 
L 838 610 
C 838 451 838 153 326 153 
L 326 -13 
C 474 0 742 0 902 0 
C 1062 0 1331 0 1478 -13 
L 1478 153 
C 966 153 966 451 966 610 
L 966 4033 
C 1011 3995 1011 3982 1056 3919 
L 3430 76 
C 3475 0 3494 0 3526 0 
C 3590 0 3590 19 3590 139 
L 3590 3705 
C 3590 3863 3590 4160 4102 4160 
L 4102 4326 
C 3955 4320 3686 4320 3526 4320 
C 3366 4320 3098 4320 2950 4326 
L 2950 4160 
C 3462 4160 3462 3862 3462 3703 
L 3462 763 
L 1312 4250 
z
" transform="scale(0.015625)"/>
      <path id="CMR17-7a" d="M 2310 2605 
C 2362 2670 2362 2682 2362 2695 
C 2362 2752 2336 2752 2221 2752 
L 275 2752 
L 211 1760 
L 326 1760 
C 371 2381 442 2650 1178 2650 
L 1958 2650 
L 128 96 
C 128 0 134 0 269 0 
L 2291 0 
L 2381 1152 
L 2266 1152 
C 2214 442 2131 115 1350 115 
L 531 115 
L 2310 2605 
z
" transform="scale(0.015625)"/>
      <path id="CMMI12-78" d="M 3034 2606 
C 2829 2567 2752 2414 2752 2293 
C 2752 2139 2874 2088 2963 2088 
C 3155 2088 3290 2254 3290 2427 
C 3290 2695 2982 2816 2714 2816 
C 2323 2816 2106 2433 2048 2312 
C 1901 2816 1504 2816 1389 2816 
C 736 2816 390 1980 390 1839 
C 390 1814 416 1782 461 1782 
C 512 1782 525 1820 538 1846 
C 755 2555 1184 2689 1370 2689 
C 1658 2689 1715 2420 1715 2267 
C 1715 2127 1677 1980 1600 1673 
L 1382 798 
C 1286 415 1101 64 762 64 
C 730 64 570 64 435 147 
C 666 192 717 383 717 460 
C 717 588 621 664 499 664 
C 346 664 179 530 179 326 
C 179 57 480 -64 755 -64 
C 1062 -64 1280 179 1414 441 
C 1517 64 1837 -64 2074 -64 
C 2726 -64 3072 773 3072 913 
C 3072 945 3046 971 3008 971 
C 2950 971 2944 939 2925 888 
C 2752 326 2381 64 2093 64 
C 1869 64 1747 230 1747 492 
C 1747 632 1773 734 1875 1156 
L 2099 2024 
C 2195 2408 2413 2689 2707 2689 
C 2720 2689 2899 2689 3034 2606 
z
" transform="scale(0.015625)"/>
      <path id="CMMI12-3b" d="M 1248 -31 
C 1248 343 1126 619 864 619 
C 659 619 557 453 557 313 
C 557 172 653 0 870 0 
C 954 0 1024 26 1082 83 
C 1094 96 1101 96 1107 96 
C 1120 96 1120 5 1120 -27 
C 1120 -240 1082 -659 710 -1080 
C 640 -1157 640 -1170 640 -1183 
C 640 -1216 672 -1248 704 -1248 
C 755 -1248 1248 -771 1248 -31 
z
" transform="scale(0.015625)"/>
     </defs>
     <use xlink:href="#CMR17-4e" transform="scale(0.996264)"/>
     <use xlink:href="#CMR17-6f" transform="translate(69.07243 0) scale(0.996264)"/>
     <use xlink:href="#CMR17-6e" transform="translate(114.762907 0) scale(0.996264)"/>
     <use xlink:href="#CMR17-7a" transform="translate(165.658277 0) scale(0.996264)"/>
     <use xlink:href="#CMR17-65" transform="translate(206.143937 0) scale(0.996264)"/>
     <use xlink:href="#CMR17-72" transform="translate(246.629598 0) scale(0.996264)"/>
     <use xlink:href="#CMR17-6f" transform="translate(281.910365 0) scale(0.996264)"/>
     <use xlink:href="#CMMI12-78" transform="translate(357.676809 0) scale(0.996264)"/>
     <use xlink:href="#CMR17-30" transform="translate(413.110868 -14.943915) scale(0.697382)"/>
     <use xlink:href="#CMR17-30" transform="translate(445.09405 -14.943915) scale(0.697382)"/>
     <use xlink:href="#CMR17-30" transform="translate(477.077232 -14.943915) scale(0.697382)"/>
     <use xlink:href="#CMMI12-3b" transform="translate(509.558546 0) scale(0.996264)"/>
     <use xlink:href="#CMMI12-78" transform="translate(553.260129 0) scale(0.996264)"/>
     <use xlink:href="#CMR17-30" transform="translate(608.694188 -14.943915) scale(0.697382)"/>
     <use xlink:href="#CMR17-31" transform="translate(640.67737 -14.943915) scale(0.697382)"/>
     <use xlink:href="#CMR17-31" transform="translate(672.660552 -14.943915) scale(0.697382)"/>
     <use xlink:href="#CMMI12-3b" transform="translate(705.141866 0) scale(0.996264)"/>
     <use xlink:href="#CMMI12-78" transform="translate(748.843448 0) scale(0.996264)"/>
     <use xlink:href="#CMR17-31" transform="translate(804.277508 -14.943915) scale(0.697382)"/>
     <use xlink:href="#CMR17-30" transform="translate(836.26069 -14.943915) scale(0.697382)"/>
     <use xlink:href="#CMR17-30" transform="translate(868.243872 -14.943915) scale(0.697382)"/>
    </g>
   </g>
   <g id="legend_1">
    <g id="patch_7">
     <path d="M 193.953269 64.773128 
L 256.361931 64.773128 
Q 257.961931 64.773128 257.961931 63.173128 
L 257.961931 27.932395 
Q 257.961931 26.332395 256.361931 26.332395 
L 193.953269 26.332395 
Q 192.353269 26.332395 192.353269 27.932395 
L 192.353269 63.173128 
Q 192.353269 64.773128 193.953269 64.773128 
z
" style="fill: #ffffff; opacity: 0.8; stroke: #cccccc; stroke-linejoin: miter"/>
    </g>
    <g id="text_19">
     <!-- Randomized -->
     <g transform="translate(195.553269 37.142741) scale(0.11 -0.11)">
      <defs>
       <path id="CMR17-52" d="M 2509 2146 
C 3117 2268 3629 2676 3629 3186 
C 3629 3785 2950 4326 2054 4326 
L 333 4326 
L 333 4160 
C 774 4160 845 4160 845 3873 
L 845 415 
C 845 128 774 128 333 128 
L 333 -26 
C 518 -26 851 -26 1050 -26 
C 1248 -26 1581 -26 1766 -26 
L 1766 128 
C 1325 128 1254 128 1254 417 
L 1254 2112 
L 2003 2112 
C 2368 2112 2573 1964 2662 1881 
C 2918 1632 2918 1459 2918 1024 
C 2918 595 2918 377 3110 160 
C 3354 -102 3680 -128 3821 -128 
C 4294 -128 4365 396 4365 503 
C 4365 540 4365 585 4307 585 
C 4256 585 4250 547 4250 522 
C 4218 112 4032 -26 3834 -26 
C 3482 -26 3443 375 3405 764 
C 3386 898 3373 993 3360 1133 
C 3322 1452 3270 1917 2509 2146 
z
M 1984 2214 
L 1254 2214 
L 1254 3913 
C 1254 4129 1267 4160 1523 4160 
L 1990 4160 
C 2522 4160 3142 3977 3142 3190 
C 3142 2372 2464 2214 1984 2214 
z
" transform="scale(0.015625)"/>
       <path id="CMR17-64" d="M 1869 4326 
L 1869 4160 
C 2246 4160 2304 4122 2304 3820 
L 2304 2345 
C 2278 2377 2016 2790 1498 2790 
C 845 2790 211 2208 211 1364 
C 211 525 806 -64 1434 -64 
C 1978 -64 2259 337 2291 380 
L 2291 -63 
L 3066 -63 
L 3066 128 
C 2688 128 2630 166 2630 473 
L 2630 4396 
L 1869 4326 
z
M 2291 755 
C 2291 563 2176 390 2029 262 
C 1811 70 1594 38 1472 38 
C 1286 38 621 134 621 1356 
C 621 2612 1363 2688 1530 2688 
C 1824 2688 2061 2522 2208 2291 
C 2291 2157 2291 2138 2291 2023 
L 2291 755 
z
" transform="scale(0.015625)"/>
       <path id="CMR17-6d" d="M 4326 1933 
C 4326 2252 4269 2790 3507 2790 
C 3072 2790 2771 2496 2656 2151 
L 2650 2151 
C 2573 2676 2195 2790 1837 2790 
C 1331 2790 1069 2400 973 2144 
L 966 2144 
L 966 2790 
L 211 2720 
L 211 2554 
C 589 2554 646 2515 646 2208 
L 646 428 
C 646 184 621 153 211 153 
L 211 -13 
C 365 0 646 0 813 0 
C 979 0 1267 0 1421 -13 
L 1421 153 
C 1011 153 986 178 986 428 
L 986 1658 
C 986 2247 1344 2688 1792 2688 
C 2266 2688 2317 2266 2317 1958 
L 2317 428 
C 2317 184 2291 153 1882 153 
L 1882 -13 
C 2035 0 2317 0 2483 0 
C 2650 0 2938 0 3091 -13 
L 3091 153 
C 2682 153 2656 178 2656 428 
L 2656 1658 
C 2656 2247 3014 2688 3462 2688 
C 3936 2688 3987 2266 3987 1958 
L 3987 428 
C 3987 184 3962 153 3552 153 
L 3552 -13 
C 3706 0 3987 0 4154 0 
C 4320 0 4608 0 4762 -13 
L 4762 153 
C 4352 153 4326 178 4326 428 
L 4326 1933 
z
" transform="scale(0.015625)"/>
      </defs>
      <use xlink:href="#CMR17-52" transform="scale(0.996264)"/>
      <use xlink:href="#CMR17-61" transform="translate(67.791102 0) scale(0.996264)"/>
      <use xlink:href="#CMR17-6e" transform="translate(113.481579 0) scale(0.996264)"/>
      <use xlink:href="#CMR17-64" transform="translate(164.376949 0) scale(0.996264)"/>
      <use xlink:href="#CMR17-6f" transform="translate(215.272319 0) scale(0.996264)"/>
      <use xlink:href="#CMR17-6d" transform="translate(260.962796 0) scale(0.996264)"/>
      <use xlink:href="#CMR17-69" transform="translate(337.882386 0) scale(0.996264)"/>
      <use xlink:href="#CMR17-7a" transform="translate(362.753444 0) scale(0.996264)"/>
      <use xlink:href="#CMR17-65" transform="translate(403.239105 0) scale(0.996264)"/>
      <use xlink:href="#CMR17-64" transform="translate(443.724765 0) scale(0.996264)"/>
     </g>
    </g>
    <g id="patch_8">
     <path d="M 204.703279 48.873636 
L 220.703279 48.873636 
L 220.703279 43.273636 
L 204.703279 43.273636 
z
" style="fill: #1f77b4; fill-opacity: 0.25; stroke: #1f77b4; stroke-width: 0.5; stroke-linejoin: miter"/>
    </g>
    <g id="text_20">
     <!-- False -->
     <g transform="translate(227.103279 48.873636) scale(0.08 -0.08)">
      <defs>
       <path id="CMR17-46" d="M 3482 4325 
L 326 4325 
L 326 4160 
C 768 4160 838 4160 838 3874 
L 838 446 
C 838 160 768 160 326 160 
L 326 0 
C 512 0 870 0 1069 0 
C 1331 0 1638 0 1901 0 
L 1901 160 
L 1760 160 
C 1274 160 1261 223 1261 452 
L 1261 2075 
L 1837 2075 
C 2432 2075 2490 1865 2490 1332 
L 2605 1332 
L 2605 2987 
L 2490 2987 
C 2490 2450 2432 2240 1837 2240 
L 1261 2240 
L 1261 3911 
C 1261 4128 1274 4160 1530 4160 
L 2355 4160 
C 3322 4160 3430 3765 3520 2916 
L 3635 2916 
L 3482 4325 
z
" transform="scale(0.015625)"/>
       <path id="CMR17-6c" d="M 979 4396 
L 218 4326 
L 218 4160 
C 595 4160 653 4122 653 3817 
L 653 426 
C 653 184 627 153 218 153 
L 218 -13 
C 371 0 653 0 813 0 
C 979 0 1261 0 1414 -13 
L 1414 153 
C 1005 153 979 178 979 426 
L 979 4396 
z
" transform="scale(0.015625)"/>
      </defs>
      <use xlink:href="#CMR17-46" transform="scale(0.996264)"/>
      <use xlink:href="#CMR17-61" transform="translate(52.176591 0) scale(0.996264)"/>
      <use xlink:href="#CMR17-6c" transform="translate(97.867068 0) scale(0.996264)"/>
      <use xlink:href="#CMR17-73" transform="translate(122.738127 0) scale(0.996264)"/>
      <use xlink:href="#CMR17-65" transform="translate(158.539464 0) scale(0.996264)"/>
     </g>
    </g>
    <g id="patch_9">
     <path d="M 204.703279 60.023382 
L 220.703279 60.023382 
L 220.703279 54.423382 
L 204.703279 54.423382 
z
" style="fill: #ff7f0e; fill-opacity: 0.25; stroke: #ff7f0e; stroke-width: 0.5; stroke-linejoin: miter"/>
    </g>
    <g id="text_21">
     <!-- True -->
     <g transform="translate(227.103279 60.023382) scale(0.08 -0.08)">
      <defs>
       <path id="CMR17-54" d="M 3981 4326 
L 288 4326 
L 179 2918 
L 294 2918 
C 378 3976 467 4160 1453 4160 
C 1568 4160 1754 4160 1805 4154 
C 1926 4135 1926 4058 1926 3912 
L 1926 459 
C 1926 230 1907 160 1376 160 
L 1197 160 
L 1197 0 
C 1504 0 1824 0 2138 0 
C 2451 0 2771 0 3078 0 
L 3078 160 
L 2899 160 
C 2368 160 2349 230 2349 459 
L 2349 3912 
C 2349 4052 2349 4129 2464 4154 
C 2515 4160 2701 4160 2816 4160 
C 3795 4160 3891 3976 3974 2918 
L 4090 2918 
L 3981 4326 
z
" transform="scale(0.015625)"/>
       <path id="CMR17-75" d="M 1882 2693 
L 1882 2528 
C 2259 2528 2317 2489 2317 2186 
L 2317 1032 
C 2317 500 2029 38 1555 38 
C 1030 38 986 348 986 678 
L 986 2763 
L 211 2693 
L 211 2528 
C 467 2528 640 2528 646 2274 
L 646 1058 
C 646 633 646 361 813 183 
C 896 101 1056 -64 1517 -64 
C 2061 -64 2272 377 2323 506 
L 2330 506 
L 2330 -63 
L 3091 -63 
L 3091 128 
C 2714 128 2656 166 2656 473 
L 2656 2763 
L 1882 2693 
z
" transform="scale(0.015625)"/>
      </defs>
      <use xlink:href="#CMR17-54" transform="scale(0.996264)"/>
      <use xlink:href="#CMR17-72" transform="translate(58.702625 0) scale(0.996264)"/>
      <use xlink:href="#CMR17-75" transform="translate(93.983393 0) scale(0.996264)"/>
      <use xlink:href="#CMR17-65" transform="translate(144.878763 0) scale(0.996264)"/>
     </g>
    </g>
   </g>
  </g>
 </g>
 <defs>
  <clipPath id="p4e431904e4">
   <rect x="38.761931" y="22.332395" width="223.2" height="221.76"/>
  </clipPath>
 </defs>
</svg>
