<?xml version="1.0" encoding="utf-8" standalone="no"?>
<!DOCTYPE svg PUBLIC "-//W3C//DTD SVG 1.1//EN"
  "http://www.w3.org/Graphics/SVG/1.1/DTD/svg11.dtd">
<svg xmlns:xlink="http://www.w3.org/1999/xlink" width="259.245937pt" height="281.578375pt" viewBox="0 0 259.245937 281.578375" xmlns="http://www.w3.org/2000/svg" version="1.1">
 <metadata>
  <rdf:RDF xmlns:dc="http://purl.org/dc/elements/1.1/" xmlns:cc="http://creativecommons.org/ns#" xmlns:rdf="http://www.w3.org/1999/02/22-rdf-syntax-ns#">
   <cc:Work>
    <dc:type rdf:resource="http://purl.org/dc/dcmitype/StillImage"/>
    <dc:date>2024-03-11T17:48:43.861876</dc:date>
    <dc:format>image/svg+xml</dc:format>
    <dc:creator>
     <cc:Agent>
      <dc:title>Matplotlib v3.7.2, https://matplotlib.org/</dc:title>
     </cc:Agent>
    </dc:creator>
   </cc:Work>
  </rdf:RDF>
 </metadata>
 <defs>
  <style type="text/css">*{stroke-linejoin: round; stroke-linecap: butt}</style>
 </defs>
 <g id="figure_1">
  <g id="patch_1">
   <path d="M 0 281.578375 
L 259.245937 281.578375 
L 259.245937 0 
L 0 0 
z
" style="fill: #ffffff"/>
  </g>
  <g id="axes_1">
   <g id="patch_2">
    <path d="M 28.845938 244.989937 
L 252.045937 244.989937 
L 252.045937 23.229938 
L 28.845938 23.229938 
z
" style="fill: #ffffff"/>
   </g>
   <g id="PolyCollection_1">
    <defs>
     <path id="m5d73dc4a71" d="M 168.918587 -7.048897 
L 168.918587 -6.991978 
L 169.540419 -6.974879 
L 170.162251 -6.951273 
L 170.784083 -6.920701 
L 171.405915 -6.883551 
L 172.027747 -6.841165 
L 172.649579 -6.795679 
L 173.271411 -6.749598 
L 173.893243 -6.705214 
L 174.515075 -6.664036 
L 175.136907 -6.626422 
L 175.758739 -6.591497 
L 176.380571 -6.557376 
L 177.002403 -6.521556 
L 177.624234 -6.481351 
L 178.246066 -6.434228 
L 178.867898 -6.378011 
L 179.48973 -6.310963 
L 180.111562 -6.231815 
L 180.733394 -6.139785 
L 181.355226 -6.034546 
L 181.977058 -5.916046 
L 182.59889 -5.784086 
L 183.220722 -5.637716 
L 183.842554 -5.474715 
L 184.464386 -5.291529 
L 185.086218 -5.083964 
L 185.70805 -4.848544 
L 186.329882 -4.583994 
L 186.951714 -4.291997 
L 187.573546 -3.976467 
L 188.195378 -3.641136 
L 188.81721 -3.286135 
L 189.439042 -2.905019 
L 190.060874 -2.483956 
L 190.682706 -2.004269 
L 191.304538 -1.448244 
L 191.92637 -0.806567 
L 192.548202 -0.084718 
L 193.170034 0.694354 
L 193.791866 1.492758 
L 194.413697 2.265016 
L 195.035529 2.968287 
L 195.657361 3.572742 
L 196.279193 4.069668 
L 196.901025 4.475692 
L 197.522857 4.83224 
L 198.144689 5.19993 
L 198.766521 5.648103 
L 199.388353 6.24079 
L 200.010185 7.021796 
L 200.632017 8.002812 
L 201.253849 9.158403 
L 201.875681 10.430028 
L 202.497513 11.738334 
L 203.119345 13.000123 
L 203.741177 14.144963 
L 204.363009 15.126988 
L 204.984841 15.929528 
L 205.606673 16.562856 
L 206.228505 17.057265 
L 206.850337 17.45438 
L 207.472169 17.799131 
L 208.094001 18.133655 
L 208.715833 18.493179 
L 209.337665 18.903195 
L 209.959497 19.377114 
L 210.581329 19.91405 
L 211.20316 20.497086 
L 211.824992 21.092933 
L 212.446824 21.653922 
L 213.068656 22.122709 
L 213.690488 22.43911 
L 214.31232 22.547562 
L 214.934152 22.403363 
L 215.555984 21.976231 
L 216.177816 21.25088 
L 216.799648 20.225474 
L 217.42148 18.909591 
L 218.043312 17.323121 
L 218.665144 15.496608 
L 219.286976 13.472315 
L 219.908808 11.304591 
L 220.53064 9.05821 
L 221.152472 6.804211 
L 221.774304 4.613844 
L 222.396136 2.551984 
L 223.017968 0.671488 
L 223.6398 -0.990489 
L 224.261632 -2.413852 
L 224.883464 -3.594837 
L 225.505296 -4.543704 
L 226.127128 -5.281452 
L 226.74896 -5.836088 
L 227.370792 -6.238937 
L 227.992624 -6.521391 
L 228.614455 -6.712405 
L 229.236287 -6.836891 
L 229.858119 -6.915 
L 230.479951 -6.962134 
L 230.479951 -7.078741 
L 230.479951 -7.078741 
L 229.858119 -7.125875 
L 229.236287 -7.203984 
L 228.614455 -7.32847 
L 227.992624 -7.519484 
L 227.370792 -7.801938 
L 226.74896 -8.204787 
L 226.127128 -8.759423 
L 225.505296 -9.497171 
L 224.883464 -10.446038 
L 224.261632 -11.627023 
L 223.6398 -13.050386 
L 223.017968 -14.712363 
L 222.396136 -16.592859 
L 221.774304 -18.654719 
L 221.152472 -20.845086 
L 220.53064 -23.099085 
L 219.908808 -25.345466 
L 219.286976 -27.51319 
L 218.665144 -29.537483 
L 218.043312 -31.363996 
L 217.42148 -32.950466 
L 216.799648 -34.266349 
L 216.177816 -35.291755 
L 215.555984 -36.017106 
L 214.934152 -36.444238 
L 214.31232 -36.588437 
L 213.690488 -36.479985 
L 213.068656 -36.163584 
L 212.446824 -35.694797 
L 211.824992 -35.133808 
L 211.20316 -34.537961 
L 210.581329 -33.954925 
L 209.959497 -33.417989 
L 209.337665 -32.94407 
L 208.715833 -32.534054 
L 208.094001 -32.17453 
L 207.472169 -31.840006 
L 206.850337 -31.495255 
L 206.228505 -31.09814 
L 205.606673 -30.603731 
L 204.984841 -29.970403 
L 204.363009 -29.167863 
L 203.741177 -28.185838 
L 203.119345 -27.040998 
L 202.497513 -25.779209 
L 201.875681 -24.470903 
L 201.253849 -23.199278 
L 200.632017 -22.043687 
L 200.010185 -21.062671 
L 199.388353 -20.281665 
L 198.766521 -19.688978 
L 198.144689 -19.240805 
L 197.522857 -18.873115 
L 196.901025 -18.516567 
L 196.279193 -18.110543 
L 195.657361 -17.613617 
L 195.035529 -17.009162 
L 194.413697 -16.305891 
L 193.791866 -15.533633 
L 193.170034 -14.735229 
L 192.548202 -13.956157 
L 191.92637 -13.234308 
L 191.304538 -12.592631 
L 190.682706 -12.036606 
L 190.060874 -11.556919 
L 189.439042 -11.135856 
L 188.81721 -10.75474 
L 188.195378 -10.399739 
L 187.573546 -10.064408 
L 186.951714 -9.748878 
L 186.329882 -9.456881 
L 185.70805 -9.192331 
L 185.086218 -8.956911 
L 184.464386 -8.749346 
L 183.842554 -8.56616 
L 183.220722 -8.403159 
L 182.59889 -8.256789 
L 181.977058 -8.124829 
L 181.355226 -8.006329 
L 180.733394 -7.90109 
L 180.111562 -7.80906 
L 179.48973 -7.729912 
L 178.867898 -7.662864 
L 178.246066 -7.606647 
L 177.624234 -7.559524 
L 177.002403 -7.519319 
L 176.380571 -7.483499 
L 175.758739 -7.449378 
L 175.136907 -7.414453 
L 174.515075 -7.376839 
L 173.893243 -7.335661 
L 173.271411 -7.291277 
L 172.649579 -7.245196 
L 172.027747 -7.19971 
L 171.405915 -7.157324 
L 170.784083 -7.120174 
L 170.162251 -7.089602 
L 169.540419 -7.065996 
L 168.918587 -7.048897 
z
" style="stroke: #3f3f3f; stroke-width: 0.5"/>
    </defs>
    <g clip-path="url(#p61324cb14f)">
     <use xlink:href="#m5d73dc4a71" x="0" y="281.578375" style="fill: #3274a1; stroke: #3f3f3f; stroke-width: 0.5"/>
    </g>
   </g>
   <g id="PolyCollection_2">
    <defs>
     <path id="m60ceccb3c6" d="M 38.991392 -66.180437 
L 38.991392 -66.132438 
L 41.040979 -66.116974 
L 43.090566 -66.095719 
L 45.140152 -66.068894 
L 47.189739 -66.03791 
L 49.239326 -66.005277 
L 51.288913 -65.974078 
L 53.338499 -65.947152 
L 55.388086 -65.926351 
L 57.437673 -65.912235 
L 59.48726 -65.904341 
L 61.536847 -65.901803 
L 63.586433 -65.90388 
L 65.63602 -65.909988 
L 67.685607 -65.919232 
L 69.735194 -65.929761 
L 71.78478 -65.938455 
L 73.834367 -65.941216 
L 75.883954 -65.933727 
L 77.933541 -65.912242 
L 79.983128 -65.874039 
L 82.032714 -65.817451 
L 84.082301 -65.741781 
L 86.131888 -65.647439 
L 88.181475 -65.536367 
L 90.231061 -65.412326 
L 92.280648 -65.28053 
L 94.330235 -65.146407 
L 96.379822 -65.013964 
L 98.429409 -64.884687 
L 100.478995 -64.757718 
L 102.528582 -64.631261 
L 104.578169 -64.504317 
L 106.627756 -64.377616 
L 108.677342 -64.253175 
L 110.726929 -64.13285 
L 112.776516 -64.016878 
L 114.826103 -63.903255 
L 116.87569 -63.788078 
L 118.925276 -63.666175 
L 120.974863 -63.531193 
L 123.02445 -63.374775 
L 125.074037 -63.185311 
L 127.123623 -62.947403 
L 129.17321 -62.64316 
L 131.222797 -62.255733 
L 133.272384 -61.774385 
L 135.321971 -61.199386 
L 137.371557 -60.544713 
L 139.421144 -59.837028 
L 141.470731 -59.110659 
L 143.520318 -58.399645 
L 145.569904 -57.728911 
L 147.619491 -57.106965 
L 149.669078 -56.522308 
L 151.718665 -55.945025 
L 153.768252 -55.333847 
L 155.817838 -54.647353 
L 157.867425 -53.856261 
L 159.917012 -52.952728 
L 161.966599 -51.953018 
L 164.016185 -50.891944 
L 166.065772 -49.810545 
L 168.115359 -48.741244 
L 170.164946 -47.696006 
L 172.214533 -46.662235 
L 174.264119 -45.608533 
L 176.313706 -44.498922 
L 178.363293 -43.310982 
L 180.41288 -42.051528 
L 182.462466 -40.763783 
L 184.512053 -39.522524 
L 186.56164 -38.417927 
L 188.611227 -37.533367 
L 190.660814 -36.925464 
L 192.7104 -36.614384 
L 194.759987 -36.588438 
L 196.809574 -36.820781 
L 198.859161 -37.290453 
L 200.908747 -37.997781 
L 202.958334 -38.966732 
L 205.007921 -40.23276 
L 207.057508 -41.821399 
L 209.107095 -43.727092 
L 211.156681 -45.901593 
L 213.206268 -48.256955 
L 215.255855 -50.681714 
L 217.305442 -53.063409 
L 219.355028 -55.308653 
L 221.404615 -57.354151 
L 223.454202 -59.166937 
L 225.503789 -60.736928 
L 227.553376 -62.067308 
L 229.602962 -63.167459 
L 231.652549 -64.050292 
L 233.702136 -64.732851 
L 235.751723 -65.237621 
L 237.801309 -65.592417 
L 239.850896 -65.828244 
L 241.900483 -65.975908 
L 241.900483 -66.336967 
L 241.900483 -66.336967 
L 239.850896 -66.484631 
L 237.801309 -66.720458 
L 235.751723 -67.075254 
L 233.702136 -67.580024 
L 231.652549 -68.262583 
L 229.602962 -69.145416 
L 227.553376 -70.245567 
L 225.503789 -71.575947 
L 223.454202 -73.145938 
L 221.404615 -74.958724 
L 219.355028 -77.004222 
L 217.305442 -79.249466 
L 215.255855 -81.631161 
L 213.206268 -84.05592 
L 211.156681 -86.411282 
L 209.107095 -88.585783 
L 207.057508 -90.491476 
L 205.007921 -92.080115 
L 202.958334 -93.346143 
L 200.908747 -94.315094 
L 198.859161 -95.022422 
L 196.809574 -95.492094 
L 194.759987 -95.724437 
L 192.7104 -95.698491 
L 190.660814 -95.387411 
L 188.611227 -94.779508 
L 186.56164 -93.894948 
L 184.512053 -92.790351 
L 182.462466 -91.549092 
L 180.41288 -90.261347 
L 178.363293 -89.001893 
L 176.313706 -87.813953 
L 174.264119 -86.704342 
L 172.214533 -85.65064 
L 170.164946 -84.616869 
L 168.115359 -83.571631 
L 166.065772 -82.50233 
L 164.016185 -81.420931 
L 161.966599 -80.359857 
L 159.917012 -79.360147 
L 157.867425 -78.456614 
L 155.817838 -77.665522 
L 153.768252 -76.979028 
L 151.718665 -76.36785 
L 149.669078 -75.790567 
L 147.619491 -75.20591 
L 145.569904 -74.583964 
L 143.520318 -73.91323 
L 141.470731 -73.202216 
L 139.421144 -72.475847 
L 137.371557 -71.768162 
L 135.321971 -71.113489 
L 133.272384 -70.53849 
L 131.222797 -70.057142 
L 129.17321 -69.669715 
L 127.123623 -69.365472 
L 125.074037 -69.127564 
L 123.02445 -68.9381 
L 120.974863 -68.781682 
L 118.925276 -68.6467 
L 116.87569 -68.524797 
L 114.826103 -68.40962 
L 112.776516 -68.295997 
L 110.726929 -68.180025 
L 108.677342 -68.0597 
L 106.627756 -67.935259 
L 104.578169 -67.808558 
L 102.528582 -67.681614 
L 100.478995 -67.555157 
L 98.429409 -67.428188 
L 96.379822 -67.298911 
L 94.330235 -67.166468 
L 92.280648 -67.032345 
L 90.231061 -66.900549 
L 88.181475 -66.776508 
L 86.131888 -66.665436 
L 84.082301 -66.571094 
L 82.032714 -66.495424 
L 79.983128 -66.438836 
L 77.933541 -66.400633 
L 75.883954 -66.379148 
L 73.834367 -66.371659 
L 71.78478 -66.37442 
L 69.735194 -66.383114 
L 67.685607 -66.393643 
L 65.63602 -66.402887 
L 63.586433 -66.408995 
L 61.536847 -66.411072 
L 59.48726 -66.408534 
L 57.437673 -66.40064 
L 55.388086 -66.386524 
L 53.338499 -66.365723 
L 51.288913 -66.338797 
L 49.239326 -66.307598 
L 47.189739 -66.274965 
L 45.140152 -66.243981 
L 43.090566 -66.217156 
L 41.040979 -66.195901 
L 38.991392 -66.180437 
z
" style="stroke: #3f3f3f; stroke-width: 0.5"/>
    </defs>
    <g clip-path="url(#p61324cb14f)">
     <use xlink:href="#m60ceccb3c6" x="0" y="281.578375" style="fill: #e1812c; stroke: #3f3f3f; stroke-width: 0.5"/>
    </g>
   </g>
   <g id="patch_3">
    <path d="M -85027.656141 244.989937 
L -85027.656141 244.989937 
L -85027.656141 244.989937 
L -85027.656141 244.989937 
z
" clip-path="url(#p61324cb14f)" style="fill: #3274a1; stroke: #3f3f3f; stroke-width: 0.5; stroke-linejoin: miter"/>
   </g>
   <g id="patch_4">
    <path d="M -85027.656141 244.989937 
L -85027.656141 244.989937 
L -85027.656141 244.989937 
L -85027.656141 244.989937 
z
" clip-path="url(#p61324cb14f)" style="fill: #e1812c; stroke: #3f3f3f; stroke-width: 0.5; stroke-linejoin: miter"/>
   </g>
   <g id="matplotlib.axis_1">
    <g id="xtick_1">
     <g id="line2d_1">
      <defs>
       <path id="m7a4d22a129" d="M 0 0 
L 0 3.5 
" style="stroke: #000000; stroke-width: 0.8"/>
      </defs>
      <g>
       <use xlink:href="#m7a4d22a129" x="58.637827" y="244.989937" style="stroke: #000000; stroke-width: 0.8"/>
      </g>
     </g>
     <g id="text_1">
      <!-- 99.80 -->
      <g transform="translate(47.186577 258.068688) scale(0.08 -0.08)">
       <defs>
        <path id="DejaVuSerif-39" d="M 2994 2091 
Q 2784 1856 2512 1740 
Q 2241 1625 1900 1625 
Q 1206 1625 804 2044 
Q 403 2463 403 3188 
Q 403 3897 839 4323 
Q 1275 4750 2003 4750 
Q 2794 4750 3217 4161 
Q 3641 3572 3641 2478 
Q 3641 1253 3137 581 
Q 2634 -91 1722 -91 
Q 1475 -91 1203 -44 
Q 931 3 647 97 
L 647 872 
L 997 872 
Q 1038 556 1241 387 
Q 1444 219 1784 219 
Q 2391 219 2687 676 
Q 2984 1134 2994 2091 
z
M 1978 4441 
Q 1534 4441 1298 4117 
Q 1063 3794 1063 3188 
Q 1063 2581 1298 2256 
Q 1534 1931 1978 1931 
Q 2422 1931 2658 2245 
Q 2894 2559 2894 3150 
Q 2894 3772 2656 4106 
Q 2419 4441 1978 4441 
z
" transform="scale(0.015625)"/>
        <path id="DejaVuSerif-2e" d="M 603 325 
Q 603 500 722 622 
Q 841 744 1019 744 
Q 1191 744 1312 622 
Q 1434 500 1434 325 
Q 1434 153 1312 31 
Q 1191 -91 1019 -91 
Q 841 -91 722 29 
Q 603 150 603 325 
z
" transform="scale(0.015625)"/>
        <path id="DejaVuSerif-38" d="M 2981 1275 
Q 2981 1775 2732 2051 
Q 2484 2328 2034 2328 
Q 1584 2328 1336 2051 
Q 1088 1775 1088 1275 
Q 1088 772 1336 495 
Q 1584 219 2034 219 
Q 2484 219 2732 495 
Q 2981 772 2981 1275 
z
M 2853 3541 
Q 2853 3966 2637 4203 
Q 2422 4441 2034 4441 
Q 1650 4441 1433 4203 
Q 1216 3966 1216 3541 
Q 1216 3113 1433 2875 
Q 1650 2638 2034 2638 
Q 2422 2638 2637 2875 
Q 2853 3113 2853 3541 
z
M 2516 2484 
Q 3047 2413 3344 2092 
Q 3641 1772 3641 1275 
Q 3641 619 3225 264 
Q 2809 -91 2034 -91 
Q 1263 -91 845 264 
Q 428 619 428 1275 
Q 428 1772 725 2092 
Q 1022 2413 1556 2484 
Q 1084 2569 832 2842 
Q 581 3116 581 3541 
Q 581 4103 968 4426 
Q 1356 4750 2034 4750 
Q 2713 4750 3100 4426 
Q 3488 4103 3488 3541 
Q 3488 3116 3236 2842 
Q 2984 2569 2516 2484 
z
" transform="scale(0.015625)"/>
        <path id="DejaVuSerif-30" d="M 2034 219 
Q 2513 219 2750 744 
Q 2988 1269 2988 2328 
Q 2988 3391 2750 3916 
Q 2513 4441 2034 4441 
Q 1556 4441 1318 3916 
Q 1081 3391 1081 2328 
Q 1081 1269 1318 744 
Q 1556 219 2034 219 
z
M 2034 -91 
Q 1275 -91 848 546 
Q 422 1184 422 2328 
Q 422 3475 848 4112 
Q 1275 4750 2034 4750 
Q 2797 4750 3222 4112 
Q 3647 3475 3647 2328 
Q 3647 1184 3222 546 
Q 2797 -91 2034 -91 
z
" transform="scale(0.015625)"/>
       </defs>
       <use xlink:href="#DejaVuSerif-39"/>
       <use xlink:href="#DejaVuSerif-39" x="63.623047"/>
       <use xlink:href="#DejaVuSerif-2e" x="127.246094"/>
       <use xlink:href="#DejaVuSerif-38" x="159.033203"/>
       <use xlink:href="#DejaVuSerif-30" x="222.65625"/>
      </g>
     </g>
    </g>
    <g id="xtick_2">
     <g id="line2d_2">
      <g>
       <use xlink:href="#m7a4d22a129" x="101.266231" y="244.989937" style="stroke: #000000; stroke-width: 0.8"/>
      </g>
     </g>
     <g id="text_2">
      <!-- 99.85 -->
      <g transform="translate(89.814981 258.068688) scale(0.08 -0.08)">
       <defs>
        <path id="DejaVuSerif-35" d="M 3219 4666 
L 3219 4153 
L 1081 4153 
L 1081 2816 
Q 1244 2928 1461 2984 
Q 1678 3041 1947 3041 
Q 2703 3041 3140 2622 
Q 3578 2203 3578 1478 
Q 3578 738 3136 323 
Q 2694 -91 1894 -91 
Q 1572 -91 1234 -12 
Q 897 66 544 225 
L 544 1131 
L 897 1131 
Q 925 688 1179 453 
Q 1434 219 1894 219 
Q 2388 219 2653 544 
Q 2919 869 2919 1478 
Q 2919 2084 2655 2407 
Q 2391 2731 1894 2731 
Q 1613 2731 1398 2631 
Q 1184 2531 1019 2322 
L 750 2322 
L 750 4666 
L 3219 4666 
z
" transform="scale(0.015625)"/>
       </defs>
       <use xlink:href="#DejaVuSerif-39"/>
       <use xlink:href="#DejaVuSerif-39" x="63.623047"/>
       <use xlink:href="#DejaVuSerif-2e" x="127.246094"/>
       <use xlink:href="#DejaVuSerif-38" x="159.033203"/>
       <use xlink:href="#DejaVuSerif-35" x="222.65625"/>
      </g>
     </g>
    </g>
    <g id="xtick_3">
     <g id="line2d_3">
      <g>
       <use xlink:href="#m7a4d22a129" x="143.894635" y="244.989937" style="stroke: #000000; stroke-width: 0.8"/>
      </g>
     </g>
     <g id="text_3">
      <!-- 99.90 -->
      <g transform="translate(132.443385 258.068688) scale(0.08 -0.08)">
       <use xlink:href="#DejaVuSerif-39"/>
       <use xlink:href="#DejaVuSerif-39" x="63.623047"/>
       <use xlink:href="#DejaVuSerif-2e" x="127.246094"/>
       <use xlink:href="#DejaVuSerif-39" x="159.033203"/>
       <use xlink:href="#DejaVuSerif-30" x="222.65625"/>
      </g>
     </g>
    </g>
    <g id="xtick_4">
     <g id="line2d_4">
      <g>
       <use xlink:href="#m7a4d22a129" x="186.523039" y="244.989937" style="stroke: #000000; stroke-width: 0.8"/>
      </g>
     </g>
     <g id="text_4">
      <!-- 99.95 -->
      <g transform="translate(175.071789 258.068688) scale(0.08 -0.08)">
       <use xlink:href="#DejaVuSerif-39"/>
       <use xlink:href="#DejaVuSerif-39" x="63.623047"/>
       <use xlink:href="#DejaVuSerif-2e" x="127.246094"/>
       <use xlink:href="#DejaVuSerif-39" x="159.033203"/>
       <use xlink:href="#DejaVuSerif-35" x="222.65625"/>
      </g>
     </g>
    </g>
    <g id="xtick_5">
     <g id="line2d_5">
      <g>
       <use xlink:href="#m7a4d22a129" x="229.151443" y="244.989937" style="stroke: #000000; stroke-width: 0.8"/>
      </g>
     </g>
     <g id="text_5">
      <!-- 100.00 -->
      <g transform="translate(215.155193 258.068688) scale(0.08 -0.08)">
       <defs>
        <path id="DejaVuSerif-31" d="M 909 0 
L 909 331 
L 1722 331 
L 1722 4213 
L 781 3603 
L 781 4013 
L 1919 4750 
L 2350 4750 
L 2350 331 
L 3163 331 
L 3163 0 
L 909 0 
z
" transform="scale(0.015625)"/>
       </defs>
       <use xlink:href="#DejaVuSerif-31"/>
       <use xlink:href="#DejaVuSerif-30" x="63.623047"/>
       <use xlink:href="#DejaVuSerif-30" x="127.246094"/>
       <use xlink:href="#DejaVuSerif-2e" x="190.869141"/>
       <use xlink:href="#DejaVuSerif-30" x="222.65625"/>
       <use xlink:href="#DejaVuSerif-30" x="286.279297"/>
      </g>
     </g>
    </g>
    <g id="text_6">
     <!-- Error Percentage -->
     <g transform="translate(92.004688 271.934312) scale(0.11 -0.11)">
      <defs>
       <path id="DejaVuSerif-45" d="M 353 0 
L 353 331 
L 947 331 
L 947 4331 
L 353 4331 
L 353 4666 
L 4109 4666 
L 4109 3628 
L 3725 3628 
L 3725 4281 
L 1581 4281 
L 1581 2719 
L 3109 2719 
L 3109 3303 
L 3494 3303 
L 3494 1753 
L 3109 1753 
L 3109 2338 
L 1581 2338 
L 1581 384 
L 3775 384 
L 3775 1038 
L 4159 1038 
L 4159 0 
L 353 0 
z
" transform="scale(0.015625)"/>
       <path id="DejaVuSerif-72" d="M 3059 3328 
L 3059 2497 
L 2728 2497 
Q 2713 2744 2591 2866 
Q 2469 2988 2234 2988 
Q 1809 2988 1582 2694 
Q 1356 2400 1356 1850 
L 1356 331 
L 2022 331 
L 2022 0 
L 263 0 
L 263 331 
L 781 331 
L 781 2994 
L 231 2994 
L 231 3322 
L 1356 3322 
L 1356 2731 
Q 1525 3078 1790 3245 
Q 2056 3413 2438 3413 
Q 2578 3413 2733 3391 
Q 2888 3369 3059 3328 
z
" transform="scale(0.015625)"/>
       <path id="DejaVuSerif-6f" d="M 1925 219 
Q 2388 219 2623 584 
Q 2859 950 2859 1663 
Q 2859 2375 2623 2739 
Q 2388 3103 1925 3103 
Q 1463 3103 1227 2739 
Q 991 2375 991 1663 
Q 991 950 1228 584 
Q 1466 219 1925 219 
z
M 1925 -91 
Q 1200 -91 759 389 
Q 319 869 319 1663 
Q 319 2456 758 2934 
Q 1197 3413 1925 3413 
Q 2653 3413 3092 2934 
Q 3531 2456 3531 1663 
Q 3531 869 3092 389 
Q 2653 -91 1925 -91 
z
" transform="scale(0.015625)"/>
       <path id="DejaVuSerif-20" transform="scale(0.015625)"/>
       <path id="DejaVuSerif-50" d="M 1581 2375 
L 2406 2375 
Q 2872 2375 3115 2626 
Q 3359 2878 3359 3353 
Q 3359 3831 3115 4081 
Q 2872 4331 2406 4331 
L 1581 4331 
L 1581 2375 
z
M 353 0 
L 353 331 
L 947 331 
L 947 4331 
L 353 4331 
L 353 4666 
L 2559 4666 
Q 3259 4666 3668 4311 
Q 4078 3956 4078 3353 
Q 4078 2753 3668 2397 
Q 3259 2041 2559 2041 
L 1581 2041 
L 1581 331 
L 2303 331 
L 2303 0 
L 353 0 
z
" transform="scale(0.015625)"/>
       <path id="DejaVuSerif-65" d="M 3469 1600 
L 991 1600 
L 991 1575 
Q 991 903 1244 561 
Q 1497 219 1991 219 
Q 2369 219 2611 417 
Q 2853 616 2950 1006 
L 3413 1006 
Q 3275 459 2904 184 
Q 2534 -91 1931 -91 
Q 1203 -91 761 389 
Q 319 869 319 1663 
Q 319 2450 753 2931 
Q 1188 3413 1894 3413 
Q 2647 3413 3050 2948 
Q 3453 2484 3469 1600 
z
M 2791 1931 
Q 2772 2513 2545 2808 
Q 2319 3103 1894 3103 
Q 1497 3103 1269 2806 
Q 1041 2509 991 1931 
L 2791 1931 
z
" transform="scale(0.015625)"/>
       <path id="DejaVuSerif-63" d="M 3291 997 
Q 3169 466 2822 187 
Q 2475 -91 1925 -91 
Q 1200 -91 759 389 
Q 319 869 319 1663 
Q 319 2459 759 2936 
Q 1200 3413 1925 3413 
Q 2241 3413 2553 3339 
Q 2866 3266 3181 3116 
L 3181 2266 
L 2847 2266 
Q 2781 2703 2561 2903 
Q 2341 3103 1931 3103 
Q 1466 3103 1228 2742 
Q 991 2381 991 1663 
Q 991 944 1227 581 
Q 1463 219 1931 219 
Q 2303 219 2525 412 
Q 2747 606 2828 997 
L 3291 997 
z
" transform="scale(0.015625)"/>
       <path id="DejaVuSerif-6e" d="M 263 0 
L 263 331 
L 781 331 
L 781 2988 
L 231 2988 
L 231 3322 
L 1356 3322 
L 1356 2731 
Q 1516 3069 1770 3241 
Q 2025 3413 2363 3413 
Q 2913 3413 3172 3097 
Q 3431 2781 3431 2113 
L 3431 331 
L 3944 331 
L 3944 0 
L 2356 0 
L 2356 331 
L 2853 331 
L 2853 1931 
Q 2853 2541 2703 2767 
Q 2553 2994 2175 2994 
Q 1775 2994 1565 2701 
Q 1356 2409 1356 1850 
L 1356 331 
L 1856 331 
L 1856 0 
L 263 0 
z
" transform="scale(0.015625)"/>
       <path id="DejaVuSerif-74" d="M 691 2988 
L 184 2988 
L 184 3322 
L 691 3322 
L 691 4353 
L 1269 4353 
L 1269 3322 
L 2350 3322 
L 2350 2988 
L 1269 2988 
L 1269 878 
Q 1269 456 1350 337 
Q 1431 219 1650 219 
Q 1875 219 1978 351 
Q 2081 484 2088 781 
L 2522 781 
Q 2497 328 2275 118 
Q 2053 -91 1600 -91 
Q 1103 -91 897 129 
Q 691 350 691 878 
L 691 2988 
z
" transform="scale(0.015625)"/>
       <path id="DejaVuSerif-61" d="M 2547 1044 
L 2547 1747 
L 1806 1747 
Q 1378 1747 1168 1562 
Q 959 1378 959 997 
Q 959 650 1171 447 
Q 1384 244 1747 244 
Q 2106 244 2326 466 
Q 2547 688 2547 1044 
z
M 3122 2075 
L 3122 331 
L 3634 331 
L 3634 0 
L 2547 0 
L 2547 359 
Q 2356 128 2106 18 
Q 1856 -91 1522 -91 
Q 969 -91 644 203 
Q 319 497 319 997 
Q 319 1513 691 1797 
Q 1063 2081 1741 2081 
L 2547 2081 
L 2547 2309 
Q 2547 2688 2317 2895 
Q 2088 3103 1672 3103 
Q 1328 3103 1125 2947 
Q 922 2791 872 2484 
L 575 2484 
L 575 3156 
Q 875 3284 1158 3348 
Q 1441 3413 1709 3413 
Q 2400 3413 2761 3070 
Q 3122 2728 3122 2075 
z
" transform="scale(0.015625)"/>
       <path id="DejaVuSerif-67" d="M 3359 2988 
L 3359 72 
Q 3359 -644 2965 -1033 
Q 2572 -1422 1844 -1422 
Q 1516 -1422 1216 -1362 
Q 916 -1303 641 -1184 
L 641 -488 
L 941 -488 
Q 997 -813 1206 -963 
Q 1416 -1113 1806 -1113 
Q 2313 -1113 2548 -827 
Q 2784 -541 2784 72 
L 2784 519 
Q 2616 206 2355 57 
Q 2094 -91 1709 -91 
Q 1097 -91 708 395 
Q 319 881 319 1663 
Q 319 2444 706 2928 
Q 1094 3413 1709 3413 
Q 2094 3413 2355 3264 
Q 2616 3116 2784 2803 
L 2784 3322 
L 3909 3322 
L 3909 2988 
L 3359 2988 
z
M 2784 1825 
Q 2784 2422 2554 2737 
Q 2325 3053 1888 3053 
Q 1444 3053 1217 2703 
Q 991 2353 991 1663 
Q 991 975 1217 622 
Q 1444 269 1888 269 
Q 2325 269 2554 583 
Q 2784 897 2784 1497 
L 2784 1825 
z
" transform="scale(0.015625)"/>
      </defs>
      <use xlink:href="#DejaVuSerif-45"/>
      <use xlink:href="#DejaVuSerif-72" x="72.998047"/>
      <use xlink:href="#DejaVuSerif-72" x="120.800781"/>
      <use xlink:href="#DejaVuSerif-6f" x="168.603516"/>
      <use xlink:href="#DejaVuSerif-72" x="228.808594"/>
      <use xlink:href="#DejaVuSerif-20" x="276.611328"/>
      <use xlink:href="#DejaVuSerif-50" x="308.398438"/>
      <use xlink:href="#DejaVuSerif-65" x="371.183594"/>
      <use xlink:href="#DejaVuSerif-72" x="430.363281"/>
      <use xlink:href="#DejaVuSerif-63" x="478.166016"/>
      <use xlink:href="#DejaVuSerif-65" x="534.171875"/>
      <use xlink:href="#DejaVuSerif-6e" x="593.351562"/>
      <use xlink:href="#DejaVuSerif-74" x="657.755859"/>
      <use xlink:href="#DejaVuSerif-61" x="697.941406"/>
      <use xlink:href="#DejaVuSerif-67" x="757.560547"/>
      <use xlink:href="#DejaVuSerif-65" x="821.574219"/>
     </g>
    </g>
   </g>
   <g id="matplotlib.axis_2">
    <g id="ytick_1">
     <g id="line2d_6">
      <defs>
       <path id="m37abd94acd" d="M 0 0 
L -3.5 0 
" style="stroke: #000000; stroke-width: 0.8"/>
      </defs>
      <g>
       <use xlink:href="#m37abd94acd" x="28.845938" y="244.989937" style="stroke: #000000; stroke-width: 0.8"/>
      </g>
     </g>
    </g>
    <g id="text_7">
     <!-- Density -->
     <g transform="translate(15.401875 155.216187) rotate(-90) scale(0.11 -0.11)">
      <defs>
       <path id="DejaVuSerif-44" d="M 1581 331 
L 2163 331 
Q 3072 331 3558 850 
Q 4044 1369 4044 2338 
Q 4044 3306 3559 3818 
Q 3075 4331 2163 4331 
L 1581 4331 
L 1581 331 
z
M 353 0 
L 353 331 
L 947 331 
L 947 4331 
L 353 4331 
L 353 4666 
L 2209 4666 
Q 3416 4666 4089 4050 
Q 4763 3434 4763 2338 
Q 4763 1238 4088 619 
Q 3413 0 2209 0 
L 353 0 
z
" transform="scale(0.015625)"/>
       <path id="DejaVuSerif-73" d="M 359 184 
L 359 959 
L 691 959 
Q 703 588 923 403 
Q 1144 219 1575 219 
Q 1963 219 2166 364 
Q 2369 509 2369 788 
Q 2369 1006 2220 1140 
Q 2072 1275 1594 1428 
L 1178 1569 
Q 750 1706 558 1912 
Q 366 2119 366 2438 
Q 366 2894 700 3153 
Q 1034 3413 1625 3413 
Q 1888 3413 2178 3344 
Q 2469 3275 2778 3144 
L 2778 2419 
L 2447 2419 
Q 2434 2741 2221 2922 
Q 2009 3103 1644 3103 
Q 1281 3103 1095 2975 
Q 909 2847 909 2591 
Q 909 2381 1050 2254 
Q 1191 2128 1613 1997 
L 2069 1856 
Q 2541 1709 2748 1489 
Q 2956 1269 2956 922 
Q 2956 450 2595 179 
Q 2234 -91 1600 -91 
Q 1278 -91 972 -22 
Q 666 47 359 184 
z
" transform="scale(0.015625)"/>
       <path id="DejaVuSerif-69" d="M 622 4353 
Q 622 4497 726 4603 
Q 831 4709 978 4709 
Q 1122 4709 1226 4603 
Q 1331 4497 1331 4353 
Q 1331 4206 1228 4103 
Q 1125 4000 978 4000 
Q 831 4000 726 4103 
Q 622 4206 622 4353 
z
M 1356 331 
L 1900 331 
L 1900 0 
L 231 0 
L 231 331 
L 781 331 
L 781 2988 
L 231 2988 
L 231 3322 
L 1356 3322 
L 1356 331 
z
" transform="scale(0.015625)"/>
       <path id="DejaVuSerif-79" d="M 1381 -609 
L 1600 -56 
L 359 2988 
L -19 2988 
L -19 3322 
L 1509 3322 
L 1509 2988 
L 978 2988 
L 1913 703 
L 2847 2988 
L 2350 2988 
L 2350 3322 
L 3597 3322 
L 3597 2988 
L 3225 2988 
L 1703 -750 
Q 1547 -1138 1356 -1280 
Q 1166 -1422 819 -1422 
Q 672 -1422 517 -1397 
Q 363 -1372 206 -1325 
L 206 -691 
L 500 -691 
Q 519 -903 608 -995 
Q 697 -1088 884 -1088 
Q 1056 -1088 1161 -992 
Q 1266 -897 1381 -609 
z
" transform="scale(0.015625)"/>
      </defs>
      <use xlink:href="#DejaVuSerif-44"/>
      <use xlink:href="#DejaVuSerif-65" x="80.175781"/>
      <use xlink:href="#DejaVuSerif-6e" x="139.355469"/>
      <use xlink:href="#DejaVuSerif-73" x="203.759766"/>
      <use xlink:href="#DejaVuSerif-69" x="255.078125"/>
      <use xlink:href="#DejaVuSerif-74" x="287.060547"/>
      <use xlink:href="#DejaVuSerif-79" x="327.246094"/>
     </g>
    </g>
   </g>
   <g id="line2d_7">
    <path d="M 184.908209 274.557937 
L 225.326603 274.557937 
" clip-path="url(#p61324cb14f)" style="fill: none; stroke: #3f3f3f; stroke-width: 0.75; stroke-linecap: square"/>
   </g>
   <g id="line2d_8">
    <path d="M 203.188115 274.557937 
L 215.401561 274.557937 
" clip-path="url(#p61324cb14f)" style="fill: none; stroke: #3f3f3f; stroke-width: 2.25; stroke-linecap: square"/>
   </g>
   <g id="line2d_9">
    <path d="M 209.742185 274.557937 
" clip-path="url(#p61324cb14f)" style="fill: none; stroke: #3f3f3f; stroke-width: 20; stroke-linecap: square"/>
    <defs>
     <path id="md9ef2a7b09" d="M 0 0.9375 
L 0 -0.9375 
" style="stroke: #ffffff; stroke-width: 0.45"/>
    </defs>
    <g clip-path="url(#p61324cb14f)">
     <use xlink:href="#md9ef2a7b09" x="209.742185" y="274.557937" style="fill: #ffffff; stroke: #ffffff; stroke-width: 0.45"/>
    </g>
   </g>
   <g id="line2d_10">
    <path d="M 119.992413 215.421937 
L 226.330629 215.421937 
" clip-path="url(#p61324cb14f)" style="fill: none; stroke: #3f3f3f; stroke-width: 0.75; stroke-linecap: square"/>
   </g>
   <g id="line2d_11">
    <path d="M 167.811877 215.421937 
L 201.632377 215.421937 
" clip-path="url(#p61324cb14f)" style="fill: none; stroke: #3f3f3f; stroke-width: 2.25; stroke-linecap: square"/>
   </g>
   <g id="line2d_12">
    <path d="M 187.596559 215.421937 
" clip-path="url(#p61324cb14f)" style="fill: none; stroke: #3f3f3f; stroke-width: 20; stroke-linecap: square"/>
    <g clip-path="url(#p61324cb14f)">
     <use xlink:href="#md9ef2a7b09" x="187.596559" y="215.421937" style="fill: #ffffff; stroke: #ffffff; stroke-width: 0.45"/>
    </g>
   </g>
   <g id="line2d_13">
    <path d="M 181.778976 244.989937 
L 181.778976 23.229938 
" clip-path="url(#p61324cb14f)" style="fill: none; stroke-dasharray: 3.7,1.6; stroke-dashoffset: 0; stroke: #ff7f0e"/>
   </g>
   <g id="line2d_14">
    <path d="M 208.449041 244.989937 
L 208.449041 23.229938 
" clip-path="url(#p61324cb14f)" style="fill: none; stroke-dasharray: 3.7,1.6; stroke-dashoffset: 0; stroke: #1f77b4"/>
   </g>
   <g id="patch_5">
    <path d="M 28.845938 244.989937 
L 28.845938 23.229938 
" style="fill: none; stroke: #000000; stroke-width: 0.8; stroke-linejoin: miter; stroke-linecap: square"/>
   </g>
   <g id="patch_6">
    <path d="M 252.045937 244.989937 
L 252.045937 23.229938 
" style="fill: none; stroke: #000000; stroke-width: 0.8; stroke-linejoin: miter; stroke-linecap: square"/>
   </g>
   <g id="patch_7">
    <path d="M 28.845937 244.989937 
L 252.045937 244.989937 
" style="fill: none; stroke: #000000; stroke-width: 0.8; stroke-linejoin: miter; stroke-linecap: square"/>
   </g>
   <g id="patch_8">
    <path d="M 28.845937 23.229938 
L 252.045937 23.229938 
" style="fill: none; stroke: #000000; stroke-width: 0.8; stroke-linejoin: miter; stroke-linecap: square"/>
   </g>
   <g id="text_8">
    <!-- Nonzero $x_{000}, x_{011}, x_{110}$ -->
    <g transform="translate(64.347938 17.229938) scale(0.132 -0.132)">
     <defs>
      <path id="DejaVuSerif-4e" d="M 313 0 
L 313 331 
L 941 331 
L 941 4331 
L 313 4331 
L 313 4666 
L 1509 4666 
L 4306 984 
L 4306 4331 
L 3681 4331 
L 3681 4666 
L 5319 4666 
L 5319 4331 
L 4691 4331 
L 4691 -91 
L 4313 -91 
L 1325 3841 
L 1325 331 
L 1953 331 
L 1953 0 
L 313 0 
z
" transform="scale(0.015625)"/>
      <path id="DejaVuSerif-7a" d="M 256 0 
L 256 269 
L 2338 2988 
L 691 2988 
L 691 2413 
L 359 2413 
L 359 3322 
L 3078 3322 
L 3078 3053 
L 997 331 
L 2803 331 
L 2803 934 
L 3138 934 
L 3138 0 
L 256 0 
z
" transform="scale(0.015625)"/>
      <path id="DejaVuSans-Oblique-78" d="M 3841 3500 
L 2234 1784 
L 3219 0 
L 2559 0 
L 1819 1388 
L 531 0 
L -166 0 
L 1556 1844 
L 641 3500 
L 1300 3500 
L 1972 2234 
L 3144 3500 
L 3841 3500 
z
" transform="scale(0.015625)"/>
      <path id="DejaVuSans-30" d="M 2034 4250 
Q 1547 4250 1301 3770 
Q 1056 3291 1056 2328 
Q 1056 1369 1301 889 
Q 1547 409 2034 409 
Q 2525 409 2770 889 
Q 3016 1369 3016 2328 
Q 3016 3291 2770 3770 
Q 2525 4250 2034 4250 
z
M 2034 4750 
Q 2819 4750 3233 4129 
Q 3647 3509 3647 2328 
Q 3647 1150 3233 529 
Q 2819 -91 2034 -91 
Q 1250 -91 836 529 
Q 422 1150 422 2328 
Q 422 3509 836 4129 
Q 1250 4750 2034 4750 
z
" transform="scale(0.015625)"/>
      <path id="DejaVuSans-2c" d="M 750 794 
L 1409 794 
L 1409 256 
L 897 -744 
L 494 -744 
L 750 256 
L 750 794 
z
" transform="scale(0.015625)"/>
      <path id="DejaVuSans-31" d="M 794 531 
L 1825 531 
L 1825 4091 
L 703 3866 
L 703 4441 
L 1819 4666 
L 2450 4666 
L 2450 531 
L 3481 531 
L 3481 0 
L 794 0 
L 794 531 
z
" transform="scale(0.015625)"/>
     </defs>
     <use xlink:href="#DejaVuSerif-4e" transform="translate(0 0.09375)"/>
     <use xlink:href="#DejaVuSerif-6f" transform="translate(87.5 0.09375)"/>
     <use xlink:href="#DejaVuSerif-6e" transform="translate(147.705078 0.09375)"/>
     <use xlink:href="#DejaVuSerif-7a" transform="translate(212.109375 0.09375)"/>
     <use xlink:href="#DejaVuSerif-65" transform="translate(264.794922 0.09375)"/>
     <use xlink:href="#DejaVuSerif-72" transform="translate(323.974609 0.09375)"/>
     <use xlink:href="#DejaVuSerif-6f" transform="translate(371.777344 0.09375)"/>
     <use xlink:href="#DejaVuSerif-20" transform="translate(431.982422 0.09375)"/>
     <use xlink:href="#DejaVuSans-Oblique-78" transform="translate(463.769531 0.09375)"/>
     <use xlink:href="#DejaVuSans-30" transform="translate(522.949219 -16.3125) scale(0.7)"/>
     <use xlink:href="#DejaVuSans-30" transform="translate(567.485352 -16.3125) scale(0.7)"/>
     <use xlink:href="#DejaVuSans-30" transform="translate(612.021484 -16.3125) scale(0.7)"/>
     <use xlink:href="#DejaVuSans-2c" transform="translate(659.291992 0.09375)"/>
     <use xlink:href="#DejaVuSans-Oblique-78" transform="translate(710.561523 0.09375)"/>
     <use xlink:href="#DejaVuSans-30" transform="translate(769.741211 -16.3125) scale(0.7)"/>
     <use xlink:href="#DejaVuSans-31" transform="translate(814.277344 -16.3125) scale(0.7)"/>
     <use xlink:href="#DejaVuSans-31" transform="translate(858.813477 -16.3125) scale(0.7)"/>
     <use xlink:href="#DejaVuSans-2c" transform="translate(906.083984 0.09375)"/>
     <use xlink:href="#DejaVuSans-Oblique-78" transform="translate(957.353516 0.09375)"/>
     <use xlink:href="#DejaVuSans-31" transform="translate(1016.533203 -16.3125) scale(0.7)"/>
     <use xlink:href="#DejaVuSans-31" transform="translate(1061.069336 -16.3125) scale(0.7)"/>
     <use xlink:href="#DejaVuSans-30" transform="translate(1105.605469 -16.3125) scale(0.7)"/>
    </g>
   </g>
   <g id="legend_1">
    <g id="patch_9">
     <path d="M 34.445938 67.760875 
L 106.780938 67.760875 
Q 108.380938 67.760875 108.380938 66.160875 
L 108.380938 28.829937 
Q 108.380938 27.229938 106.780938 27.229938 
L 34.445938 27.229938 
Q 32.845938 27.229938 32.845938 28.829937 
L 32.845938 66.160875 
Q 32.845938 67.760875 34.445938 67.760875 
z
" style="fill: #ffffff; opacity: 0.8; stroke: #cccccc; stroke-linejoin: miter"/>
    </g>
    <g id="text_9">
     <!-- Randomized -->
     <g transform="translate(36.045938 38.788219) scale(0.11 -0.11)">
      <defs>
       <path id="DejaVuSerif-52" d="M 3066 2316 
Q 3284 2256 3442 2114 
Q 3600 1972 3725 1716 
L 4403 331 
L 4972 331 
L 4972 0 
L 3872 0 
L 3144 1484 
Q 2934 1916 2759 2042 
Q 2584 2169 2278 2169 
L 1581 2169 
L 1581 331 
L 2241 331 
L 2241 0 
L 353 0 
L 353 331 
L 947 331 
L 947 4331 
L 353 4331 
L 353 4666 
L 2719 4666 
Q 3400 4666 3770 4341 
Q 4141 4016 4141 3419 
Q 4141 2938 3870 2661 
Q 3600 2384 3066 2316 
z
M 1581 2503 
L 2503 2503 
Q 2975 2503 3200 2726 
Q 3425 2950 3425 3419 
Q 3425 3888 3200 4109 
Q 2975 4331 2503 4331 
L 1581 4331 
L 1581 2503 
z
" transform="scale(0.015625)"/>
       <path id="DejaVuSerif-64" d="M 3359 331 
L 3909 331 
L 3909 0 
L 2784 0 
L 2784 519 
Q 2616 206 2355 57 
Q 2094 -91 1709 -91 
Q 1097 -91 708 395 
Q 319 881 319 1663 
Q 319 2444 706 2928 
Q 1094 3413 1709 3413 
Q 2094 3413 2355 3264 
Q 2616 3116 2784 2803 
L 2784 4531 
L 2241 4531 
L 2241 4863 
L 3359 4863 
L 3359 331 
z
M 2784 1497 
L 2784 1825 
Q 2784 2422 2554 2737 
Q 2325 3053 1888 3053 
Q 1444 3053 1217 2703 
Q 991 2353 991 1663 
Q 991 975 1217 622 
Q 1444 269 1888 269 
Q 2325 269 2554 583 
Q 2784 897 2784 1497 
z
" transform="scale(0.015625)"/>
       <path id="DejaVuSerif-6d" d="M 3316 2675 
Q 3481 3041 3739 3227 
Q 3997 3413 4341 3413 
Q 4863 3413 5119 3089 
Q 5375 2766 5375 2113 
L 5375 331 
L 5894 331 
L 5894 0 
L 4300 0 
L 4300 331 
L 4800 331 
L 4800 2047 
Q 4800 2556 4650 2772 
Q 4500 2988 4153 2988 
Q 3769 2988 3567 2697 
Q 3366 2406 3366 1850 
L 3366 331 
L 3866 331 
L 3866 0 
L 2291 0 
L 2291 331 
L 2791 331 
L 2791 2069 
Q 2791 2566 2641 2777 
Q 2491 2988 2144 2988 
Q 1759 2988 1557 2697 
Q 1356 2406 1356 1850 
L 1356 331 
L 1856 331 
L 1856 0 
L 263 0 
L 263 331 
L 781 331 
L 781 2994 
L 231 2994 
L 231 3322 
L 1356 3322 
L 1356 2731 
Q 1516 3063 1762 3238 
Q 2009 3413 2322 3413 
Q 2709 3413 2968 3220 
Q 3228 3028 3316 2675 
z
" transform="scale(0.015625)"/>
      </defs>
      <use xlink:href="#DejaVuSerif-52"/>
      <use xlink:href="#DejaVuSerif-61" x="77.542969"/>
      <use xlink:href="#DejaVuSerif-6e" x="137.162109"/>
      <use xlink:href="#DejaVuSerif-64" x="201.566406"/>
      <use xlink:href="#DejaVuSerif-6f" x="265.580078"/>
      <use xlink:href="#DejaVuSerif-6d" x="325.785156"/>
      <use xlink:href="#DejaVuSerif-69" x="420.609375"/>
      <use xlink:href="#DejaVuSerif-7a" x="452.591797"/>
      <use xlink:href="#DejaVuSerif-65" x="505.277344"/>
      <use xlink:href="#DejaVuSerif-64" x="564.457031"/>
     </g>
    </g>
    <g id="patch_10">
     <path d="M 48.823438 51.154625 
L 64.823438 51.154625 
L 64.823438 45.554625 
L 48.823438 45.554625 
z
" style="fill: #3274a1; stroke: #3f3f3f; stroke-width: 0.5; stroke-linejoin: miter"/>
    </g>
    <g id="text_10">
     <!-- False -->
     <g transform="translate(71.223438 51.154625) scale(0.08 -0.08)">
      <defs>
       <path id="DejaVuSerif-46" d="M 353 0 
L 353 331 
L 947 331 
L 947 4331 
L 353 4331 
L 353 4666 
L 4172 4666 
L 4172 3628 
L 3788 3628 
L 3788 4281 
L 1581 4281 
L 1581 2719 
L 3175 2719 
L 3175 3303 
L 3559 3303 
L 3559 1753 
L 3175 1753 
L 3175 2338 
L 1581 2338 
L 1581 331 
L 2328 331 
L 2328 0 
L 353 0 
z
" transform="scale(0.015625)"/>
       <path id="DejaVuSerif-6c" d="M 1313 331 
L 1856 331 
L 1856 0 
L 184 0 
L 184 331 
L 738 331 
L 738 4531 
L 184 4531 
L 184 4863 
L 1313 4863 
L 1313 331 
z
" transform="scale(0.015625)"/>
      </defs>
      <use xlink:href="#DejaVuSerif-46"/>
      <use xlink:href="#DejaVuSerif-61" x="62.634766"/>
      <use xlink:href="#DejaVuSerif-6c" x="122.253906"/>
      <use xlink:href="#DejaVuSerif-73" x="154.236328"/>
      <use xlink:href="#DejaVuSerif-65" x="205.554688"/>
     </g>
    </g>
    <g id="patch_11">
     <path d="M 48.823438 62.897125 
L 64.823438 62.897125 
L 64.823438 57.297125 
L 48.823438 57.297125 
z
" style="fill: #e1812c; stroke: #3f3f3f; stroke-width: 0.5; stroke-linejoin: miter"/>
    </g>
    <g id="text_11">
     <!-- True -->
     <g transform="translate(71.223438 62.897125) scale(0.08 -0.08)">
      <defs>
       <path id="DejaVuSerif-54" d="M 1222 0 
L 1222 331 
L 1819 331 
L 1819 4294 
L 447 4294 
L 447 3566 
L 63 3566 
L 63 4666 
L 4206 4666 
L 4206 3566 
L 3822 3566 
L 3822 4294 
L 2450 4294 
L 2450 331 
L 3047 331 
L 3047 0 
L 1222 0 
z
" transform="scale(0.015625)"/>
       <path id="DejaVuSerif-75" d="M 2266 3322 
L 3341 3322 
L 3341 331 
L 3884 331 
L 3884 0 
L 2766 0 
L 2766 588 
Q 2606 256 2353 82 
Q 2100 -91 1766 -91 
Q 1213 -91 952 223 
Q 691 538 691 1209 
L 691 2988 
L 172 2988 
L 172 3322 
L 1269 3322 
L 1269 1388 
Q 1269 781 1417 556 
Q 1566 331 1947 331 
Q 2347 331 2556 625 
Q 2766 919 2766 1478 
L 2766 2988 
L 2266 2988 
L 2266 3322 
z
" transform="scale(0.015625)"/>
      </defs>
      <use xlink:href="#DejaVuSerif-54"/>
      <use xlink:href="#DejaVuSerif-72" x="66.699219"/>
      <use xlink:href="#DejaVuSerif-75" x="114.501953"/>
      <use xlink:href="#DejaVuSerif-65" x="178.90625"/>
     </g>
    </g>
   </g>
  </g>
 </g>
 <defs>
  <clipPath id="p61324cb14f">
   <rect x="28.845938" y="23.229938" width="223.2" height="221.76"/>
  </clipPath>
 </defs>
</svg>
