<?xml version="1.0" encoding="utf-8" standalone="no"?>
<!DOCTYPE svg PUBLIC "-//W3C//DTD SVG 1.1//EN"
  "http://www.w3.org/Graphics/SVG/1.1/DTD/svg11.dtd">
<svg xmlns:xlink="http://www.w3.org/1999/xlink" width="259.245938pt" height="281.578375pt" viewBox="0 0 259.245938 281.578375" xmlns="http://www.w3.org/2000/svg" version="1.1">
 <metadata>
  <rdf:RDF xmlns:dc="http://purl.org/dc/elements/1.1/" xmlns:cc="http://creativecommons.org/ns#" xmlns:rdf="http://www.w3.org/1999/02/22-rdf-syntax-ns#">
   <cc:Work>
    <dc:type rdf:resource="http://purl.org/dc/dcmitype/StillImage"/>
    <dc:date>2024-03-11T17:48:44.278134</dc:date>
    <dc:format>image/svg+xml</dc:format>
    <dc:creator>
     <cc:Agent>
      <dc:title>Matplotlib v3.7.2, https://matplotlib.org/</dc:title>
     </cc:Agent>
    </dc:creator>
   </cc:Work>
  </rdf:RDF>
 </metadata>
 <defs>
  <style type="text/css">*{stroke-linejoin: round; stroke-linecap: butt}</style>
 </defs>
 <g id="figure_1">
  <g id="patch_1">
   <path d="M 0 281.578375 
L 259.245938 281.578375 
L 259.245938 0 
L 0 0 
z
" style="fill: #ffffff"/>
  </g>
  <g id="axes_1">
   <g id="patch_2">
    <path d="M 28.845938 244.989937 
L 252.045937 244.989937 
L 252.045937 23.229938 
L 28.845938 23.229938 
z
" style="fill: #ffffff"/>
   </g>
   <g id="PolyCollection_1">
    <defs>
     <path id="m075a46deb7" d="M 235.300247 -7.045781 
L 235.300247 -6.995094 
L 235.302473 -6.978413 
L 235.304699 -6.955695 
L 235.306925 -6.92777 
L 235.309151 -6.897204 
L 235.311377 -6.86816 
L 235.313603 -6.845562 
L 235.31583 -6.833696 
L 235.318056 -6.834768 
L 235.320282 -6.847978 
L 235.322508 -6.869514 
L 235.324734 -6.893435 
L 235.32696 -6.913024 
L 235.329186 -6.922103 
L 235.331413 -6.915988 
L 235.333639 -6.892035 
L 235.335865 -6.849923 
L 235.338091 -6.791796 
L 235.340317 -6.722214 
L 235.342543 -6.647763 
L 235.344769 -6.576134 
L 235.346996 -6.514691 
L 235.349222 -6.468746 
L 235.351448 -6.43999 
L 235.353674 -6.425583 
L 235.3559 -6.418349 
L 235.358126 -6.408182 
L 235.360353 -6.384466 
L 235.362579 -6.338935 
L 235.364805 -6.268175 
L 235.367031 -6.174956 
L 235.369257 -6.067781 
L 235.371483 -5.958532 
L 235.373709 -5.858761 
L 235.375936 -5.775747 
L 235.378162 -5.709605 
L 235.380388 -5.652392 
L 235.382614 -5.589426 
L 235.38484 -5.50242 
L 235.387066 -5.373547 
L 235.389292 -5.189466 
L 235.391519 -4.944235 
L 235.393745 -4.64022 
L 235.395971 -4.286431 
L 235.398197 -3.894517 
L 235.400423 -3.473628 
L 235.402649 -3.026065 
L 235.404875 -2.545601 
L 235.407102 -2.019329 
L 235.409328 -1.432376 
L 235.411554 -0.773564 
L 235.41378 -0.039837 
L 235.416006 0.762083 
L 235.418232 1.61716 
L 235.420459 2.505891 
L 235.422685 3.408964 
L 235.424911 4.310883 
L 235.427137 5.201146 
L 235.429363 6.072922 
L 235.431589 6.920794 
L 235.433815 7.740052 
L 235.436042 8.529217 
L 235.438268 9.295266 
L 235.440494 10.058732 
L 235.44272 10.854819 
L 235.444946 11.72775 
L 235.447172 12.718237 
L 235.449398 13.847421 
L 235.451625 15.103348 
L 235.453851 16.436466 
L 235.456077 17.76787 
L 235.458303 19.008598 
L 235.460529 20.082998 
L 235.462755 20.946925 
L 235.464981 21.593811 
L 235.467208 22.047031 
L 235.469434 22.342422 
L 235.47166 22.507939 
L 235.473886 22.547562 
L 235.476112 22.434571 
L 235.478338 22.116061 
L 235.480564 21.52685 
L 235.482791 20.607723 
L 235.485017 19.321732 
L 235.487243 17.663855 
L 235.489469 15.662856 
L 235.491695 13.377447 
L 235.493921 10.889826 
L 235.496148 8.298446 
L 235.498374 5.710062 
L 235.5006 3.230495 
L 235.502826 0.954396 
L 235.505052 -1.044502 
L 235.507278 -2.720546 
L 235.509504 -4.059091 
L 235.511731 -5.074585 
L 235.513957 -5.804371 
L 235.516183 -6.299773 
L 235.518409 -6.616575 
L 235.520635 -6.80695 
L 235.520635 -7.233925 
L 235.520635 -7.233925 
L 235.518409 -7.4243 
L 235.516183 -7.741102 
L 235.513957 -8.236504 
L 235.511731 -8.96629 
L 235.509504 -9.981784 
L 235.507278 -11.320329 
L 235.505052 -12.996373 
L 235.502826 -14.995271 
L 235.5006 -17.27137 
L 235.498374 -19.750937 
L 235.496148 -22.339321 
L 235.493921 -24.930701 
L 235.491695 -27.418322 
L 235.489469 -29.703731 
L 235.487243 -31.70473 
L 235.485017 -33.362607 
L 235.482791 -34.648598 
L 235.480564 -35.567725 
L 235.478338 -36.156936 
L 235.476112 -36.475446 
L 235.473886 -36.588437 
L 235.47166 -36.548814 
L 235.469434 -36.383297 
L 235.467208 -36.087906 
L 235.464981 -35.634686 
L 235.462755 -34.9878 
L 235.460529 -34.123873 
L 235.458303 -33.049473 
L 235.456077 -31.808745 
L 235.453851 -30.477341 
L 235.451625 -29.144223 
L 235.449398 -27.888296 
L 235.447172 -26.759112 
L 235.444946 -25.768625 
L 235.44272 -24.895694 
L 235.440494 -24.099607 
L 235.438268 -23.336141 
L 235.436042 -22.570092 
L 235.433815 -21.780927 
L 235.431589 -20.961669 
L 235.429363 -20.113797 
L 235.427137 -19.242021 
L 235.424911 -18.351758 
L 235.422685 -17.449839 
L 235.420459 -16.546766 
L 235.418232 -15.658035 
L 235.416006 -14.802958 
L 235.41378 -14.001038 
L 235.411554 -13.267311 
L 235.409328 -12.608499 
L 235.407102 -12.021546 
L 235.404875 -11.495274 
L 235.402649 -11.01481 
L 235.400423 -10.567247 
L 235.398197 -10.146358 
L 235.395971 -9.754444 
L 235.393745 -9.400655 
L 235.391519 -9.09664 
L 235.389292 -8.851409 
L 235.387066 -8.667328 
L 235.38484 -8.538455 
L 235.382614 -8.451449 
L 235.380388 -8.388483 
L 235.378162 -8.33127 
L 235.375936 -8.265128 
L 235.373709 -8.182114 
L 235.371483 -8.082343 
L 235.369257 -7.973094 
L 235.367031 -7.865919 
L 235.364805 -7.7727 
L 235.362579 -7.70194 
L 235.360353 -7.656409 
L 235.358126 -7.632693 
L 235.3559 -7.622526 
L 235.353674 -7.615292 
L 235.351448 -7.600885 
L 235.349222 -7.572129 
L 235.346996 -7.526184 
L 235.344769 -7.464741 
L 235.342543 -7.393112 
L 235.340317 -7.318661 
L 235.338091 -7.249079 
L 235.335865 -7.190952 
L 235.333639 -7.14884 
L 235.331413 -7.124887 
L 235.329186 -7.118772 
L 235.32696 -7.127851 
L 235.324734 -7.14744 
L 235.322508 -7.171361 
L 235.320282 -7.192897 
L 235.318056 -7.206107 
L 235.31583 -7.207179 
L 235.313603 -7.195313 
L 235.311377 -7.172715 
L 235.309151 -7.143671 
L 235.306925 -7.113105 
L 235.304699 -7.08518 
L 235.302473 -7.062462 
L 235.300247 -7.045781 
z
" style="stroke: #3f3f3f; stroke-width: 0.5"/>
    </defs>
    <g clip-path="url(#pbac712565a)">
     <use xlink:href="#m075a46deb7" x="0" y="281.578375" style="fill: #3274a1; stroke: #3f3f3f; stroke-width: 0.5"/>
    </g>
   </g>
   <g id="PolyCollection_2">
    <defs>
     <path id="m1eab41a2aa" d="M 38.991392 -66.164433 
L 38.991392 -66.148442 
L 41.040979 -66.13297 
L 43.090566 -66.110773 
L 45.140152 -66.097534 
L 47.189739 -66.106068 
L 49.239326 -66.127885 
L 51.288913 -66.145708 
L 53.338499 -66.153765 
L 55.388086 -66.155996 
L 57.437673 -66.156389 
L 59.48726 -66.156432 
L 61.536847 -66.156405 
L 63.586433 -66.156126 
L 65.63602 -66.154412 
L 67.685607 -66.147718 
L 69.735194 -66.131553 
L 71.78478 -66.109359 
L 73.834367 -66.097393 
L 75.883954 -66.107348 
L 77.933541 -66.129382 
L 79.983128 -66.146552 
L 82.032714 -66.154043 
L 84.082301 -66.156053 
L 86.131888 -66.156397 
L 88.181475 -66.156435 
L 90.231061 -66.156437 
L 92.280648 -66.156437 
L 94.330235 -66.156437 
L 96.379822 -66.156437 
L 98.429409 -66.156437 
L 100.478995 -66.156438 
L 102.528582 -66.156438 
L 104.578169 -66.156438 
L 106.627756 -66.156438 
L 108.677342 -66.156438 
L 110.726929 -66.156438 
L 112.776516 -66.156438 
L 114.826103 -66.156438 
L 116.87569 -66.156438 
L 118.925276 -66.156438 
L 120.974863 -66.156438 
L 123.02445 -66.156438 
L 125.074037 -66.156438 
L 127.123623 -66.156438 
L 129.17321 -66.156438 
L 131.222797 -66.156438 
L 133.272384 -66.156438 
L 135.321971 -66.156438 
L 137.371557 -66.156438 
L 139.421144 -66.156438 
L 141.470731 -66.156438 
L 143.520318 -66.156438 
L 145.569904 -66.156438 
L 147.619491 -66.156438 
L 149.669078 -66.156438 
L 151.718665 -66.156438 
L 153.768252 -66.156438 
L 155.817838 -66.156438 
L 157.867425 -66.156438 
L 159.917012 -66.156438 
L 161.966599 -66.156438 
L 164.016185 -66.156438 
L 166.065772 -66.156438 
L 168.115359 -66.156438 
L 170.164946 -66.156438 
L 172.214533 -66.156438 
L 174.264119 -66.156438 
L 176.313706 -66.156438 
L 178.363293 -66.156438 
L 180.41288 -66.156437 
L 182.462466 -66.156437 
L 184.512053 -66.156437 
L 186.56164 -66.156437 
L 188.611227 -66.156437 
L 190.660814 -66.156436 
L 192.7104 -66.156418 
L 194.759987 -66.15623 
L 196.809574 -66.154981 
L 198.859161 -66.149648 
L 200.908747 -66.135457 
L 202.958334 -66.113451 
L 205.007921 -66.097938 
L 207.057508 -66.102827 
L 209.107095 -66.119699 
L 211.156681 -66.126185 
L 213.206268 -66.113987 
L 215.255855 -66.098731 
L 217.305442 -66.100389 
L 219.355028 -66.115167 
L 221.404615 -66.114107 
L 223.454202 -66.05124 
L 225.503789 -65.761959 
L 227.553376 -64.489159 
L 229.602962 -60.224841 
L 231.652549 -51.118502 
L 233.702136 -40.352339 
L 235.751723 -36.588438 
L 237.801309 -43.617656 
L 239.850896 -54.742775 
L 241.900483 -62.319098 
L 241.900483 -69.993777 
L 241.900483 -69.993777 
L 239.850896 -77.5701 
L 237.801309 -88.695219 
L 235.751723 -95.724437 
L 233.702136 -91.960536 
L 231.652549 -81.194373 
L 229.602962 -72.088034 
L 227.553376 -67.823716 
L 225.503789 -66.550916 
L 223.454202 -66.261635 
L 221.404615 -66.198768 
L 219.355028 -66.197708 
L 217.305442 -66.212486 
L 215.255855 -66.214144 
L 213.206268 -66.198888 
L 211.156681 -66.18669 
L 209.107095 -66.193176 
L 207.057508 -66.210048 
L 205.007921 -66.214937 
L 202.958334 -66.199424 
L 200.908747 -66.177418 
L 198.859161 -66.163227 
L 196.809574 -66.157894 
L 194.759987 -66.156645 
L 192.7104 -66.156457 
L 190.660814 -66.156439 
L 188.611227 -66.156438 
L 186.56164 -66.156438 
L 184.512053 -66.156438 
L 182.462466 -66.156438 
L 180.41288 -66.156438 
L 178.363293 -66.156438 
L 176.313706 -66.156438 
L 174.264119 -66.156438 
L 172.214533 -66.156438 
L 170.164946 -66.156438 
L 168.115359 -66.156438 
L 166.065772 -66.156438 
L 164.016185 -66.156438 
L 161.966599 -66.156438 
L 159.917012 -66.156438 
L 157.867425 -66.156438 
L 155.817838 -66.156438 
L 153.768252 -66.156438 
L 151.718665 -66.156438 
L 149.669078 -66.156438 
L 147.619491 -66.156438 
L 145.569904 -66.156438 
L 143.520318 -66.156438 
L 141.470731 -66.156438 
L 139.421144 -66.156438 
L 137.371557 -66.156438 
L 135.321971 -66.156438 
L 133.272384 -66.156438 
L 131.222797 -66.156438 
L 129.17321 -66.156438 
L 127.123623 -66.156438 
L 125.074037 -66.156438 
L 123.02445 -66.156438 
L 120.974863 -66.156438 
L 118.925276 -66.156438 
L 116.87569 -66.156438 
L 114.826103 -66.156438 
L 112.776516 -66.156438 
L 110.726929 -66.156438 
L 108.677342 -66.156438 
L 106.627756 -66.156438 
L 104.578169 -66.156438 
L 102.528582 -66.156438 
L 100.478995 -66.156438 
L 98.429409 -66.156438 
L 96.379822 -66.156438 
L 94.330235 -66.156438 
L 92.280648 -66.156438 
L 90.231061 -66.156438 
L 88.181475 -66.15644 
L 86.131888 -66.156478 
L 84.082301 -66.156822 
L 82.032714 -66.158832 
L 79.983128 -66.166323 
L 77.933541 -66.183493 
L 75.883954 -66.205527 
L 73.834367 -66.215482 
L 71.78478 -66.203516 
L 69.735194 -66.181322 
L 67.685607 -66.165157 
L 65.63602 -66.158463 
L 63.586433 -66.156749 
L 61.536847 -66.15647 
L 59.48726 -66.156443 
L 57.437673 -66.156486 
L 55.388086 -66.156879 
L 53.338499 -66.15911 
L 51.288913 -66.167167 
L 49.239326 -66.18499 
L 47.189739 -66.206807 
L 45.140152 -66.215341 
L 43.090566 -66.202102 
L 41.040979 -66.179905 
L 38.991392 -66.164433 
z
" style="stroke: #3f3f3f; stroke-width: 0.5"/>
    </defs>
    <g clip-path="url(#pbac712565a)">
     <use xlink:href="#m1eab41a2aa" x="0" y="281.578375" style="fill: #e1812c; stroke: #3f3f3f; stroke-width: 0.5"/>
    </g>
   </g>
   <g id="patch_3">
    <path d="M -96.538339 244.989937 
L -96.538339 244.989937 
L -96.538339 244.989937 
L -96.538339 244.989937 
z
" clip-path="url(#pbac712565a)" style="fill: #3274a1; stroke: #3f3f3f; stroke-width: 0.5; stroke-linejoin: miter"/>
   </g>
   <g id="patch_4">
    <path d="M -96.538339 244.989937 
L -96.538339 244.989937 
L -96.538339 244.989937 
L -96.538339 244.989937 
z
" clip-path="url(#pbac712565a)" style="fill: #e1812c; stroke: #3f3f3f; stroke-width: 0.5; stroke-linejoin: miter"/>
   </g>
   <g id="matplotlib.axis_1">
    <g id="xtick_1">
     <g id="line2d_1">
      <defs>
       <path id="mf5f2b16b60" d="M 0 0 
L 0 3.5 
" style="stroke: #000000; stroke-width: 0.8"/>
      </defs>
      <g>
       <use xlink:href="#mf5f2b16b60" x="36.279903" y="244.989937" style="stroke: #000000; stroke-width: 0.8"/>
      </g>
     </g>
     <g id="text_1">
      <!-- 40 -->
      <g transform="translate(31.189903 258.068688) scale(0.08 -0.08)">
       <defs>
        <path id="DejaVuSerif-34" d="M 2234 1581 
L 2234 4063 
L 641 1581 
L 2234 1581 
z
M 3609 0 
L 1484 0 
L 1484 331 
L 2234 331 
L 2234 1247 
L 197 1247 
L 197 1588 
L 2241 4750 
L 2859 4750 
L 2859 1581 
L 3750 1581 
L 3750 1247 
L 2859 1247 
L 2859 331 
L 3609 331 
L 3609 0 
z
" transform="scale(0.015625)"/>
        <path id="DejaVuSerif-30" d="M 2034 219 
Q 2513 219 2750 744 
Q 2988 1269 2988 2328 
Q 2988 3391 2750 3916 
Q 2513 4441 2034 4441 
Q 1556 4441 1318 3916 
Q 1081 3391 1081 2328 
Q 1081 1269 1318 744 
Q 1556 219 2034 219 
z
M 2034 -91 
Q 1275 -91 848 546 
Q 422 1184 422 2328 
Q 422 3475 848 4112 
Q 1275 4750 2034 4750 
Q 2797 4750 3222 4112 
Q 3647 3475 3647 2328 
Q 3647 1184 3222 546 
Q 2797 -91 2034 -91 
z
" transform="scale(0.015625)"/>
       </defs>
       <use xlink:href="#DejaVuSerif-34"/>
       <use xlink:href="#DejaVuSerif-30" x="63.623047"/>
      </g>
     </g>
    </g>
    <g id="xtick_2">
     <g id="line2d_2">
      <g>
       <use xlink:href="#mf5f2b16b60" x="69.484463" y="244.989937" style="stroke: #000000; stroke-width: 0.8"/>
      </g>
     </g>
     <g id="text_2">
      <!-- 50 -->
      <g transform="translate(64.394463 258.068688) scale(0.08 -0.08)">
       <defs>
        <path id="DejaVuSerif-35" d="M 3219 4666 
L 3219 4153 
L 1081 4153 
L 1081 2816 
Q 1244 2928 1461 2984 
Q 1678 3041 1947 3041 
Q 2703 3041 3140 2622 
Q 3578 2203 3578 1478 
Q 3578 738 3136 323 
Q 2694 -91 1894 -91 
Q 1572 -91 1234 -12 
Q 897 66 544 225 
L 544 1131 
L 897 1131 
Q 925 688 1179 453 
Q 1434 219 1894 219 
Q 2388 219 2653 544 
Q 2919 869 2919 1478 
Q 2919 2084 2655 2407 
Q 2391 2731 1894 2731 
Q 1613 2731 1398 2631 
Q 1184 2531 1019 2322 
L 750 2322 
L 750 4666 
L 3219 4666 
z
" transform="scale(0.015625)"/>
       </defs>
       <use xlink:href="#DejaVuSerif-35"/>
       <use xlink:href="#DejaVuSerif-30" x="63.623047"/>
      </g>
     </g>
    </g>
    <g id="xtick_3">
     <g id="line2d_3">
      <g>
       <use xlink:href="#mf5f2b16b60" x="102.689024" y="244.989937" style="stroke: #000000; stroke-width: 0.8"/>
      </g>
     </g>
     <g id="text_3">
      <!-- 60 -->
      <g transform="translate(97.599024 258.068688) scale(0.08 -0.08)">
       <defs>
        <path id="DejaVuSerif-36" d="M 2094 219 
Q 2534 219 2771 542 
Q 3009 866 3009 1472 
Q 3009 2078 2771 2401 
Q 2534 2725 2094 2725 
Q 1647 2725 1412 2412 
Q 1178 2100 1178 1509 
Q 1178 888 1415 553 
Q 1653 219 2094 219 
z
M 1075 2569 
Q 1288 2803 1556 2918 
Q 1825 3034 2163 3034 
Q 2859 3034 3264 2615 
Q 3669 2197 3669 1472 
Q 3669 763 3233 336 
Q 2797 -91 2069 -91 
Q 1278 -91 853 498 
Q 428 1088 428 2181 
Q 428 3406 931 4078 
Q 1434 4750 2350 4750 
Q 2597 4750 2869 4703 
Q 3141 4656 3425 4563 
L 3425 3794 
L 3072 3794 
Q 3034 4109 2831 4275 
Q 2628 4441 2284 4441 
Q 1678 4441 1381 3981 
Q 1084 3522 1075 2569 
z
" transform="scale(0.015625)"/>
       </defs>
       <use xlink:href="#DejaVuSerif-36"/>
       <use xlink:href="#DejaVuSerif-30" x="63.623047"/>
      </g>
     </g>
    </g>
    <g id="xtick_4">
     <g id="line2d_4">
      <g>
       <use xlink:href="#mf5f2b16b60" x="135.893584" y="244.989937" style="stroke: #000000; stroke-width: 0.8"/>
      </g>
     </g>
     <g id="text_4">
      <!-- 70 -->
      <g transform="translate(130.803584 258.068688) scale(0.08 -0.08)">
       <defs>
        <path id="DejaVuSerif-37" d="M 3609 4347 
L 1784 0 
L 1319 0 
L 3059 4153 
L 903 4153 
L 903 3578 
L 538 3578 
L 538 4666 
L 3609 4666 
L 3609 4347 
z
" transform="scale(0.015625)"/>
       </defs>
       <use xlink:href="#DejaVuSerif-37"/>
       <use xlink:href="#DejaVuSerif-30" x="63.623047"/>
      </g>
     </g>
    </g>
    <g id="xtick_5">
     <g id="line2d_5">
      <g>
       <use xlink:href="#mf5f2b16b60" x="169.098145" y="244.989937" style="stroke: #000000; stroke-width: 0.8"/>
      </g>
     </g>
     <g id="text_5">
      <!-- 80 -->
      <g transform="translate(164.008145 258.068688) scale(0.08 -0.08)">
       <defs>
        <path id="DejaVuSerif-38" d="M 2981 1275 
Q 2981 1775 2732 2051 
Q 2484 2328 2034 2328 
Q 1584 2328 1336 2051 
Q 1088 1775 1088 1275 
Q 1088 772 1336 495 
Q 1584 219 2034 219 
Q 2484 219 2732 495 
Q 2981 772 2981 1275 
z
M 2853 3541 
Q 2853 3966 2637 4203 
Q 2422 4441 2034 4441 
Q 1650 4441 1433 4203 
Q 1216 3966 1216 3541 
Q 1216 3113 1433 2875 
Q 1650 2638 2034 2638 
Q 2422 2638 2637 2875 
Q 2853 3113 2853 3541 
z
M 2516 2484 
Q 3047 2413 3344 2092 
Q 3641 1772 3641 1275 
Q 3641 619 3225 264 
Q 2809 -91 2034 -91 
Q 1263 -91 845 264 
Q 428 619 428 1275 
Q 428 1772 725 2092 
Q 1022 2413 1556 2484 
Q 1084 2569 832 2842 
Q 581 3116 581 3541 
Q 581 4103 968 4426 
Q 1356 4750 2034 4750 
Q 2713 4750 3100 4426 
Q 3488 4103 3488 3541 
Q 3488 3116 3236 2842 
Q 2984 2569 2516 2484 
z
" transform="scale(0.015625)"/>
       </defs>
       <use xlink:href="#DejaVuSerif-38"/>
       <use xlink:href="#DejaVuSerif-30" x="63.623047"/>
      </g>
     </g>
    </g>
    <g id="xtick_6">
     <g id="line2d_6">
      <g>
       <use xlink:href="#mf5f2b16b60" x="202.302705" y="244.989937" style="stroke: #000000; stroke-width: 0.8"/>
      </g>
     </g>
     <g id="text_6">
      <!-- 90 -->
      <g transform="translate(197.212705 258.068688) scale(0.08 -0.08)">
       <defs>
        <path id="DejaVuSerif-39" d="M 2994 2091 
Q 2784 1856 2512 1740 
Q 2241 1625 1900 1625 
Q 1206 1625 804 2044 
Q 403 2463 403 3188 
Q 403 3897 839 4323 
Q 1275 4750 2003 4750 
Q 2794 4750 3217 4161 
Q 3641 3572 3641 2478 
Q 3641 1253 3137 581 
Q 2634 -91 1722 -91 
Q 1475 -91 1203 -44 
Q 931 3 647 97 
L 647 872 
L 997 872 
Q 1038 556 1241 387 
Q 1444 219 1784 219 
Q 2391 219 2687 676 
Q 2984 1134 2994 2091 
z
M 1978 4441 
Q 1534 4441 1298 4117 
Q 1063 3794 1063 3188 
Q 1063 2581 1298 2256 
Q 1534 1931 1978 1931 
Q 2422 1931 2658 2245 
Q 2894 2559 2894 3150 
Q 2894 3772 2656 4106 
Q 2419 4441 1978 4441 
z
" transform="scale(0.015625)"/>
       </defs>
       <use xlink:href="#DejaVuSerif-39"/>
       <use xlink:href="#DejaVuSerif-30" x="63.623047"/>
      </g>
     </g>
    </g>
    <g id="xtick_7">
     <g id="line2d_7">
      <g>
       <use xlink:href="#mf5f2b16b60" x="235.507265" y="244.989937" style="stroke: #000000; stroke-width: 0.8"/>
      </g>
     </g>
     <g id="text_7">
      <!-- 100 -->
      <g transform="translate(227.872265 258.068688) scale(0.08 -0.08)">
       <defs>
        <path id="DejaVuSerif-31" d="M 909 0 
L 909 331 
L 1722 331 
L 1722 4213 
L 781 3603 
L 781 4013 
L 1919 4750 
L 2350 4750 
L 2350 331 
L 3163 331 
L 3163 0 
L 909 0 
z
" transform="scale(0.015625)"/>
       </defs>
       <use xlink:href="#DejaVuSerif-31"/>
       <use xlink:href="#DejaVuSerif-30" x="63.623047"/>
       <use xlink:href="#DejaVuSerif-30" x="127.246094"/>
      </g>
     </g>
    </g>
    <g id="text_8">
     <!-- Error Percentage -->
     <g transform="translate(92.004688 271.934312) scale(0.11 -0.11)">
      <defs>
       <path id="DejaVuSerif-45" d="M 353 0 
L 353 331 
L 947 331 
L 947 4331 
L 353 4331 
L 353 4666 
L 4109 4666 
L 4109 3628 
L 3725 3628 
L 3725 4281 
L 1581 4281 
L 1581 2719 
L 3109 2719 
L 3109 3303 
L 3494 3303 
L 3494 1753 
L 3109 1753 
L 3109 2338 
L 1581 2338 
L 1581 384 
L 3775 384 
L 3775 1038 
L 4159 1038 
L 4159 0 
L 353 0 
z
" transform="scale(0.015625)"/>
       <path id="DejaVuSerif-72" d="M 3059 3328 
L 3059 2497 
L 2728 2497 
Q 2713 2744 2591 2866 
Q 2469 2988 2234 2988 
Q 1809 2988 1582 2694 
Q 1356 2400 1356 1850 
L 1356 331 
L 2022 331 
L 2022 0 
L 263 0 
L 263 331 
L 781 331 
L 781 2994 
L 231 2994 
L 231 3322 
L 1356 3322 
L 1356 2731 
Q 1525 3078 1790 3245 
Q 2056 3413 2438 3413 
Q 2578 3413 2733 3391 
Q 2888 3369 3059 3328 
z
" transform="scale(0.015625)"/>
       <path id="DejaVuSerif-6f" d="M 1925 219 
Q 2388 219 2623 584 
Q 2859 950 2859 1663 
Q 2859 2375 2623 2739 
Q 2388 3103 1925 3103 
Q 1463 3103 1227 2739 
Q 991 2375 991 1663 
Q 991 950 1228 584 
Q 1466 219 1925 219 
z
M 1925 -91 
Q 1200 -91 759 389 
Q 319 869 319 1663 
Q 319 2456 758 2934 
Q 1197 3413 1925 3413 
Q 2653 3413 3092 2934 
Q 3531 2456 3531 1663 
Q 3531 869 3092 389 
Q 2653 -91 1925 -91 
z
" transform="scale(0.015625)"/>
       <path id="DejaVuSerif-20" transform="scale(0.015625)"/>
       <path id="DejaVuSerif-50" d="M 1581 2375 
L 2406 2375 
Q 2872 2375 3115 2626 
Q 3359 2878 3359 3353 
Q 3359 3831 3115 4081 
Q 2872 4331 2406 4331 
L 1581 4331 
L 1581 2375 
z
M 353 0 
L 353 331 
L 947 331 
L 947 4331 
L 353 4331 
L 353 4666 
L 2559 4666 
Q 3259 4666 3668 4311 
Q 4078 3956 4078 3353 
Q 4078 2753 3668 2397 
Q 3259 2041 2559 2041 
L 1581 2041 
L 1581 331 
L 2303 331 
L 2303 0 
L 353 0 
z
" transform="scale(0.015625)"/>
       <path id="DejaVuSerif-65" d="M 3469 1600 
L 991 1600 
L 991 1575 
Q 991 903 1244 561 
Q 1497 219 1991 219 
Q 2369 219 2611 417 
Q 2853 616 2950 1006 
L 3413 1006 
Q 3275 459 2904 184 
Q 2534 -91 1931 -91 
Q 1203 -91 761 389 
Q 319 869 319 1663 
Q 319 2450 753 2931 
Q 1188 3413 1894 3413 
Q 2647 3413 3050 2948 
Q 3453 2484 3469 1600 
z
M 2791 1931 
Q 2772 2513 2545 2808 
Q 2319 3103 1894 3103 
Q 1497 3103 1269 2806 
Q 1041 2509 991 1931 
L 2791 1931 
z
" transform="scale(0.015625)"/>
       <path id="DejaVuSerif-63" d="M 3291 997 
Q 3169 466 2822 187 
Q 2475 -91 1925 -91 
Q 1200 -91 759 389 
Q 319 869 319 1663 
Q 319 2459 759 2936 
Q 1200 3413 1925 3413 
Q 2241 3413 2553 3339 
Q 2866 3266 3181 3116 
L 3181 2266 
L 2847 2266 
Q 2781 2703 2561 2903 
Q 2341 3103 1931 3103 
Q 1466 3103 1228 2742 
Q 991 2381 991 1663 
Q 991 944 1227 581 
Q 1463 219 1931 219 
Q 2303 219 2525 412 
Q 2747 606 2828 997 
L 3291 997 
z
" transform="scale(0.015625)"/>
       <path id="DejaVuSerif-6e" d="M 263 0 
L 263 331 
L 781 331 
L 781 2988 
L 231 2988 
L 231 3322 
L 1356 3322 
L 1356 2731 
Q 1516 3069 1770 3241 
Q 2025 3413 2363 3413 
Q 2913 3413 3172 3097 
Q 3431 2781 3431 2113 
L 3431 331 
L 3944 331 
L 3944 0 
L 2356 0 
L 2356 331 
L 2853 331 
L 2853 1931 
Q 2853 2541 2703 2767 
Q 2553 2994 2175 2994 
Q 1775 2994 1565 2701 
Q 1356 2409 1356 1850 
L 1356 331 
L 1856 331 
L 1856 0 
L 263 0 
z
" transform="scale(0.015625)"/>
       <path id="DejaVuSerif-74" d="M 691 2988 
L 184 2988 
L 184 3322 
L 691 3322 
L 691 4353 
L 1269 4353 
L 1269 3322 
L 2350 3322 
L 2350 2988 
L 1269 2988 
L 1269 878 
Q 1269 456 1350 337 
Q 1431 219 1650 219 
Q 1875 219 1978 351 
Q 2081 484 2088 781 
L 2522 781 
Q 2497 328 2275 118 
Q 2053 -91 1600 -91 
Q 1103 -91 897 129 
Q 691 350 691 878 
L 691 2988 
z
" transform="scale(0.015625)"/>
       <path id="DejaVuSerif-61" d="M 2547 1044 
L 2547 1747 
L 1806 1747 
Q 1378 1747 1168 1562 
Q 959 1378 959 997 
Q 959 650 1171 447 
Q 1384 244 1747 244 
Q 2106 244 2326 466 
Q 2547 688 2547 1044 
z
M 3122 2075 
L 3122 331 
L 3634 331 
L 3634 0 
L 2547 0 
L 2547 359 
Q 2356 128 2106 18 
Q 1856 -91 1522 -91 
Q 969 -91 644 203 
Q 319 497 319 997 
Q 319 1513 691 1797 
Q 1063 2081 1741 2081 
L 2547 2081 
L 2547 2309 
Q 2547 2688 2317 2895 
Q 2088 3103 1672 3103 
Q 1328 3103 1125 2947 
Q 922 2791 872 2484 
L 575 2484 
L 575 3156 
Q 875 3284 1158 3348 
Q 1441 3413 1709 3413 
Q 2400 3413 2761 3070 
Q 3122 2728 3122 2075 
z
" transform="scale(0.015625)"/>
       <path id="DejaVuSerif-67" d="M 3359 2988 
L 3359 72 
Q 3359 -644 2965 -1033 
Q 2572 -1422 1844 -1422 
Q 1516 -1422 1216 -1362 
Q 916 -1303 641 -1184 
L 641 -488 
L 941 -488 
Q 997 -813 1206 -963 
Q 1416 -1113 1806 -1113 
Q 2313 -1113 2548 -827 
Q 2784 -541 2784 72 
L 2784 519 
Q 2616 206 2355 57 
Q 2094 -91 1709 -91 
Q 1097 -91 708 395 
Q 319 881 319 1663 
Q 319 2444 706 2928 
Q 1094 3413 1709 3413 
Q 2094 3413 2355 3264 
Q 2616 3116 2784 2803 
L 2784 3322 
L 3909 3322 
L 3909 2988 
L 3359 2988 
z
M 2784 1825 
Q 2784 2422 2554 2737 
Q 2325 3053 1888 3053 
Q 1444 3053 1217 2703 
Q 991 2353 991 1663 
Q 991 975 1217 622 
Q 1444 269 1888 269 
Q 2325 269 2554 583 
Q 2784 897 2784 1497 
L 2784 1825 
z
" transform="scale(0.015625)"/>
      </defs>
      <use xlink:href="#DejaVuSerif-45"/>
      <use xlink:href="#DejaVuSerif-72" x="72.998047"/>
      <use xlink:href="#DejaVuSerif-72" x="120.800781"/>
      <use xlink:href="#DejaVuSerif-6f" x="168.603516"/>
      <use xlink:href="#DejaVuSerif-72" x="228.808594"/>
      <use xlink:href="#DejaVuSerif-20" x="276.611328"/>
      <use xlink:href="#DejaVuSerif-50" x="308.398438"/>
      <use xlink:href="#DejaVuSerif-65" x="371.183594"/>
      <use xlink:href="#DejaVuSerif-72" x="430.363281"/>
      <use xlink:href="#DejaVuSerif-63" x="478.166016"/>
      <use xlink:href="#DejaVuSerif-65" x="534.171875"/>
      <use xlink:href="#DejaVuSerif-6e" x="593.351562"/>
      <use xlink:href="#DejaVuSerif-74" x="657.755859"/>
      <use xlink:href="#DejaVuSerif-61" x="697.941406"/>
      <use xlink:href="#DejaVuSerif-67" x="757.560547"/>
      <use xlink:href="#DejaVuSerif-65" x="821.574219"/>
     </g>
    </g>
   </g>
   <g id="matplotlib.axis_2">
    <g id="ytick_1">
     <g id="line2d_8">
      <defs>
       <path id="ma2acccb62d" d="M 0 0 
L -3.5 0 
" style="stroke: #000000; stroke-width: 0.8"/>
      </defs>
      <g>
       <use xlink:href="#ma2acccb62d" x="28.845938" y="244.989937" style="stroke: #000000; stroke-width: 0.8"/>
      </g>
     </g>
    </g>
    <g id="text_9">
     <!-- Density -->
     <g transform="translate(15.401875 155.216187) rotate(-90) scale(0.11 -0.11)">
      <defs>
       <path id="DejaVuSerif-44" d="M 1581 331 
L 2163 331 
Q 3072 331 3558 850 
Q 4044 1369 4044 2338 
Q 4044 3306 3559 3818 
Q 3075 4331 2163 4331 
L 1581 4331 
L 1581 331 
z
M 353 0 
L 353 331 
L 947 331 
L 947 4331 
L 353 4331 
L 353 4666 
L 2209 4666 
Q 3416 4666 4089 4050 
Q 4763 3434 4763 2338 
Q 4763 1238 4088 619 
Q 3413 0 2209 0 
L 353 0 
z
" transform="scale(0.015625)"/>
       <path id="DejaVuSerif-73" d="M 359 184 
L 359 959 
L 691 959 
Q 703 588 923 403 
Q 1144 219 1575 219 
Q 1963 219 2166 364 
Q 2369 509 2369 788 
Q 2369 1006 2220 1140 
Q 2072 1275 1594 1428 
L 1178 1569 
Q 750 1706 558 1912 
Q 366 2119 366 2438 
Q 366 2894 700 3153 
Q 1034 3413 1625 3413 
Q 1888 3413 2178 3344 
Q 2469 3275 2778 3144 
L 2778 2419 
L 2447 2419 
Q 2434 2741 2221 2922 
Q 2009 3103 1644 3103 
Q 1281 3103 1095 2975 
Q 909 2847 909 2591 
Q 909 2381 1050 2254 
Q 1191 2128 1613 1997 
L 2069 1856 
Q 2541 1709 2748 1489 
Q 2956 1269 2956 922 
Q 2956 450 2595 179 
Q 2234 -91 1600 -91 
Q 1278 -91 972 -22 
Q 666 47 359 184 
z
" transform="scale(0.015625)"/>
       <path id="DejaVuSerif-69" d="M 622 4353 
Q 622 4497 726 4603 
Q 831 4709 978 4709 
Q 1122 4709 1226 4603 
Q 1331 4497 1331 4353 
Q 1331 4206 1228 4103 
Q 1125 4000 978 4000 
Q 831 4000 726 4103 
Q 622 4206 622 4353 
z
M 1356 331 
L 1900 331 
L 1900 0 
L 231 0 
L 231 331 
L 781 331 
L 781 2988 
L 231 2988 
L 231 3322 
L 1356 3322 
L 1356 331 
z
" transform="scale(0.015625)"/>
       <path id="DejaVuSerif-79" d="M 1381 -609 
L 1600 -56 
L 359 2988 
L -19 2988 
L -19 3322 
L 1509 3322 
L 1509 2988 
L 978 2988 
L 1913 703 
L 2847 2988 
L 2350 2988 
L 2350 3322 
L 3597 3322 
L 3597 2988 
L 3225 2988 
L 1703 -750 
Q 1547 -1138 1356 -1280 
Q 1166 -1422 819 -1422 
Q 672 -1422 517 -1397 
Q 363 -1372 206 -1325 
L 206 -691 
L 500 -691 
Q 519 -903 608 -995 
Q 697 -1088 884 -1088 
Q 1056 -1088 1161 -992 
Q 1266 -897 1381 -609 
z
" transform="scale(0.015625)"/>
      </defs>
      <use xlink:href="#DejaVuSerif-44"/>
      <use xlink:href="#DejaVuSerif-65" x="80.175781"/>
      <use xlink:href="#DejaVuSerif-6e" x="139.355469"/>
      <use xlink:href="#DejaVuSerif-73" x="203.759766"/>
      <use xlink:href="#DejaVuSerif-69" x="255.078125"/>
      <use xlink:href="#DejaVuSerif-74" x="287.060547"/>
      <use xlink:href="#DejaVuSerif-79" x="327.246094"/>
     </g>
    </g>
   </g>
   <g id="line2d_9">
    <path d="M 235.392133 274.557937 
L 235.504222 274.557937 
" clip-path="url(#pbac712565a)" style="fill: none; stroke: #3f3f3f; stroke-width: 0.75; stroke-linecap: square"/>
   </g>
   <g id="line2d_10">
    <path d="M 235.442771 274.557937 
L 235.480351 274.557937 
" clip-path="url(#pbac712565a)" style="fill: none; stroke: #3f3f3f; stroke-width: 2.25; stroke-linecap: square"/>
   </g>
   <g id="line2d_11">
    <path d="M 235.463709 274.557937 
" clip-path="url(#pbac712565a)" style="fill: none; stroke: #3f3f3f; stroke-width: 20; stroke-linecap: square"/>
    <defs>
     <path id="m04c33d8a3f" d="M 0 0.9375 
L 0 -0.9375 
" style="stroke: #ffffff; stroke-width: 0.45"/>
    </defs>
    <g clip-path="url(#pbac712565a)">
     <use xlink:href="#m04c33d8a3f" x="235.463709" y="274.557937" style="fill: #ffffff; stroke: #ffffff; stroke-width: 0.45"/>
    </g>
   </g>
   <g id="line2d_12">
    <path d="M 235.3534 215.421937 
L 235.507265 215.421937 
" clip-path="url(#pbac712565a)" style="fill: none; stroke: #3f3f3f; stroke-width: 0.75; stroke-linecap: square"/>
   </g>
   <g id="line2d_13">
    <path d="M 235.443133 215.421937 
L 235.504618 215.421937 
" clip-path="url(#pbac712565a)" style="fill: none; stroke: #3f3f3f; stroke-width: 2.25; stroke-linecap: square"/>
   </g>
   <g id="line2d_14">
    <path d="M 235.493413 215.421937 
" clip-path="url(#pbac712565a)" style="fill: none; stroke: #3f3f3f; stroke-width: 20; stroke-linecap: square"/>
    <g clip-path="url(#pbac712565a)">
     <use xlink:href="#m04c33d8a3f" x="235.493413" y="215.421937" style="fill: #ffffff; stroke: #ffffff; stroke-width: 0.45"/>
    </g>
   </g>
   <g id="line2d_15">
    <path d="M 234.582491 244.989937 
L 234.582491 23.229938 
" clip-path="url(#pbac712565a)" style="fill: none; stroke-dasharray: 3.7,1.6; stroke-dashoffset: 0; stroke: #ff7f0e"/>
   </g>
   <g id="line2d_16">
    <path d="M 235.458724 244.989937 
L 235.458724 23.229938 
" clip-path="url(#pbac712565a)" style="fill: none; stroke-dasharray: 3.7,1.6; stroke-dashoffset: 0; stroke: #1f77b4"/>
   </g>
   <g id="patch_5">
    <path d="M 28.845938 244.989937 
L 28.845938 23.229938 
" style="fill: none; stroke: #000000; stroke-width: 0.8; stroke-linejoin: miter; stroke-linecap: square"/>
   </g>
   <g id="patch_6">
    <path d="M 252.045937 244.989937 
L 252.045937 23.229938 
" style="fill: none; stroke: #000000; stroke-width: 0.8; stroke-linejoin: miter; stroke-linecap: square"/>
   </g>
   <g id="patch_7">
    <path d="M 28.845938 244.989937 
L 252.045938 244.989937 
" style="fill: none; stroke: #000000; stroke-width: 0.8; stroke-linejoin: miter; stroke-linecap: square"/>
   </g>
   <g id="patch_8">
    <path d="M 28.845938 23.229938 
L 252.045938 23.229938 
" style="fill: none; stroke: #000000; stroke-width: 0.8; stroke-linejoin: miter; stroke-linecap: square"/>
   </g>
   <g id="text_10">
    <!-- Nonzero $x_{110}, x_{001}$ -->
    <g transform="translate(80.583938 17.229938) scale(0.132 -0.132)">
     <defs>
      <path id="DejaVuSerif-4e" d="M 313 0 
L 313 331 
L 941 331 
L 941 4331 
L 313 4331 
L 313 4666 
L 1509 4666 
L 4306 984 
L 4306 4331 
L 3681 4331 
L 3681 4666 
L 5319 4666 
L 5319 4331 
L 4691 4331 
L 4691 -91 
L 4313 -91 
L 1325 3841 
L 1325 331 
L 1953 331 
L 1953 0 
L 313 0 
z
" transform="scale(0.015625)"/>
      <path id="DejaVuSerif-7a" d="M 256 0 
L 256 269 
L 2338 2988 
L 691 2988 
L 691 2413 
L 359 2413 
L 359 3322 
L 3078 3322 
L 3078 3053 
L 997 331 
L 2803 331 
L 2803 934 
L 3138 934 
L 3138 0 
L 256 0 
z
" transform="scale(0.015625)"/>
      <path id="DejaVuSans-Oblique-78" d="M 3841 3500 
L 2234 1784 
L 3219 0 
L 2559 0 
L 1819 1388 
L 531 0 
L -166 0 
L 1556 1844 
L 641 3500 
L 1300 3500 
L 1972 2234 
L 3144 3500 
L 3841 3500 
z
" transform="scale(0.015625)"/>
      <path id="DejaVuSans-31" d="M 794 531 
L 1825 531 
L 1825 4091 
L 703 3866 
L 703 4441 
L 1819 4666 
L 2450 4666 
L 2450 531 
L 3481 531 
L 3481 0 
L 794 0 
L 794 531 
z
" transform="scale(0.015625)"/>
      <path id="DejaVuSans-30" d="M 2034 4250 
Q 1547 4250 1301 3770 
Q 1056 3291 1056 2328 
Q 1056 1369 1301 889 
Q 1547 409 2034 409 
Q 2525 409 2770 889 
Q 3016 1369 3016 2328 
Q 3016 3291 2770 3770 
Q 2525 4250 2034 4250 
z
M 2034 4750 
Q 2819 4750 3233 4129 
Q 3647 3509 3647 2328 
Q 3647 1150 3233 529 
Q 2819 -91 2034 -91 
Q 1250 -91 836 529 
Q 422 1150 422 2328 
Q 422 3509 836 4129 
Q 1250 4750 2034 4750 
z
" transform="scale(0.015625)"/>
      <path id="DejaVuSans-2c" d="M 750 794 
L 1409 794 
L 1409 256 
L 897 -744 
L 494 -744 
L 750 256 
L 750 794 
z
" transform="scale(0.015625)"/>
     </defs>
     <use xlink:href="#DejaVuSerif-4e" transform="translate(0 0.09375)"/>
     <use xlink:href="#DejaVuSerif-6f" transform="translate(87.5 0.09375)"/>
     <use xlink:href="#DejaVuSerif-6e" transform="translate(147.705078 0.09375)"/>
     <use xlink:href="#DejaVuSerif-7a" transform="translate(212.109375 0.09375)"/>
     <use xlink:href="#DejaVuSerif-65" transform="translate(264.794922 0.09375)"/>
     <use xlink:href="#DejaVuSerif-72" transform="translate(323.974609 0.09375)"/>
     <use xlink:href="#DejaVuSerif-6f" transform="translate(371.777344 0.09375)"/>
     <use xlink:href="#DejaVuSerif-20" transform="translate(431.982422 0.09375)"/>
     <use xlink:href="#DejaVuSans-Oblique-78" transform="translate(463.769531 0.09375)"/>
     <use xlink:href="#DejaVuSans-31" transform="translate(522.949219 -16.3125) scale(0.7)"/>
     <use xlink:href="#DejaVuSans-31" transform="translate(567.485352 -16.3125) scale(0.7)"/>
     <use xlink:href="#DejaVuSans-30" transform="translate(612.021484 -16.3125) scale(0.7)"/>
     <use xlink:href="#DejaVuSans-2c" transform="translate(659.291992 0.09375)"/>
     <use xlink:href="#DejaVuSans-Oblique-78" transform="translate(710.561523 0.09375)"/>
     <use xlink:href="#DejaVuSans-30" transform="translate(769.741211 -16.3125) scale(0.7)"/>
     <use xlink:href="#DejaVuSans-30" transform="translate(814.277344 -16.3125) scale(0.7)"/>
     <use xlink:href="#DejaVuSans-31" transform="translate(858.813477 -16.3125) scale(0.7)"/>
    </g>
   </g>
   <g id="legend_1">
    <g id="patch_9">
     <path d="M 34.445938 67.760875 
L 106.780938 67.760875 
Q 108.380938 67.760875 108.380938 66.160875 
L 108.380938 28.829937 
Q 108.380938 27.229938 106.780938 27.229938 
L 34.445938 27.229938 
Q 32.845938 27.229938 32.845938 28.829937 
L 32.845938 66.160875 
Q 32.845938 67.760875 34.445938 67.760875 
z
" style="fill: #ffffff; opacity: 0.8; stroke: #cccccc; stroke-linejoin: miter"/>
    </g>
    <g id="text_11">
     <!-- Randomized -->
     <g transform="translate(36.045938 38.788219) scale(0.11 -0.11)">
      <defs>
       <path id="DejaVuSerif-52" d="M 3066 2316 
Q 3284 2256 3442 2114 
Q 3600 1972 3725 1716 
L 4403 331 
L 4972 331 
L 4972 0 
L 3872 0 
L 3144 1484 
Q 2934 1916 2759 2042 
Q 2584 2169 2278 2169 
L 1581 2169 
L 1581 331 
L 2241 331 
L 2241 0 
L 353 0 
L 353 331 
L 947 331 
L 947 4331 
L 353 4331 
L 353 4666 
L 2719 4666 
Q 3400 4666 3770 4341 
Q 4141 4016 4141 3419 
Q 4141 2938 3870 2661 
Q 3600 2384 3066 2316 
z
M 1581 2503 
L 2503 2503 
Q 2975 2503 3200 2726 
Q 3425 2950 3425 3419 
Q 3425 3888 3200 4109 
Q 2975 4331 2503 4331 
L 1581 4331 
L 1581 2503 
z
" transform="scale(0.015625)"/>
       <path id="DejaVuSerif-64" d="M 3359 331 
L 3909 331 
L 3909 0 
L 2784 0 
L 2784 519 
Q 2616 206 2355 57 
Q 2094 -91 1709 -91 
Q 1097 -91 708 395 
Q 319 881 319 1663 
Q 319 2444 706 2928 
Q 1094 3413 1709 3413 
Q 2094 3413 2355 3264 
Q 2616 3116 2784 2803 
L 2784 4531 
L 2241 4531 
L 2241 4863 
L 3359 4863 
L 3359 331 
z
M 2784 1497 
L 2784 1825 
Q 2784 2422 2554 2737 
Q 2325 3053 1888 3053 
Q 1444 3053 1217 2703 
Q 991 2353 991 1663 
Q 991 975 1217 622 
Q 1444 269 1888 269 
Q 2325 269 2554 583 
Q 2784 897 2784 1497 
z
" transform="scale(0.015625)"/>
       <path id="DejaVuSerif-6d" d="M 3316 2675 
Q 3481 3041 3739 3227 
Q 3997 3413 4341 3413 
Q 4863 3413 5119 3089 
Q 5375 2766 5375 2113 
L 5375 331 
L 5894 331 
L 5894 0 
L 4300 0 
L 4300 331 
L 4800 331 
L 4800 2047 
Q 4800 2556 4650 2772 
Q 4500 2988 4153 2988 
Q 3769 2988 3567 2697 
Q 3366 2406 3366 1850 
L 3366 331 
L 3866 331 
L 3866 0 
L 2291 0 
L 2291 331 
L 2791 331 
L 2791 2069 
Q 2791 2566 2641 2777 
Q 2491 2988 2144 2988 
Q 1759 2988 1557 2697 
Q 1356 2406 1356 1850 
L 1356 331 
L 1856 331 
L 1856 0 
L 263 0 
L 263 331 
L 781 331 
L 781 2994 
L 231 2994 
L 231 3322 
L 1356 3322 
L 1356 2731 
Q 1516 3063 1762 3238 
Q 2009 3413 2322 3413 
Q 2709 3413 2968 3220 
Q 3228 3028 3316 2675 
z
" transform="scale(0.015625)"/>
      </defs>
      <use xlink:href="#DejaVuSerif-52"/>
      <use xlink:href="#DejaVuSerif-61" x="77.542969"/>
      <use xlink:href="#DejaVuSerif-6e" x="137.162109"/>
      <use xlink:href="#DejaVuSerif-64" x="201.566406"/>
      <use xlink:href="#DejaVuSerif-6f" x="265.580078"/>
      <use xlink:href="#DejaVuSerif-6d" x="325.785156"/>
      <use xlink:href="#DejaVuSerif-69" x="420.609375"/>
      <use xlink:href="#DejaVuSerif-7a" x="452.591797"/>
      <use xlink:href="#DejaVuSerif-65" x="505.277344"/>
      <use xlink:href="#DejaVuSerif-64" x="564.457031"/>
     </g>
    </g>
    <g id="patch_10">
     <path d="M 48.823438 51.154625 
L 64.823438 51.154625 
L 64.823438 45.554625 
L 48.823438 45.554625 
z
" style="fill: #3274a1; stroke: #3f3f3f; stroke-width: 0.5; stroke-linejoin: miter"/>
    </g>
    <g id="text_12">
     <!-- False -->
     <g transform="translate(71.223438 51.154625) scale(0.08 -0.08)">
      <defs>
       <path id="DejaVuSerif-46" d="M 353 0 
L 353 331 
L 947 331 
L 947 4331 
L 353 4331 
L 353 4666 
L 4172 4666 
L 4172 3628 
L 3788 3628 
L 3788 4281 
L 1581 4281 
L 1581 2719 
L 3175 2719 
L 3175 3303 
L 3559 3303 
L 3559 1753 
L 3175 1753 
L 3175 2338 
L 1581 2338 
L 1581 331 
L 2328 331 
L 2328 0 
L 353 0 
z
" transform="scale(0.015625)"/>
       <path id="DejaVuSerif-6c" d="M 1313 331 
L 1856 331 
L 1856 0 
L 184 0 
L 184 331 
L 738 331 
L 738 4531 
L 184 4531 
L 184 4863 
L 1313 4863 
L 1313 331 
z
" transform="scale(0.015625)"/>
      </defs>
      <use xlink:href="#DejaVuSerif-46"/>
      <use xlink:href="#DejaVuSerif-61" x="62.634766"/>
      <use xlink:href="#DejaVuSerif-6c" x="122.253906"/>
      <use xlink:href="#DejaVuSerif-73" x="154.236328"/>
      <use xlink:href="#DejaVuSerif-65" x="205.554688"/>
     </g>
    </g>
    <g id="patch_11">
     <path d="M 48.823438 62.897125 
L 64.823438 62.897125 
L 64.823438 57.297125 
L 48.823438 57.297125 
z
" style="fill: #e1812c; stroke: #3f3f3f; stroke-width: 0.5; stroke-linejoin: miter"/>
    </g>
    <g id="text_13">
     <!-- True -->
     <g transform="translate(71.223438 62.897125) scale(0.08 -0.08)">
      <defs>
       <path id="DejaVuSerif-54" d="M 1222 0 
L 1222 331 
L 1819 331 
L 1819 4294 
L 447 4294 
L 447 3566 
L 63 3566 
L 63 4666 
L 4206 4666 
L 4206 3566 
L 3822 3566 
L 3822 4294 
L 2450 4294 
L 2450 331 
L 3047 331 
L 3047 0 
L 1222 0 
z
" transform="scale(0.015625)"/>
       <path id="DejaVuSerif-75" d="M 2266 3322 
L 3341 3322 
L 3341 331 
L 3884 331 
L 3884 0 
L 2766 0 
L 2766 588 
Q 2606 256 2353 82 
Q 2100 -91 1766 -91 
Q 1213 -91 952 223 
Q 691 538 691 1209 
L 691 2988 
L 172 2988 
L 172 3322 
L 1269 3322 
L 1269 1388 
Q 1269 781 1417 556 
Q 1566 331 1947 331 
Q 2347 331 2556 625 
Q 2766 919 2766 1478 
L 2766 2988 
L 2266 2988 
L 2266 3322 
z
" transform="scale(0.015625)"/>
      </defs>
      <use xlink:href="#DejaVuSerif-54"/>
      <use xlink:href="#DejaVuSerif-72" x="66.699219"/>
      <use xlink:href="#DejaVuSerif-75" x="114.501953"/>
      <use xlink:href="#DejaVuSerif-65" x="178.90625"/>
     </g>
    </g>
   </g>
  </g>
 </g>
 <defs>
  <clipPath id="pbac712565a">
   <rect x="28.845938" y="23.229938" width="223.2" height="221.76"/>
  </clipPath>
 </defs>
</svg>
