<?xml version="1.0" encoding="utf-8" standalone="no"?>
<!DOCTYPE svg PUBLIC "-//W3C//DTD SVG 1.1//EN"
  "http://www.w3.org/Graphics/SVG/1.1/DTD/svg11.dtd">
<svg xmlns:xlink="http://www.w3.org/1999/xlink" width="259.245938pt" height="281.578375pt" viewBox="0 0 259.245938 281.578375" xmlns="http://www.w3.org/2000/svg" version="1.1">
 <metadata>
  <rdf:RDF xmlns:dc="http://purl.org/dc/elements/1.1/" xmlns:cc="http://creativecommons.org/ns#" xmlns:rdf="http://www.w3.org/1999/02/22-rdf-syntax-ns#">
   <cc:Work>
    <dc:type rdf:resource="http://purl.org/dc/dcmitype/StillImage"/>
    <dc:date>2024-03-11T17:48:44.102770</dc:date>
    <dc:format>image/svg+xml</dc:format>
    <dc:creator>
     <cc:Agent>
      <dc:title>Matplotlib v3.7.2, https://matplotlib.org/</dc:title>
     </cc:Agent>
    </dc:creator>
   </cc:Work>
  </rdf:RDF>
 </metadata>
 <defs>
  <style type="text/css">*{stroke-linejoin: round; stroke-linecap: butt}</style>
 </defs>
 <g id="figure_1">
  <g id="patch_1">
   <path d="M 0 281.578375 
L 259.245938 281.578375 
L 259.245938 0 
L 0 0 
z
" style="fill: #ffffff"/>
  </g>
  <g id="axes_1">
   <g id="patch_2">
    <path d="M 28.845938 244.989937 
L 252.045937 244.989937 
L 252.045937 23.229938 
L 28.845938 23.229938 
z
" style="fill: #ffffff"/>
   </g>
   <g id="PolyCollection_1">
    <defs>
     <path id="mfbcb109588" d="M 233.137497 -7.046839 
L 233.137497 -6.994036 
L 233.155295 -6.973473 
L 233.173092 -6.94466 
L 233.19089 -6.90954 
L 233.208687 -6.873231 
L 233.226485 -6.843204 
L 233.244283 -6.826892 
L 233.26208 -6.82873 
L 233.279878 -6.848206 
L 233.297675 -6.88009 
L 233.315473 -6.916705 
L 233.33327 -6.950895 
L 233.351068 -6.978146 
L 233.368866 -6.99709 
L 233.386663 -7.008673 
L 233.404461 -7.014814 
L 233.422258 -7.017255 
L 233.440056 -7.01685 
L 233.457853 -7.013189 
L 233.475651 -7.004425 
L 233.493449 -6.987337 
L 233.511246 -6.957978 
L 233.529044 -6.913207 
L 233.546841 -6.852979 
L 233.564639 -6.782465 
L 233.582437 -6.712431 
L 233.600234 -6.656653 
L 233.618032 -6.626696 
L 233.635829 -6.626333 
L 233.653627 -6.648796 
L 233.671424 -6.678885 
L 233.689222 -6.699357 
L 233.70702 -6.698517 
L 233.724817 -6.67519 
L 233.742615 -6.638601 
L 233.760412 -6.603283 
L 233.77821 -6.581697 
L 233.796007 -6.578281 
L 233.813805 -6.587533 
L 233.831603 -6.596041 
L 233.8494 -6.586163 
L 233.867198 -6.538947 
L 233.884995 -6.43592 
L 233.902793 -6.26123 
L 233.92059 -6.005113 
L 233.938388 -5.667105 
L 233.956186 -5.25574 
L 233.973983 -4.783306 
L 233.991781 -4.258635 
L 234.009578 -3.683652 
L 234.027376 -3.057064 
L 234.045173 -2.38245 
L 234.062971 -1.673428 
L 234.080769 -0.949975 
L 234.098566 -0.226703 
L 234.116364 0.499535 
L 234.134161 1.253844 
L 234.151959 2.075107 
L 234.169756 2.998627 
L 234.187554 4.038061 
L 234.205352 5.175648 
L 234.223149 6.365862 
L 234.240947 7.551956 
L 234.258744 8.689543 
L 234.276542 9.767564 
L 234.29434 10.816247 
L 234.312137 11.895867 
L 234.329935 13.069521 
L 234.347732 14.372438 
L 234.36553 15.792542 
L 234.383327 17.26972 
L 234.401125 18.710739 
L 234.418923 20.011666 
L 234.43672 21.081346 
L 234.454518 21.861998 
L 234.472315 22.341212 
L 234.490113 22.547562 
L 234.50791 22.527252 
L 234.525708 22.311827 
L 234.543506 21.896592 
L 234.561303 21.244794 
L 234.579101 20.315079 
L 234.596898 19.09285 
L 234.614696 17.603979 
L 234.632493 15.903334 
L 234.650291 14.048981 
L 234.668089 12.081383 
L 234.685886 10.020348 
L 234.703684 7.878424 
L 234.721481 5.679515 
L 234.739279 3.4714 
L 234.757076 1.326847 
L 234.774874 -0.666214 
L 234.792672 -2.421932 
L 234.810469 -3.875886 
L 234.828267 -4.999875 
L 234.846064 -5.806381 
L 234.863862 -6.34114 
L 234.881659 -6.667707 
L 234.899457 -6.850941 
L 234.899457 -7.189934 
L 234.899457 -7.189934 
L 234.881659 -7.373168 
L 234.863862 -7.699735 
L 234.846064 -8.234494 
L 234.828267 -9.041 
L 234.810469 -10.164989 
L 234.792672 -11.618943 
L 234.774874 -13.374661 
L 234.757076 -15.367722 
L 234.739279 -17.512275 
L 234.721481 -19.72039 
L 234.703684 -21.919299 
L 234.685886 -24.061223 
L 234.668089 -26.122258 
L 234.650291 -28.089856 
L 234.632493 -29.944209 
L 234.614696 -31.644854 
L 234.596898 -33.133725 
L 234.579101 -34.355954 
L 234.561303 -35.285669 
L 234.543506 -35.937467 
L 234.525708 -36.352702 
L 234.50791 -36.568127 
L 234.490113 -36.588437 
L 234.472315 -36.382087 
L 234.454518 -35.902873 
L 234.43672 -35.122221 
L 234.418923 -34.052541 
L 234.401125 -32.751614 
L 234.383327 -31.310595 
L 234.36553 -29.833417 
L 234.347732 -28.413313 
L 234.329935 -27.110396 
L 234.312137 -25.936742 
L 234.29434 -24.857122 
L 234.276542 -23.808439 
L 234.258744 -22.730418 
L 234.240947 -21.592831 
L 234.223149 -20.406737 
L 234.205352 -19.216523 
L 234.187554 -18.078936 
L 234.169756 -17.039502 
L 234.151959 -16.115982 
L 234.134161 -15.294719 
L 234.116364 -14.54041 
L 234.098566 -13.814172 
L 234.080769 -13.0909 
L 234.062971 -12.367447 
L 234.045173 -11.658425 
L 234.027376 -10.983811 
L 234.009578 -10.357223 
L 233.991781 -9.78224 
L 233.973983 -9.257569 
L 233.956186 -8.785135 
L 233.938388 -8.37377 
L 233.92059 -8.035762 
L 233.902793 -7.779645 
L 233.884995 -7.604955 
L 233.867198 -7.501928 
L 233.8494 -7.454712 
L 233.831603 -7.444834 
L 233.813805 -7.453342 
L 233.796007 -7.462594 
L 233.77821 -7.459178 
L 233.760412 -7.437592 
L 233.742615 -7.402274 
L 233.724817 -7.365685 
L 233.70702 -7.342358 
L 233.689222 -7.341518 
L 233.671424 -7.36199 
L 233.653627 -7.392079 
L 233.635829 -7.414542 
L 233.618032 -7.414179 
L 233.600234 -7.384222 
L 233.582437 -7.328444 
L 233.564639 -7.25841 
L 233.546841 -7.187896 
L 233.529044 -7.127668 
L 233.511246 -7.082897 
L 233.493449 -7.053538 
L 233.475651 -7.03645 
L 233.457853 -7.027686 
L 233.440056 -7.024025 
L 233.422258 -7.02362 
L 233.404461 -7.026061 
L 233.386663 -7.032202 
L 233.368866 -7.043785 
L 233.351068 -7.062729 
L 233.33327 -7.08998 
L 233.315473 -7.12417 
L 233.297675 -7.160785 
L 233.279878 -7.192669 
L 233.26208 -7.212145 
L 233.244283 -7.213983 
L 233.226485 -7.197671 
L 233.208687 -7.167644 
L 233.19089 -7.131335 
L 233.173092 -7.096215 
L 233.155295 -7.067402 
L 233.137497 -7.046839 
z
" style="stroke: #3f3f3f; stroke-width: 0.5"/>
    </defs>
    <g clip-path="url(#p4c40f775f7)">
     <use xlink:href="#mfbcb109588" x="0" y="281.578375" style="fill: #3274a1; stroke: #3f3f3f; stroke-width: 0.5"/>
    </g>
   </g>
   <g id="PolyCollection_2">
    <defs>
     <path id="m816d3d3817" d="M 38.991392 -66.164921 
L 38.991392 -66.147954 
L 41.040979 -66.133586 
L 43.090566 -66.112435 
L 45.140152 -66.095866 
L 47.189739 -66.096832 
L 49.239326 -66.114506 
L 51.288913 -66.13535 
L 53.338499 -66.148856 
L 55.388086 -66.154489 
L 57.437673 -66.15608 
L 59.48726 -66.15639 
L 61.536847 -66.156433 
L 63.586433 -66.156437 
L 65.63602 -66.156437 
L 67.685607 -66.156437 
L 69.735194 -66.156437 
L 71.78478 -66.156437 
L 73.834367 -66.156437 
L 75.883954 -66.156438 
L 77.933541 -66.156437 
L 79.983128 -66.156437 
L 82.032714 -66.156437 
L 84.082301 -66.156437 
L 86.131888 -66.156437 
L 88.181475 -66.156437 
L 90.231061 -66.156428 
L 92.280648 -66.156348 
L 94.330235 -66.155824 
L 96.379822 -66.153414 
L 98.429409 -66.145791 
L 100.478995 -66.129639 
L 102.528582 -66.108216 
L 104.578169 -66.094407 
L 106.627756 -66.099396 
L 108.677342 -66.118939 
L 110.726929 -66.138815 
L 112.776516 -66.150517 
L 114.826103 -66.155015 
L 116.87569 -66.156183 
L 118.925276 -66.156306 
L 120.974863 -66.155737 
L 123.02445 -66.152956 
L 125.074037 -66.143796 
L 127.123623 -66.122719 
L 129.17321 -66.089579 
L 131.222797 -66.056606 
L 133.272384 -66.043007 
L 135.321971 -66.057978 
L 137.371557 -66.091431 
L 139.421144 -66.124137 
L 141.470731 -66.144514 
L 143.520318 -66.153206 
L 145.569904 -66.1558 
L 147.619491 -66.156347 
L 149.669078 -66.156428 
L 151.718665 -66.156437 
L 153.768252 -66.156437 
L 155.817838 -66.156437 
L 157.867425 -66.156437 
L 159.917012 -66.156437 
L 161.966599 -66.156437 
L 164.016185 -66.156438 
L 166.065772 -66.156438 
L 168.115359 -66.156437 
L 170.164946 -66.156437 
L 172.214533 -66.156437 
L 174.264119 -66.156437 
L 176.313706 -66.156437 
L 178.363293 -66.156437 
L 180.41288 -66.156428 
L 182.462466 -66.156348 
L 184.512053 -66.155819 
L 186.56164 -66.153395 
L 188.611227 -66.145714 
L 190.660814 -66.129292 
L 192.7104 -66.106536 
L 194.759987 -66.08751 
L 196.809574 -66.077903 
L 198.859161 -66.069199 
L 200.908747 -66.052765 
L 202.958334 -66.037336 
L 205.007921 -66.037236 
L 207.057508 -66.046151 
L 209.107095 -66.035889 
L 211.156681 -65.987283 
L 213.206268 -65.918922 
L 215.255855 -65.876198 
L 217.305442 -65.883223 
L 219.355028 -65.900461 
L 221.404615 -65.819861 
L 223.454202 -65.436539 
L 225.503789 -64.207095 
L 227.553376 -60.833462 
L 229.602962 -53.770957 
L 231.652549 -43.902561 
L 233.702136 -36.588438 
L 235.751723 -37.603651 
L 237.801309 -46.260836 
L 239.850896 -56.186503 
L 241.900483 -62.569833 
L 241.900483 -69.743042 
L 241.900483 -69.743042 
L 239.850896 -76.126372 
L 237.801309 -86.052039 
L 235.751723 -94.709224 
L 233.702136 -95.724437 
L 231.652549 -88.410314 
L 229.602962 -78.541918 
L 227.553376 -71.479413 
L 225.503789 -68.10578 
L 223.454202 -66.876336 
L 221.404615 -66.493014 
L 219.355028 -66.412414 
L 217.305442 -66.429652 
L 215.255855 -66.436677 
L 213.206268 -66.393953 
L 211.156681 -66.325592 
L 209.107095 -66.276986 
L 207.057508 -66.266724 
L 205.007921 -66.275639 
L 202.958334 -66.275539 
L 200.908747 -66.26011 
L 198.859161 -66.243676 
L 196.809574 -66.234972 
L 194.759987 -66.225365 
L 192.7104 -66.206339 
L 190.660814 -66.183583 
L 188.611227 -66.167161 
L 186.56164 -66.15948 
L 184.512053 -66.157056 
L 182.462466 -66.156527 
L 180.41288 -66.156447 
L 178.363293 -66.156438 
L 176.313706 -66.156438 
L 174.264119 -66.156438 
L 172.214533 -66.156438 
L 170.164946 -66.156438 
L 168.115359 -66.156438 
L 166.065772 -66.156438 
L 164.016185 -66.156438 
L 161.966599 -66.156438 
L 159.917012 -66.156438 
L 157.867425 -66.156438 
L 155.817838 -66.156438 
L 153.768252 -66.156438 
L 151.718665 -66.156438 
L 149.669078 -66.156447 
L 147.619491 -66.156528 
L 145.569904 -66.157075 
L 143.520318 -66.159669 
L 141.470731 -66.168361 
L 139.421144 -66.188738 
L 137.371557 -66.221444 
L 135.321971 -66.254897 
L 133.272384 -66.269868 
L 131.222797 -66.256269 
L 129.17321 -66.223296 
L 127.123623 -66.190156 
L 125.074037 -66.169079 
L 123.02445 -66.159919 
L 120.974863 -66.157138 
L 118.925276 -66.156569 
L 116.87569 -66.156692 
L 114.826103 -66.15786 
L 112.776516 -66.162358 
L 110.726929 -66.17406 
L 108.677342 -66.193936 
L 106.627756 -66.213479 
L 104.578169 -66.218468 
L 102.528582 -66.204659 
L 100.478995 -66.183236 
L 98.429409 -66.167084 
L 96.379822 -66.159461 
L 94.330235 -66.157051 
L 92.280648 -66.156527 
L 90.231061 -66.156447 
L 88.181475 -66.156438 
L 86.131888 -66.156438 
L 84.082301 -66.156438 
L 82.032714 -66.156438 
L 79.983128 -66.156438 
L 77.933541 -66.156438 
L 75.883954 -66.156438 
L 73.834367 -66.156438 
L 71.78478 -66.156438 
L 69.735194 -66.156438 
L 67.685607 -66.156438 
L 65.63602 -66.156438 
L 63.586433 -66.156438 
L 61.536847 -66.156442 
L 59.48726 -66.156485 
L 57.437673 -66.156795 
L 55.388086 -66.158386 
L 53.338499 -66.164019 
L 51.288913 -66.177525 
L 49.239326 -66.198369 
L 47.189739 -66.216043 
L 45.140152 -66.217009 
L 43.090566 -66.20044 
L 41.040979 -66.179289 
L 38.991392 -66.164921 
z
" style="stroke: #3f3f3f; stroke-width: 0.5"/>
    </defs>
    <g clip-path="url(#p4c40f775f7)">
     <use xlink:href="#m816d3d3817" x="0" y="281.578375" style="fill: #e1812c; stroke: #3f3f3f; stroke-width: 0.5"/>
    </g>
   </g>
   <g id="patch_3">
    <path d="M -1832.188866 244.989937 
L -1832.188866 244.989937 
L -1832.188866 244.989937 
L -1832.188866 244.989937 
z
" clip-path="url(#p4c40f775f7)" style="fill: #3274a1; stroke: #3f3f3f; stroke-width: 0.5; stroke-linejoin: miter"/>
   </g>
   <g id="patch_4">
    <path d="M -1832.188866 244.989937 
L -1832.188866 244.989937 
L -1832.188866 244.989937 
L -1832.188866 244.989937 
z
" clip-path="url(#p4c40f775f7)" style="fill: #e1812c; stroke: #3f3f3f; stroke-width: 0.5; stroke-linejoin: miter"/>
   </g>
   <g id="matplotlib.axis_1">
    <g id="xtick_1">
     <g id="line2d_1">
      <defs>
       <path id="m720a2d02d0" d="M 0 0 
L 0 3.5 
" style="stroke: #000000; stroke-width: 0.8"/>
      </defs>
      <g>
       <use xlink:href="#m720a2d02d0" x="69.463923" y="244.989937" style="stroke: #000000; stroke-width: 0.8"/>
      </g>
     </g>
     <g id="text_1">
      <!-- 92 -->
      <g transform="translate(64.373923 258.068688) scale(0.08 -0.08)">
       <defs>
        <path id="DejaVuSerif-39" d="M 2994 2091 
Q 2784 1856 2512 1740 
Q 2241 1625 1900 1625 
Q 1206 1625 804 2044 
Q 403 2463 403 3188 
Q 403 3897 839 4323 
Q 1275 4750 2003 4750 
Q 2794 4750 3217 4161 
Q 3641 3572 3641 2478 
Q 3641 1253 3137 581 
Q 2634 -91 1722 -91 
Q 1475 -91 1203 -44 
Q 931 3 647 97 
L 647 872 
L 997 872 
Q 1038 556 1241 387 
Q 1444 219 1784 219 
Q 2391 219 2687 676 
Q 2984 1134 2994 2091 
z
M 1978 4441 
Q 1534 4441 1298 4117 
Q 1063 3794 1063 3188 
Q 1063 2581 1298 2256 
Q 1534 1931 1978 1931 
Q 2422 1931 2658 2245 
Q 2894 2559 2894 3150 
Q 2894 3772 2656 4106 
Q 2419 4441 1978 4441 
z
" transform="scale(0.015625)"/>
        <path id="DejaVuSerif-32" d="M 819 3553 
L 469 3553 
L 469 4384 
Q 803 4563 1142 4656 
Q 1481 4750 1806 4750 
Q 2534 4750 2956 4397 
Q 3378 4044 3378 3438 
Q 3378 2753 2422 1800 
Q 2347 1728 2309 1691 
L 1131 513 
L 3078 513 
L 3078 1088 
L 3444 1088 
L 3444 0 
L 434 0 
L 434 341 
L 1850 1753 
Q 2319 2222 2519 2614 
Q 2719 3006 2719 3438 
Q 2719 3909 2473 4175 
Q 2228 4441 1797 4441 
Q 1350 4441 1106 4219 
Q 863 3997 819 3553 
z
" transform="scale(0.015625)"/>
       </defs>
       <use xlink:href="#DejaVuSerif-39"/>
       <use xlink:href="#DejaVuSerif-32" x="63.623047"/>
      </g>
     </g>
    </g>
    <g id="xtick_2">
     <g id="line2d_2">
      <g>
       <use xlink:href="#m720a2d02d0" x="110.804201" y="244.989937" style="stroke: #000000; stroke-width: 0.8"/>
      </g>
     </g>
     <g id="text_2">
      <!-- 94 -->
      <g transform="translate(105.714201 258.068688) scale(0.08 -0.08)">
       <defs>
        <path id="DejaVuSerif-34" d="M 2234 1581 
L 2234 4063 
L 641 1581 
L 2234 1581 
z
M 3609 0 
L 1484 0 
L 1484 331 
L 2234 331 
L 2234 1247 
L 197 1247 
L 197 1588 
L 2241 4750 
L 2859 4750 
L 2859 1581 
L 3750 1581 
L 3750 1247 
L 2859 1247 
L 2859 331 
L 3609 331 
L 3609 0 
z
" transform="scale(0.015625)"/>
       </defs>
       <use xlink:href="#DejaVuSerif-39"/>
       <use xlink:href="#DejaVuSerif-34" x="63.623047"/>
      </g>
     </g>
    </g>
    <g id="xtick_3">
     <g id="line2d_3">
      <g>
       <use xlink:href="#m720a2d02d0" x="152.144479" y="244.989937" style="stroke: #000000; stroke-width: 0.8"/>
      </g>
     </g>
     <g id="text_3">
      <!-- 96 -->
      <g transform="translate(147.054479 258.068688) scale(0.08 -0.08)">
       <defs>
        <path id="DejaVuSerif-36" d="M 2094 219 
Q 2534 219 2771 542 
Q 3009 866 3009 1472 
Q 3009 2078 2771 2401 
Q 2534 2725 2094 2725 
Q 1647 2725 1412 2412 
Q 1178 2100 1178 1509 
Q 1178 888 1415 553 
Q 1653 219 2094 219 
z
M 1075 2569 
Q 1288 2803 1556 2918 
Q 1825 3034 2163 3034 
Q 2859 3034 3264 2615 
Q 3669 2197 3669 1472 
Q 3669 763 3233 336 
Q 2797 -91 2069 -91 
Q 1278 -91 853 498 
Q 428 1088 428 2181 
Q 428 3406 931 4078 
Q 1434 4750 2350 4750 
Q 2597 4750 2869 4703 
Q 3141 4656 3425 4563 
L 3425 3794 
L 3072 3794 
Q 3034 4109 2831 4275 
Q 2628 4441 2284 4441 
Q 1678 4441 1381 3981 
Q 1084 3522 1075 2569 
z
" transform="scale(0.015625)"/>
       </defs>
       <use xlink:href="#DejaVuSerif-39"/>
       <use xlink:href="#DejaVuSerif-36" x="63.623047"/>
      </g>
     </g>
    </g>
    <g id="xtick_4">
     <g id="line2d_4">
      <g>
       <use xlink:href="#m720a2d02d0" x="193.484757" y="244.989937" style="stroke: #000000; stroke-width: 0.8"/>
      </g>
     </g>
     <g id="text_4">
      <!-- 98 -->
      <g transform="translate(188.394757 258.068688) scale(0.08 -0.08)">
       <defs>
        <path id="DejaVuSerif-38" d="M 2981 1275 
Q 2981 1775 2732 2051 
Q 2484 2328 2034 2328 
Q 1584 2328 1336 2051 
Q 1088 1775 1088 1275 
Q 1088 772 1336 495 
Q 1584 219 2034 219 
Q 2484 219 2732 495 
Q 2981 772 2981 1275 
z
M 2853 3541 
Q 2853 3966 2637 4203 
Q 2422 4441 2034 4441 
Q 1650 4441 1433 4203 
Q 1216 3966 1216 3541 
Q 1216 3113 1433 2875 
Q 1650 2638 2034 2638 
Q 2422 2638 2637 2875 
Q 2853 3113 2853 3541 
z
M 2516 2484 
Q 3047 2413 3344 2092 
Q 3641 1772 3641 1275 
Q 3641 619 3225 264 
Q 2809 -91 2034 -91 
Q 1263 -91 845 264 
Q 428 619 428 1275 
Q 428 1772 725 2092 
Q 1022 2413 1556 2484 
Q 1084 2569 832 2842 
Q 581 3116 581 3541 
Q 581 4103 968 4426 
Q 1356 4750 2034 4750 
Q 2713 4750 3100 4426 
Q 3488 4103 3488 3541 
Q 3488 3116 3236 2842 
Q 2984 2569 2516 2484 
z
" transform="scale(0.015625)"/>
       </defs>
       <use xlink:href="#DejaVuSerif-39"/>
       <use xlink:href="#DejaVuSerif-38" x="63.623047"/>
      </g>
     </g>
    </g>
    <g id="xtick_5">
     <g id="line2d_5">
      <g>
       <use xlink:href="#m720a2d02d0" x="234.825035" y="244.989937" style="stroke: #000000; stroke-width: 0.8"/>
      </g>
     </g>
     <g id="text_5">
      <!-- 100 -->
      <g transform="translate(227.190035 258.068688) scale(0.08 -0.08)">
       <defs>
        <path id="DejaVuSerif-31" d="M 909 0 
L 909 331 
L 1722 331 
L 1722 4213 
L 781 3603 
L 781 4013 
L 1919 4750 
L 2350 4750 
L 2350 331 
L 3163 331 
L 3163 0 
L 909 0 
z
" transform="scale(0.015625)"/>
        <path id="DejaVuSerif-30" d="M 2034 219 
Q 2513 219 2750 744 
Q 2988 1269 2988 2328 
Q 2988 3391 2750 3916 
Q 2513 4441 2034 4441 
Q 1556 4441 1318 3916 
Q 1081 3391 1081 2328 
Q 1081 1269 1318 744 
Q 1556 219 2034 219 
z
M 2034 -91 
Q 1275 -91 848 546 
Q 422 1184 422 2328 
Q 422 3475 848 4112 
Q 1275 4750 2034 4750 
Q 2797 4750 3222 4112 
Q 3647 3475 3647 2328 
Q 3647 1184 3222 546 
Q 2797 -91 2034 -91 
z
" transform="scale(0.015625)"/>
       </defs>
       <use xlink:href="#DejaVuSerif-31"/>
       <use xlink:href="#DejaVuSerif-30" x="63.623047"/>
       <use xlink:href="#DejaVuSerif-30" x="127.246094"/>
      </g>
     </g>
    </g>
    <g id="text_6">
     <!-- Error Percentage -->
     <g transform="translate(92.004688 271.934312) scale(0.11 -0.11)">
      <defs>
       <path id="DejaVuSerif-45" d="M 353 0 
L 353 331 
L 947 331 
L 947 4331 
L 353 4331 
L 353 4666 
L 4109 4666 
L 4109 3628 
L 3725 3628 
L 3725 4281 
L 1581 4281 
L 1581 2719 
L 3109 2719 
L 3109 3303 
L 3494 3303 
L 3494 1753 
L 3109 1753 
L 3109 2338 
L 1581 2338 
L 1581 384 
L 3775 384 
L 3775 1038 
L 4159 1038 
L 4159 0 
L 353 0 
z
" transform="scale(0.015625)"/>
       <path id="DejaVuSerif-72" d="M 3059 3328 
L 3059 2497 
L 2728 2497 
Q 2713 2744 2591 2866 
Q 2469 2988 2234 2988 
Q 1809 2988 1582 2694 
Q 1356 2400 1356 1850 
L 1356 331 
L 2022 331 
L 2022 0 
L 263 0 
L 263 331 
L 781 331 
L 781 2994 
L 231 2994 
L 231 3322 
L 1356 3322 
L 1356 2731 
Q 1525 3078 1790 3245 
Q 2056 3413 2438 3413 
Q 2578 3413 2733 3391 
Q 2888 3369 3059 3328 
z
" transform="scale(0.015625)"/>
       <path id="DejaVuSerif-6f" d="M 1925 219 
Q 2388 219 2623 584 
Q 2859 950 2859 1663 
Q 2859 2375 2623 2739 
Q 2388 3103 1925 3103 
Q 1463 3103 1227 2739 
Q 991 2375 991 1663 
Q 991 950 1228 584 
Q 1466 219 1925 219 
z
M 1925 -91 
Q 1200 -91 759 389 
Q 319 869 319 1663 
Q 319 2456 758 2934 
Q 1197 3413 1925 3413 
Q 2653 3413 3092 2934 
Q 3531 2456 3531 1663 
Q 3531 869 3092 389 
Q 2653 -91 1925 -91 
z
" transform="scale(0.015625)"/>
       <path id="DejaVuSerif-20" transform="scale(0.015625)"/>
       <path id="DejaVuSerif-50" d="M 1581 2375 
L 2406 2375 
Q 2872 2375 3115 2626 
Q 3359 2878 3359 3353 
Q 3359 3831 3115 4081 
Q 2872 4331 2406 4331 
L 1581 4331 
L 1581 2375 
z
M 353 0 
L 353 331 
L 947 331 
L 947 4331 
L 353 4331 
L 353 4666 
L 2559 4666 
Q 3259 4666 3668 4311 
Q 4078 3956 4078 3353 
Q 4078 2753 3668 2397 
Q 3259 2041 2559 2041 
L 1581 2041 
L 1581 331 
L 2303 331 
L 2303 0 
L 353 0 
z
" transform="scale(0.015625)"/>
       <path id="DejaVuSerif-65" d="M 3469 1600 
L 991 1600 
L 991 1575 
Q 991 903 1244 561 
Q 1497 219 1991 219 
Q 2369 219 2611 417 
Q 2853 616 2950 1006 
L 3413 1006 
Q 3275 459 2904 184 
Q 2534 -91 1931 -91 
Q 1203 -91 761 389 
Q 319 869 319 1663 
Q 319 2450 753 2931 
Q 1188 3413 1894 3413 
Q 2647 3413 3050 2948 
Q 3453 2484 3469 1600 
z
M 2791 1931 
Q 2772 2513 2545 2808 
Q 2319 3103 1894 3103 
Q 1497 3103 1269 2806 
Q 1041 2509 991 1931 
L 2791 1931 
z
" transform="scale(0.015625)"/>
       <path id="DejaVuSerif-63" d="M 3291 997 
Q 3169 466 2822 187 
Q 2475 -91 1925 -91 
Q 1200 -91 759 389 
Q 319 869 319 1663 
Q 319 2459 759 2936 
Q 1200 3413 1925 3413 
Q 2241 3413 2553 3339 
Q 2866 3266 3181 3116 
L 3181 2266 
L 2847 2266 
Q 2781 2703 2561 2903 
Q 2341 3103 1931 3103 
Q 1466 3103 1228 2742 
Q 991 2381 991 1663 
Q 991 944 1227 581 
Q 1463 219 1931 219 
Q 2303 219 2525 412 
Q 2747 606 2828 997 
L 3291 997 
z
" transform="scale(0.015625)"/>
       <path id="DejaVuSerif-6e" d="M 263 0 
L 263 331 
L 781 331 
L 781 2988 
L 231 2988 
L 231 3322 
L 1356 3322 
L 1356 2731 
Q 1516 3069 1770 3241 
Q 2025 3413 2363 3413 
Q 2913 3413 3172 3097 
Q 3431 2781 3431 2113 
L 3431 331 
L 3944 331 
L 3944 0 
L 2356 0 
L 2356 331 
L 2853 331 
L 2853 1931 
Q 2853 2541 2703 2767 
Q 2553 2994 2175 2994 
Q 1775 2994 1565 2701 
Q 1356 2409 1356 1850 
L 1356 331 
L 1856 331 
L 1856 0 
L 263 0 
z
" transform="scale(0.015625)"/>
       <path id="DejaVuSerif-74" d="M 691 2988 
L 184 2988 
L 184 3322 
L 691 3322 
L 691 4353 
L 1269 4353 
L 1269 3322 
L 2350 3322 
L 2350 2988 
L 1269 2988 
L 1269 878 
Q 1269 456 1350 337 
Q 1431 219 1650 219 
Q 1875 219 1978 351 
Q 2081 484 2088 781 
L 2522 781 
Q 2497 328 2275 118 
Q 2053 -91 1600 -91 
Q 1103 -91 897 129 
Q 691 350 691 878 
L 691 2988 
z
" transform="scale(0.015625)"/>
       <path id="DejaVuSerif-61" d="M 2547 1044 
L 2547 1747 
L 1806 1747 
Q 1378 1747 1168 1562 
Q 959 1378 959 997 
Q 959 650 1171 447 
Q 1384 244 1747 244 
Q 2106 244 2326 466 
Q 2547 688 2547 1044 
z
M 3122 2075 
L 3122 331 
L 3634 331 
L 3634 0 
L 2547 0 
L 2547 359 
Q 2356 128 2106 18 
Q 1856 -91 1522 -91 
Q 969 -91 644 203 
Q 319 497 319 997 
Q 319 1513 691 1797 
Q 1063 2081 1741 2081 
L 2547 2081 
L 2547 2309 
Q 2547 2688 2317 2895 
Q 2088 3103 1672 3103 
Q 1328 3103 1125 2947 
Q 922 2791 872 2484 
L 575 2484 
L 575 3156 
Q 875 3284 1158 3348 
Q 1441 3413 1709 3413 
Q 2400 3413 2761 3070 
Q 3122 2728 3122 2075 
z
" transform="scale(0.015625)"/>
       <path id="DejaVuSerif-67" d="M 3359 2988 
L 3359 72 
Q 3359 -644 2965 -1033 
Q 2572 -1422 1844 -1422 
Q 1516 -1422 1216 -1362 
Q 916 -1303 641 -1184 
L 641 -488 
L 941 -488 
Q 997 -813 1206 -963 
Q 1416 -1113 1806 -1113 
Q 2313 -1113 2548 -827 
Q 2784 -541 2784 72 
L 2784 519 
Q 2616 206 2355 57 
Q 2094 -91 1709 -91 
Q 1097 -91 708 395 
Q 319 881 319 1663 
Q 319 2444 706 2928 
Q 1094 3413 1709 3413 
Q 2094 3413 2355 3264 
Q 2616 3116 2784 2803 
L 2784 3322 
L 3909 3322 
L 3909 2988 
L 3359 2988 
z
M 2784 1825 
Q 2784 2422 2554 2737 
Q 2325 3053 1888 3053 
Q 1444 3053 1217 2703 
Q 991 2353 991 1663 
Q 991 975 1217 622 
Q 1444 269 1888 269 
Q 2325 269 2554 583 
Q 2784 897 2784 1497 
L 2784 1825 
z
" transform="scale(0.015625)"/>
      </defs>
      <use xlink:href="#DejaVuSerif-45"/>
      <use xlink:href="#DejaVuSerif-72" x="72.998047"/>
      <use xlink:href="#DejaVuSerif-72" x="120.800781"/>
      <use xlink:href="#DejaVuSerif-6f" x="168.603516"/>
      <use xlink:href="#DejaVuSerif-72" x="228.808594"/>
      <use xlink:href="#DejaVuSerif-20" x="276.611328"/>
      <use xlink:href="#DejaVuSerif-50" x="308.398438"/>
      <use xlink:href="#DejaVuSerif-65" x="371.183594"/>
      <use xlink:href="#DejaVuSerif-72" x="430.363281"/>
      <use xlink:href="#DejaVuSerif-63" x="478.166016"/>
      <use xlink:href="#DejaVuSerif-65" x="534.171875"/>
      <use xlink:href="#DejaVuSerif-6e" x="593.351562"/>
      <use xlink:href="#DejaVuSerif-74" x="657.755859"/>
      <use xlink:href="#DejaVuSerif-61" x="697.941406"/>
      <use xlink:href="#DejaVuSerif-67" x="757.560547"/>
      <use xlink:href="#DejaVuSerif-65" x="821.574219"/>
     </g>
    </g>
   </g>
   <g id="matplotlib.axis_2">
    <g id="ytick_1">
     <g id="line2d_6">
      <defs>
       <path id="m755428dd5d" d="M 0 0 
L -3.5 0 
" style="stroke: #000000; stroke-width: 0.8"/>
      </defs>
      <g>
       <use xlink:href="#m755428dd5d" x="28.845938" y="244.989937" style="stroke: #000000; stroke-width: 0.8"/>
      </g>
     </g>
    </g>
    <g id="text_7">
     <!-- Density -->
     <g transform="translate(15.401875 155.216187) rotate(-90) scale(0.11 -0.11)">
      <defs>
       <path id="DejaVuSerif-44" d="M 1581 331 
L 2163 331 
Q 3072 331 3558 850 
Q 4044 1369 4044 2338 
Q 4044 3306 3559 3818 
Q 3075 4331 2163 4331 
L 1581 4331 
L 1581 331 
z
M 353 0 
L 353 331 
L 947 331 
L 947 4331 
L 353 4331 
L 353 4666 
L 2209 4666 
Q 3416 4666 4089 4050 
Q 4763 3434 4763 2338 
Q 4763 1238 4088 619 
Q 3413 0 2209 0 
L 353 0 
z
" transform="scale(0.015625)"/>
       <path id="DejaVuSerif-73" d="M 359 184 
L 359 959 
L 691 959 
Q 703 588 923 403 
Q 1144 219 1575 219 
Q 1963 219 2166 364 
Q 2369 509 2369 788 
Q 2369 1006 2220 1140 
Q 2072 1275 1594 1428 
L 1178 1569 
Q 750 1706 558 1912 
Q 366 2119 366 2438 
Q 366 2894 700 3153 
Q 1034 3413 1625 3413 
Q 1888 3413 2178 3344 
Q 2469 3275 2778 3144 
L 2778 2419 
L 2447 2419 
Q 2434 2741 2221 2922 
Q 2009 3103 1644 3103 
Q 1281 3103 1095 2975 
Q 909 2847 909 2591 
Q 909 2381 1050 2254 
Q 1191 2128 1613 1997 
L 2069 1856 
Q 2541 1709 2748 1489 
Q 2956 1269 2956 922 
Q 2956 450 2595 179 
Q 2234 -91 1600 -91 
Q 1278 -91 972 -22 
Q 666 47 359 184 
z
" transform="scale(0.015625)"/>
       <path id="DejaVuSerif-69" d="M 622 4353 
Q 622 4497 726 4603 
Q 831 4709 978 4709 
Q 1122 4709 1226 4603 
Q 1331 4497 1331 4353 
Q 1331 4206 1228 4103 
Q 1125 4000 978 4000 
Q 831 4000 726 4103 
Q 622 4206 622 4353 
z
M 1356 331 
L 1900 331 
L 1900 0 
L 231 0 
L 231 331 
L 781 331 
L 781 2988 
L 231 2988 
L 231 3322 
L 1356 3322 
L 1356 331 
z
" transform="scale(0.015625)"/>
       <path id="DejaVuSerif-79" d="M 1381 -609 
L 1600 -56 
L 359 2988 
L -19 2988 
L -19 3322 
L 1509 3322 
L 1509 2988 
L 978 2988 
L 1913 703 
L 2847 2988 
L 2350 2988 
L 2350 3322 
L 3597 3322 
L 3597 2988 
L 3225 2988 
L 1703 -750 
Q 1547 -1138 1356 -1280 
Q 1166 -1422 819 -1422 
Q 672 -1422 517 -1397 
Q 363 -1372 206 -1325 
L 206 -691 
L 500 -691 
Q 519 -903 608 -995 
Q 697 -1088 884 -1088 
Q 1056 -1088 1161 -992 
Q 1266 -897 1381 -609 
z
" transform="scale(0.015625)"/>
      </defs>
      <use xlink:href="#DejaVuSerif-44"/>
      <use xlink:href="#DejaVuSerif-65" x="80.175781"/>
      <use xlink:href="#DejaVuSerif-6e" x="139.355469"/>
      <use xlink:href="#DejaVuSerif-73" x="203.759766"/>
      <use xlink:href="#DejaVuSerif-69" x="255.078125"/>
      <use xlink:href="#DejaVuSerif-74" x="287.060547"/>
      <use xlink:href="#DejaVuSerif-79" x="327.246094"/>
     </g>
    </g>
   </g>
   <g id="line2d_7">
    <path d="M 233.966999 274.557937 
L 234.785513 274.557937 
" clip-path="url(#p4c40f775f7)" style="fill: none; stroke: #3f3f3f; stroke-width: 0.75; stroke-linecap: square"/>
   </g>
   <g id="line2d_8">
    <path d="M 234.322273 274.557937 
L 234.578059 274.557937 
" clip-path="url(#p4c40f775f7)" style="fill: none; stroke: #3f3f3f; stroke-width: 2.25; stroke-linecap: square"/>
   </g>
   <g id="line2d_9">
    <path d="M 234.461933 274.557937 
" clip-path="url(#p4c40f775f7)" style="fill: none; stroke: #3f3f3f; stroke-width: 20; stroke-linecap: square"/>
    <defs>
     <path id="md9dd3330c7" d="M 0 0.9375 
L 0 -0.9375 
" style="stroke: #ffffff; stroke-width: 0.45"/>
    </defs>
    <g clip-path="url(#p4c40f775f7)">
     <use xlink:href="#md9dd3330c7" x="234.461933" y="274.557937" style="fill: #ffffff; stroke: #ffffff; stroke-width: 0.45"/>
    </g>
   </g>
   <g id="line2d_10">
    <path d="M 233.897945 215.421937 
L 234.825029 215.421937 
" clip-path="url(#p4c40f775f7)" style="fill: none; stroke: #3f3f3f; stroke-width: 0.75; stroke-linecap: square"/>
   </g>
   <g id="line2d_11">
    <path d="M 234.435988 215.421937 
L 234.804423 215.421937 
" clip-path="url(#p4c40f775f7)" style="fill: none; stroke: #3f3f3f; stroke-width: 2.25; stroke-linecap: square"/>
   </g>
   <g id="line2d_12">
    <path d="M 234.73234 215.421937 
" clip-path="url(#p4c40f775f7)" style="fill: none; stroke: #3f3f3f; stroke-width: 20; stroke-linecap: square"/>
    <g clip-path="url(#p4c40f775f7)">
     <use xlink:href="#md9dd3330c7" x="234.73234" y="215.421937" style="fill: #ffffff; stroke: #ffffff; stroke-width: 0.45"/>
    </g>
   </g>
   <g id="line2d_13">
    <path d="M 232.945716 244.989937 
L 232.945716 23.229938 
" clip-path="url(#p4c40f775f7)" style="fill: none; stroke-dasharray: 3.7,1.6; stroke-dashoffset: 0; stroke: #ff7f0e"/>
   </g>
   <g id="line2d_14">
    <path d="M 234.438214 244.989937 
L 234.438214 23.229938 
" clip-path="url(#p4c40f775f7)" style="fill: none; stroke-dasharray: 3.7,1.6; stroke-dashoffset: 0; stroke: #1f77b4"/>
   </g>
   <g id="patch_5">
    <path d="M 28.845938 244.989937 
L 28.845938 23.229938 
" style="fill: none; stroke: #000000; stroke-width: 0.8; stroke-linejoin: miter; stroke-linecap: square"/>
   </g>
   <g id="patch_6">
    <path d="M 252.045937 244.989937 
L 252.045937 23.229938 
" style="fill: none; stroke: #000000; stroke-width: 0.8; stroke-linejoin: miter; stroke-linecap: square"/>
   </g>
   <g id="patch_7">
    <path d="M 28.845937 244.989937 
L 252.045938 244.989937 
" style="fill: none; stroke: #000000; stroke-width: 0.8; stroke-linejoin: miter; stroke-linecap: square"/>
   </g>
   <g id="patch_8">
    <path d="M 28.845937 23.229938 
L 252.045938 23.229938 
" style="fill: none; stroke: #000000; stroke-width: 0.8; stroke-linejoin: miter; stroke-linecap: square"/>
   </g>
   <g id="text_8">
    <!-- Nonzero $x_{011}, x_{100}$ -->
    <g transform="translate(80.583938 17.229938) scale(0.132 -0.132)">
     <defs>
      <path id="DejaVuSerif-4e" d="M 313 0 
L 313 331 
L 941 331 
L 941 4331 
L 313 4331 
L 313 4666 
L 1509 4666 
L 4306 984 
L 4306 4331 
L 3681 4331 
L 3681 4666 
L 5319 4666 
L 5319 4331 
L 4691 4331 
L 4691 -91 
L 4313 -91 
L 1325 3841 
L 1325 331 
L 1953 331 
L 1953 0 
L 313 0 
z
" transform="scale(0.015625)"/>
      <path id="DejaVuSerif-7a" d="M 256 0 
L 256 269 
L 2338 2988 
L 691 2988 
L 691 2413 
L 359 2413 
L 359 3322 
L 3078 3322 
L 3078 3053 
L 997 331 
L 2803 331 
L 2803 934 
L 3138 934 
L 3138 0 
L 256 0 
z
" transform="scale(0.015625)"/>
      <path id="DejaVuSans-Oblique-78" d="M 3841 3500 
L 2234 1784 
L 3219 0 
L 2559 0 
L 1819 1388 
L 531 0 
L -166 0 
L 1556 1844 
L 641 3500 
L 1300 3500 
L 1972 2234 
L 3144 3500 
L 3841 3500 
z
" transform="scale(0.015625)"/>
      <path id="DejaVuSans-30" d="M 2034 4250 
Q 1547 4250 1301 3770 
Q 1056 3291 1056 2328 
Q 1056 1369 1301 889 
Q 1547 409 2034 409 
Q 2525 409 2770 889 
Q 3016 1369 3016 2328 
Q 3016 3291 2770 3770 
Q 2525 4250 2034 4250 
z
M 2034 4750 
Q 2819 4750 3233 4129 
Q 3647 3509 3647 2328 
Q 3647 1150 3233 529 
Q 2819 -91 2034 -91 
Q 1250 -91 836 529 
Q 422 1150 422 2328 
Q 422 3509 836 4129 
Q 1250 4750 2034 4750 
z
" transform="scale(0.015625)"/>
      <path id="DejaVuSans-31" d="M 794 531 
L 1825 531 
L 1825 4091 
L 703 3866 
L 703 4441 
L 1819 4666 
L 2450 4666 
L 2450 531 
L 3481 531 
L 3481 0 
L 794 0 
L 794 531 
z
" transform="scale(0.015625)"/>
      <path id="DejaVuSans-2c" d="M 750 794 
L 1409 794 
L 1409 256 
L 897 -744 
L 494 -744 
L 750 256 
L 750 794 
z
" transform="scale(0.015625)"/>
     </defs>
     <use xlink:href="#DejaVuSerif-4e" transform="translate(0 0.09375)"/>
     <use xlink:href="#DejaVuSerif-6f" transform="translate(87.5 0.09375)"/>
     <use xlink:href="#DejaVuSerif-6e" transform="translate(147.705078 0.09375)"/>
     <use xlink:href="#DejaVuSerif-7a" transform="translate(212.109375 0.09375)"/>
     <use xlink:href="#DejaVuSerif-65" transform="translate(264.794922 0.09375)"/>
     <use xlink:href="#DejaVuSerif-72" transform="translate(323.974609 0.09375)"/>
     <use xlink:href="#DejaVuSerif-6f" transform="translate(371.777344 0.09375)"/>
     <use xlink:href="#DejaVuSerif-20" transform="translate(431.982422 0.09375)"/>
     <use xlink:href="#DejaVuSans-Oblique-78" transform="translate(463.769531 0.09375)"/>
     <use xlink:href="#DejaVuSans-30" transform="translate(522.949219 -16.3125) scale(0.7)"/>
     <use xlink:href="#DejaVuSans-31" transform="translate(567.485352 -16.3125) scale(0.7)"/>
     <use xlink:href="#DejaVuSans-31" transform="translate(612.021484 -16.3125) scale(0.7)"/>
     <use xlink:href="#DejaVuSans-2c" transform="translate(659.291992 0.09375)"/>
     <use xlink:href="#DejaVuSans-Oblique-78" transform="translate(710.561523 0.09375)"/>
     <use xlink:href="#DejaVuSans-31" transform="translate(769.741211 -16.3125) scale(0.7)"/>
     <use xlink:href="#DejaVuSans-30" transform="translate(814.277344 -16.3125) scale(0.7)"/>
     <use xlink:href="#DejaVuSans-30" transform="translate(858.813477 -16.3125) scale(0.7)"/>
    </g>
   </g>
   <g id="legend_1">
    <g id="patch_9">
     <path d="M 34.445938 67.760875 
L 106.780938 67.760875 
Q 108.380938 67.760875 108.380938 66.160875 
L 108.380938 28.829937 
Q 108.380938 27.229938 106.780938 27.229938 
L 34.445938 27.229938 
Q 32.845938 27.229938 32.845938 28.829937 
L 32.845938 66.160875 
Q 32.845938 67.760875 34.445938 67.760875 
z
" style="fill: #ffffff; opacity: 0.8; stroke: #cccccc; stroke-linejoin: miter"/>
    </g>
    <g id="text_9">
     <!-- Randomized -->
     <g transform="translate(36.045938 38.788219) scale(0.11 -0.11)">
      <defs>
       <path id="DejaVuSerif-52" d="M 3066 2316 
Q 3284 2256 3442 2114 
Q 3600 1972 3725 1716 
L 4403 331 
L 4972 331 
L 4972 0 
L 3872 0 
L 3144 1484 
Q 2934 1916 2759 2042 
Q 2584 2169 2278 2169 
L 1581 2169 
L 1581 331 
L 2241 331 
L 2241 0 
L 353 0 
L 353 331 
L 947 331 
L 947 4331 
L 353 4331 
L 353 4666 
L 2719 4666 
Q 3400 4666 3770 4341 
Q 4141 4016 4141 3419 
Q 4141 2938 3870 2661 
Q 3600 2384 3066 2316 
z
M 1581 2503 
L 2503 2503 
Q 2975 2503 3200 2726 
Q 3425 2950 3425 3419 
Q 3425 3888 3200 4109 
Q 2975 4331 2503 4331 
L 1581 4331 
L 1581 2503 
z
" transform="scale(0.015625)"/>
       <path id="DejaVuSerif-64" d="M 3359 331 
L 3909 331 
L 3909 0 
L 2784 0 
L 2784 519 
Q 2616 206 2355 57 
Q 2094 -91 1709 -91 
Q 1097 -91 708 395 
Q 319 881 319 1663 
Q 319 2444 706 2928 
Q 1094 3413 1709 3413 
Q 2094 3413 2355 3264 
Q 2616 3116 2784 2803 
L 2784 4531 
L 2241 4531 
L 2241 4863 
L 3359 4863 
L 3359 331 
z
M 2784 1497 
L 2784 1825 
Q 2784 2422 2554 2737 
Q 2325 3053 1888 3053 
Q 1444 3053 1217 2703 
Q 991 2353 991 1663 
Q 991 975 1217 622 
Q 1444 269 1888 269 
Q 2325 269 2554 583 
Q 2784 897 2784 1497 
z
" transform="scale(0.015625)"/>
       <path id="DejaVuSerif-6d" d="M 3316 2675 
Q 3481 3041 3739 3227 
Q 3997 3413 4341 3413 
Q 4863 3413 5119 3089 
Q 5375 2766 5375 2113 
L 5375 331 
L 5894 331 
L 5894 0 
L 4300 0 
L 4300 331 
L 4800 331 
L 4800 2047 
Q 4800 2556 4650 2772 
Q 4500 2988 4153 2988 
Q 3769 2988 3567 2697 
Q 3366 2406 3366 1850 
L 3366 331 
L 3866 331 
L 3866 0 
L 2291 0 
L 2291 331 
L 2791 331 
L 2791 2069 
Q 2791 2566 2641 2777 
Q 2491 2988 2144 2988 
Q 1759 2988 1557 2697 
Q 1356 2406 1356 1850 
L 1356 331 
L 1856 331 
L 1856 0 
L 263 0 
L 263 331 
L 781 331 
L 781 2994 
L 231 2994 
L 231 3322 
L 1356 3322 
L 1356 2731 
Q 1516 3063 1762 3238 
Q 2009 3413 2322 3413 
Q 2709 3413 2968 3220 
Q 3228 3028 3316 2675 
z
" transform="scale(0.015625)"/>
      </defs>
      <use xlink:href="#DejaVuSerif-52"/>
      <use xlink:href="#DejaVuSerif-61" x="77.542969"/>
      <use xlink:href="#DejaVuSerif-6e" x="137.162109"/>
      <use xlink:href="#DejaVuSerif-64" x="201.566406"/>
      <use xlink:href="#DejaVuSerif-6f" x="265.580078"/>
      <use xlink:href="#DejaVuSerif-6d" x="325.785156"/>
      <use xlink:href="#DejaVuSerif-69" x="420.609375"/>
      <use xlink:href="#DejaVuSerif-7a" x="452.591797"/>
      <use xlink:href="#DejaVuSerif-65" x="505.277344"/>
      <use xlink:href="#DejaVuSerif-64" x="564.457031"/>
     </g>
    </g>
    <g id="patch_10">
     <path d="M 48.823438 51.154625 
L 64.823438 51.154625 
L 64.823438 45.554625 
L 48.823438 45.554625 
z
" style="fill: #3274a1; stroke: #3f3f3f; stroke-width: 0.5; stroke-linejoin: miter"/>
    </g>
    <g id="text_10">
     <!-- False -->
     <g transform="translate(71.223438 51.154625) scale(0.08 -0.08)">
      <defs>
       <path id="DejaVuSerif-46" d="M 353 0 
L 353 331 
L 947 331 
L 947 4331 
L 353 4331 
L 353 4666 
L 4172 4666 
L 4172 3628 
L 3788 3628 
L 3788 4281 
L 1581 4281 
L 1581 2719 
L 3175 2719 
L 3175 3303 
L 3559 3303 
L 3559 1753 
L 3175 1753 
L 3175 2338 
L 1581 2338 
L 1581 331 
L 2328 331 
L 2328 0 
L 353 0 
z
" transform="scale(0.015625)"/>
       <path id="DejaVuSerif-6c" d="M 1313 331 
L 1856 331 
L 1856 0 
L 184 0 
L 184 331 
L 738 331 
L 738 4531 
L 184 4531 
L 184 4863 
L 1313 4863 
L 1313 331 
z
" transform="scale(0.015625)"/>
      </defs>
      <use xlink:href="#DejaVuSerif-46"/>
      <use xlink:href="#DejaVuSerif-61" x="62.634766"/>
      <use xlink:href="#DejaVuSerif-6c" x="122.253906"/>
      <use xlink:href="#DejaVuSerif-73" x="154.236328"/>
      <use xlink:href="#DejaVuSerif-65" x="205.554688"/>
     </g>
    </g>
    <g id="patch_11">
     <path d="M 48.823438 62.897125 
L 64.823438 62.897125 
L 64.823438 57.297125 
L 48.823438 57.297125 
z
" style="fill: #e1812c; stroke: #3f3f3f; stroke-width: 0.5; stroke-linejoin: miter"/>
    </g>
    <g id="text_11">
     <!-- True -->
     <g transform="translate(71.223438 62.897125) scale(0.08 -0.08)">
      <defs>
       <path id="DejaVuSerif-54" d="M 1222 0 
L 1222 331 
L 1819 331 
L 1819 4294 
L 447 4294 
L 447 3566 
L 63 3566 
L 63 4666 
L 4206 4666 
L 4206 3566 
L 3822 3566 
L 3822 4294 
L 2450 4294 
L 2450 331 
L 3047 331 
L 3047 0 
L 1222 0 
z
" transform="scale(0.015625)"/>
       <path id="DejaVuSerif-75" d="M 2266 3322 
L 3341 3322 
L 3341 331 
L 3884 331 
L 3884 0 
L 2766 0 
L 2766 588 
Q 2606 256 2353 82 
Q 2100 -91 1766 -91 
Q 1213 -91 952 223 
Q 691 538 691 1209 
L 691 2988 
L 172 2988 
L 172 3322 
L 1269 3322 
L 1269 1388 
Q 1269 781 1417 556 
Q 1566 331 1947 331 
Q 2347 331 2556 625 
Q 2766 919 2766 1478 
L 2766 2988 
L 2266 2988 
L 2266 3322 
z
" transform="scale(0.015625)"/>
      </defs>
      <use xlink:href="#DejaVuSerif-54"/>
      <use xlink:href="#DejaVuSerif-72" x="66.699219"/>
      <use xlink:href="#DejaVuSerif-75" x="114.501953"/>
      <use xlink:href="#DejaVuSerif-65" x="178.90625"/>
     </g>
    </g>
   </g>
  </g>
 </g>
 <defs>
  <clipPath id="p4c40f775f7">
   <rect x="28.845938" y="23.229938" width="223.2" height="221.76"/>
  </clipPath>
 </defs>
</svg>
